<?xml version="1.0" encoding="utf-8"?>
<!-- Generator: Adobe Illustrator 19.0.0, SVG Export Plug-In . SVG Version: 6.00 Build 0)  -->
<svg version="1.1" id="layer" xmlns="http://www.w3.org/2000/svg" xmlns:xlink="http://www.w3.org/1999/xlink" x="0px" y="0px"
	 viewBox="-153 -46 652 652" style="enable-background:new -153 -46 652 652;" xml:space="preserve">
<style type="text/css">
	.st0{fill:#10112B;}
	.st1{fill:#FFFFFF;}
	.st2{fill:#EBA12A;}
</style>
<path class="st0" d="M67.2,244.4h0.2c1.2,0,1.9,0.9,1.9,2.1v53.9c0,0.9-0.7,1.9-1.9,1.9c-0.9,0-1.9-0.7-1.9-1.9v-54.1
	C65.5,245.3,66.2,244.4,67.2,244.4z M15.9,247.2h35.3c1.2,0,1.9,1.2,1.9,2.1s-0.7,1.9-1.9,1.9H17.8v22.5H48c0.9,0,1.9,0.7,1.9,1.9
	c0,0.9-0.7,1.9-1.9,1.9H18.1v23.2c-0.2,1.2-1.2,2.1-2.3,2.1c-1.2,0-2.1-0.9-2.1-2.1v-51.3h0.2C13.8,248.1,14.8,247.2,15.9,247.2z
	 M118.4,263.9c0-1.2-0.9-1.9-1.9-1.9c-1.2,0-1.9,0.9-1.9,1.9v22.5c0,7.7-6.3,13.7-14,13.5c-8.2,0-12.9-5.3-12.9-13.7v-22.3
	c0-1.2-0.9-1.9-1.9-1.9c-0.9,0-1.9,0.9-1.9,1.9v23c0,9.5,6.1,16.5,16.1,16.5c6.1,0.2,11.9-3,14.7-8.4v5.8c0,1.2,0.9,1.9,1.9,1.9
	c1.2,0,1.9-0.9,1.9-1.9h-0.2V263.9z M153.9,264.2c0,0.9-0.9,1.6-1.9,1.6h-12.9v25.8c0,5.8,3.3,7.9,8.2,7.9c1.6,0,3.3-0.2,4.7-0.7
	c0.9,0,1.6,0.7,1.6,1.6c0,0.7-0.5,1.4-1.2,1.6c-1.9,0.7-4,0.9-5.8,0.9c-6.1,0-11.2-3.5-11.2-10.9v-26.2H131c-0.9,0-1.9-0.9-1.9-1.9
	c0-0.9,0.9-1.6,1.9-1.6h4.4v-11.1c0-0.9,0.7-1.9,1.6-1.9h0.2c0.9,0,1.9,0.9,1.9,1.9v11.1h12.9C153,262.3,153.9,263.2,153.9,264.2z
	 M183.9,265.8c0.9,0,1.9-0.7,1.9-1.6s-0.9-1.9-1.9-1.9H171v-11.1c0-0.9-0.9-1.9-1.9-1.9h-0.2c-0.9,0-1.6,0.9-1.6,1.9v11.1h-4.4
	c-0.9,0-1.9,0.7-1.9,1.6c0,0.9,0.9,1.9,1.9,1.9h4.4V292c0,7.4,5.1,10.9,11.2,10.9c1.9,0,4-0.2,5.8-0.9c0.7-0.2,1.2-0.9,1.2-1.6
	c0-0.9-0.7-1.6-1.6-1.6c-1.4,0.5-3,0.7-4.7,0.7c-4.9,0-8.2-2.1-8.2-7.9v-25.8H183.9z M192.8,282.3c0-11.8,8.2-21.1,19.2-21.1
	c11.5,0,18.7,9.3,18.7,21.1c0,0.9-0.9,1.9-1.9,1.9H197c0.7,10,8,15.8,15.9,15.8c4.9,0,9.8-2.1,13.1-5.6c0.2-0.2,0.7-0.5,1.2-0.5
	c0.9,0,1.9,0.9,1.9,1.9c0,0.5-0.2,0.9-0.7,1.4c-4,4.4-9.8,6.7-15.7,6.5c-10.8,0-19.9-8.4-19.9-21.1V282.3z M245.9,273.9
	c2.6-6.7,8.9-11.6,16.1-12.1c1.2,0,2.1,0.9,2.1,2.3c0,0.9-0.7,2.1-1.9,2.1H262c-8.7,0.9-16.1,7.2-16.1,20.2v14.9
	c-0.2,1.2-0.9,1.9-2.1,1.9c-0.9,0-1.9-0.9-1.9-1.9v-37.2c0.2-1.2,0.9-1.9,2.1-1.9c0.9,0,1.9,0.9,1.9,1.9V273.9z M325.8,259.7
	c-2.8,0-5.1,1.9-5.8,4.6l-6.8,21.6l-6.8-21.6c-0.7-2.8-3.3-4.9-6.3-4.9h-0.7c-3,0-5.6,1.9-6.3,4.9l-6.8,21.4l-6.5-21.6
	c-0.7-2.6-3-4.6-5.8-4.6h-0.2c-3,0-5.4,2.6-5.4,5.6c0,0.9,0.2,1.9,0.5,2.8v0l10.5,30c0.7,3,3.3,5.1,6.5,5.3h0.5c3,0,5.6-2.1,6.5-5.1
	l6.8-21.4l6.8,21.4c0.7,3,3.5,5.1,6.5,5.1h0.5c3.3,0,6.1-2.1,6.8-5.3l10.5-30.2c0.2-0.7,0.5-1.6,0.5-2.3v-0.2
	C331.2,262.1,328.9,259.7,325.8,259.7z M342.2,261.8c4.4-1.4,8.9-2.3,13.6-2.1c6.5,0,11.2,1.9,14.7,4.9c3.3,3.7,4.9,8.6,4.7,13.5v19
	c0,3.3-2.6,5.8-5.8,5.8c-3,0-5.6-2.1-5.8-5.1c-3.3,3.5-8,5.6-12.9,5.3c-7.7,0-14.5-4.6-14.5-13c0-9.3,7-13.7,17.1-13.7
	c3.5,0,7,0.5,10.3,1.6v-0.7c0-5.1-3-7.7-9.1-7.7c-2.8,0-5.6,0.2-8.4,1.2c-0.5,0.2-1.2,0.2-1.6,0.2c-2.8,0.2-5.1-1.9-5.1-4.6
	C339.2,264.4,340.3,262.5,342.2,261.8z M411.2,263.7c0.7-2.6,3-4.2,5.6-4.2c3.3,0,5.8,2.6,5.8,5.6v0.2c0,0.9-0.2,1.9-0.7,2.8
	l-12.6,30c-1.2,3-4,4.9-7,5.1h-0.7c-3.3-0.2-5.8-2.3-6.8-5.3l-13.1-30c-0.5-0.9-0.7-1.9-0.7-2.8c0.2-3.3,2.8-5.6,5.8-5.6
	c2.8,0,5.1,1.9,5.8,4.4l9.1,24.4L411.2,263.7z M427.4,283.2c0.5,11.6,10.5,20.7,22.2,20c5.4,0,10.5-1.6,14.7-5.1
	c1.2-0.9,1.6-2.1,1.6-3.5v-0.2c0-2.6-2.1-4.6-4.7-4.6c-0.9,0-2.1,0.2-2.8,0.9c-2.6,1.9-5.6,3-8.7,2.8c-5.1,0.2-9.6-3.3-10.3-8.4
	h24.1c3-0.2,5.4-2.8,5.1-5.8v-0.9c0-10.5-9.1-19.3-20.3-19c-12.4,0-21.1,10-21.1,22.1V283.2z"/>
<path class="st1" d="M196.7,280.4c0.7-8.8,7-15.6,15-15.6c9.1,0,14,7.4,14.5,15.6H196.7z M363.7,287.4c0,4.6-4,7.4-9.6,7.2
	c-3.7,0-6.5-1.9-6.5-5.1v-0.2c0-3.5,3.3-5.8,8.4-5.8c2.6,0,5.4,0.7,7.7,1.6V287.4z M448.4,269c-4.9,0-8.2,3.5-9.1,9.1h18
	C456.6,272.7,453.3,269,448.4,269z"/>
<path class="st2" d="M-46.7,217.7c52.6-7.9,18.9,36.9,2.6,49.5c11.2,8.6,22.7,20.7,27.6,34.4c9.1,25.1-13.3,28.8-30.2,22.5
	c-18.5-6.5-34.8-20.4-45.6-36.7c-3,0-6.3-0.5-9.4-1.4c6.1,17.2,8.7,34.8,7,49.2c0-29-13.8-57.8-33.7-81.8c-7-8.4,0.2-14.6,6.5-6.5
	c4.3,5.9,8.2,12,11.7,18.3C-103.3,241.6-69.7,221-46.7,217.7z M-54.2,260.4c10.3-6.3,41.6-39.9,12.4-36.9
	c-16.8,1.9-37.2,17.4-45.6,27.4C-75.7,249.5-63.8,254.6-54.2,260.4z M-83.2,286.5c9.4,10.5,22.2,20.7,36,24.4
	c8,2.1,16.8,1.2,13.6-10.2c-3.3-10.5-11.7-19.7-19.9-26.7c-2.3,1.6-4.9,3.3-7.5,4.4C-68,282.3-75.5,285.1-83.2,286.5z"/>
<path class="st1" d="M-87.7,258.3c8-0.7,16.6,3.5,23.2,7.7c-6.3,3-13.3,4.9-20.6,5.3C-95.8,271.4-98,259.3-87.7,258.3z"/>
</svg>
