<?xml version="1.0" encoding="utf-8"?>
<!-- Generator: Adobe Illustrator 25.2.0, SVG Export Plug-In . SVG Version: 6.00 Build 0)  -->
<svg version="1.1" id="Layer_1" xmlns="http://www.w3.org/2000/svg" xmlns:xlink="http://www.w3.org/1999/xlink" x="0px" y="0px"
	 viewBox="0 0 640 480" style="enable-background:new 0 0 640 480;" xml:space="preserve">
<style type="text/css">
	.st0{fill:#EBEBEB;}
	.st1{fill:#FFFFFF;}
	.st2{opacity:0.5;fill:#EBEBEB;enable-background:new    ;}
	.st3{fill:#C7C7C7;}
	.st4{fill:#263238;}
	.st5{fill:#37474F;}
	.st6{fill:#455A64;}
	.st7{fill:#DBDBDB;}
	.st8{fill:#FFC727;}
	.st9{opacity:0.3;}
	.st10{opacity:0.2;}
	.st11{opacity:0.1;enable-background:new    ;}
	.st12{opacity:0.2;fill:#FFFFFF;enable-background:new    ;}
	.st13{opacity:0.1;fill:#FFFFFF;enable-background:new    ;}
</style>
<g>
	<g>
		<g>
			<polygon class="st0" points="173.2,128.1 173.2,184.2 314.5,184.2 314.5,153 302.2,153 302.2,166.2 299.1,166.2 299.1,158.7 
				283.5,158.7 283.5,170.5 281.4,170.5 281.4,134.3 267.9,134.3 267.9,150.4 260.9,150.4 260.9,159.8 258.8,159.8 258.8,153.9 
				246.5,153.9 246.5,171.7 242.9,171.7 242.9,157.2 231.6,157.2 231.6,146.3 224,146.3 224,140 215.1,140 215.1,167.7 212.1,167.7 
				212.1,137.3 197.5,137.3 197.5,153.8 195.5,153.8 195.5,140.3 180.7,140.3 180.7,128.1 			"/>
			<g>
				<rect x="310.9" y="154.6" class="st1" width="2.1" height="2.5"/>
				<rect x="307.3" y="154.6" class="st1" width="2.1" height="2.5"/>
				<rect x="303.7" y="154.6" class="st1" width="2.1" height="2.5"/>
				<rect x="310.9" y="158.4" class="st1" width="2.1" height="2.5"/>
				<rect x="307.3" y="158.4" class="st1" width="2.1" height="2.5"/>
				<rect x="303.7" y="158.4" class="st1" width="2.1" height="2.5"/>
				<rect x="310.9" y="162.2" class="st1" width="2.1" height="2.5"/>
				<rect x="307.3" y="162.2" class="st1" width="2.1" height="2.5"/>
				<rect x="303.7" y="162.2" class="st1" width="2.1" height="2.5"/>
				<rect x="310.9" y="166" class="st1" width="2.1" height="2.5"/>
				<rect x="307.3" y="166" class="st1" width="2.1" height="2.5"/>
				<rect x="303.7" y="166" class="st1" width="2.1" height="2.5"/>
				<rect x="239.1" y="159" class="st1" width="2.1" height="2.1"/>
				<rect x="235.5" y="159" class="st1" width="2.1" height="2.1"/>
				<rect x="231.9" y="159" class="st1" width="2.1" height="2.1"/>
				<rect x="239.1" y="162.2" class="st1" width="2.1" height="2.1"/>
				<rect x="235.5" y="162.2" class="st1" width="2.1" height="2.1"/>
				<rect x="231.9" y="162.2" class="st1" width="2.1" height="2.1"/>
				<rect x="239.1" y="165.3" class="st1" width="2.1" height="2.1"/>
				<rect x="235.5" y="165.3" class="st1" width="2.1" height="2.1"/>
				<rect x="231.9" y="165.3" class="st1" width="2.1" height="2.1"/>
				<rect x="239.1" y="168.5" class="st1" width="2.1" height="2.1"/>
				<rect x="235.5" y="168.5" class="st1" width="2.1" height="2.1"/>
				<rect x="231.9" y="168.5" class="st1" width="2.1" height="2.1"/>
				<rect x="239.1" y="171.7" class="st1" width="2.1" height="2.1"/>
				<rect x="235.5" y="171.7" class="st1" width="2.1" height="2.1"/>
				<rect x="231.9" y="171.7" class="st1" width="2.1" height="2.1"/>
				<rect x="239.1" y="175" class="st1" width="2.1" height="2.1"/>
				<rect x="235.5" y="175" class="st1" width="2.1" height="2.1"/>
				<rect x="231.9" y="175" class="st1" width="2.1" height="2.1"/>
				<rect x="239.1" y="178.2" class="st1" width="2.1" height="2.1"/>
				<rect x="235.5" y="178.2" class="st1" width="2.1" height="2.1"/>
				<rect x="231.9" y="178.2" class="st1" width="2.1" height="2.1"/>
				<rect x="239.1" y="181.5" class="st1" width="2.1" height="2.1"/>
				<rect x="235.5" y="181.5" class="st1" width="2.1" height="2.1"/>
				<rect x="231.9" y="181.5" class="st1" width="2.1" height="2.1"/>
				<rect x="285.4" y="160.3" class="st1" width="11.9" height="1.6"/>
				<rect x="285.4" y="163.4" class="st1" width="11.9" height="1.6"/>
				<rect x="285.4" y="166.4" class="st1" width="11.9" height="1.6"/>
				<rect x="285.4" y="169.5" class="st1" width="11.9" height="1.6"/>
				<rect x="285.4" y="172.5" class="st1" width="11.9" height="1.6"/>
				<rect x="285.4" y="175.6" class="st1" width="11.9" height="1.6"/>
				<rect x="285.4" y="178.6" class="st1" width="11.9" height="1.6"/>
				<rect x="285.4" y="181.7" class="st1" width="11.9" height="1.6"/>
				<rect x="199.4" y="138.7" class="st1" width="11" height="1.6"/>
				<rect x="199.4" y="141.8" class="st1" width="11" height="1.6"/>
				<rect x="199.4" y="144.8" class="st1" width="11" height="1.6"/>
				<rect x="199.4" y="147.9" class="st1" width="11" height="1.6"/>
				<rect x="199.4" y="151" class="st1" width="11" height="1.6"/>
				<rect x="199.4" y="154" class="st1" width="11" height="1.6"/>
				<rect x="199.4" y="157.1" class="st1" width="11" height="1.6"/>
				<rect x="199.4" y="160.1" class="st1" width="11" height="1.6"/>
				<rect x="199.4" y="163" class="st1" width="11" height="1.6"/>
				<rect x="199.4" y="165.9" class="st1" width="11" height="1.6"/>
				<rect x="199.4" y="168.8" class="st1" width="11" height="1.6"/>
				<rect x="199.4" y="171.7" class="st1" width="11" height="1.6"/>
				<rect x="181.6" y="142.4" class="st1" width="11.6" height="1.6"/>
				<rect x="181.6" y="145.5" class="st1" width="11.6" height="1.6"/>
				<rect x="181.6" y="148.5" class="st1" width="11.6" height="1.6"/>
				<rect x="181.6" y="151.6" class="st1" width="11.6" height="1.6"/>
				<rect x="181.6" y="154.6" class="st1" width="11.6" height="1.6"/>
				<rect x="181.6" y="157.7" class="st1" width="11.6" height="1.6"/>
				<rect x="181.6" y="160.8" class="st1" width="11.6" height="1.6"/>
				<rect x="181.6" y="163.8" class="st1" width="11.6" height="1.6"/>
				<rect x="181.6" y="166.5" class="st1" width="11.6" height="1.6"/>
				<rect x="181.6" y="169.3" class="st1" width="11.6" height="1.6"/>
				<rect x="181.6" y="172" class="st1" width="11.6" height="1.6"/>
				<g>
					<rect x="251.5" y="155.3" class="st1" width="3.7" height="1.5"/>
					<rect x="251.5" y="158.3" class="st1" width="3.7" height="1.5"/>
					<rect x="251.5" y="161.2" class="st1" width="3.7" height="1.5"/>
					<rect x="251.5" y="164.2" class="st1" width="3.7" height="1.5"/>
					<rect x="251.5" y="167.1" class="st1" width="3.7" height="1.5"/>
					<rect x="251.5" y="170.1" class="st1" width="3.7" height="1.5"/>
					<rect x="251.5" y="173" class="st1" width="3.7" height="1.5"/>
					<rect x="251.5" y="176" class="st1" width="3.7" height="1.5"/>
				</g>
				<g>
					<rect x="246.5" y="155.3" class="st1" width="3.7" height="1.5"/>
					<rect x="246.5" y="158.3" class="st1" width="3.7" height="1.5"/>
					<rect x="246.5" y="161.2" class="st1" width="3.7" height="1.5"/>
					<rect x="246.5" y="164.2" class="st1" width="3.7" height="1.5"/>
					<rect x="246.5" y="167.1" class="st1" width="3.7" height="1.5"/>
					<rect x="246.5" y="170.1" class="st1" width="3.7" height="1.5"/>
					<rect x="246.5" y="173" class="st1" width="3.7" height="1.5"/>
					<rect x="246.5" y="176" class="st1" width="3.7" height="1.5"/>
				</g>
				<g>
					<rect x="275.5" y="136.1" class="st1" width="3.8" height="2.4"/>
					<rect x="269.8" y="136.1" class="st1" width="3.8" height="2.4"/>
					<rect x="275.5" y="139.6" class="st1" width="3.8" height="2.4"/>
					<rect x="269.8" y="139.6" class="st1" width="3.8" height="2.4"/>
					<rect x="275.5" y="143.1" class="st1" width="3.8" height="2.4"/>
					<rect x="269.8" y="143.1" class="st1" width="3.8" height="2.4"/>
					<rect x="275.5" y="146.6" class="st1" width="3.8" height="2.4"/>
					<rect x="269.8" y="146.6" class="st1" width="3.8" height="2.4"/>
					<rect x="275.5" y="150.1" class="st1" width="3.8" height="2.4"/>
					<rect x="269.8" y="150.1" class="st1" width="3.8" height="2.4"/>
				</g>
				<g>
					<rect x="262.7" y="151.4" class="st1" width="3.8" height="2.4"/>
					<rect x="262.7" y="154.9" class="st1" width="3.8" height="2.4"/>
					<rect x="262.7" y="158.5" class="st1" width="3.8" height="2.4"/>
					<rect x="262.7" y="162" class="st1" width="3.8" height="2.4"/>
					<rect x="262.7" y="165.5" class="st1" width="3.8" height="2.4"/>
					<rect x="262.7" y="169" class="st1" width="3.8" height="2.4"/>
					<rect x="275.5" y="153.6" class="st1" width="3.8" height="2.4"/>
					<rect x="269.8" y="153.6" class="st1" width="3.8" height="2.4"/>
					<rect x="262.7" y="172.5" class="st1" width="3.8" height="2.4"/>
					<rect x="275.5" y="157.1" class="st1" width="3.8" height="2.4"/>
					<rect x="269.8" y="157.1" class="st1" width="3.8" height="2.4"/>
					<rect x="262.7" y="176" class="st1" width="3.8" height="2.4"/>
					<rect x="275.5" y="160.6" class="st1" width="3.8" height="2.4"/>
					<rect x="269.8" y="160.6" class="st1" width="3.8" height="2.4"/>
					<rect x="262.7" y="179.5" class="st1" width="3.8" height="2.4"/>
					<rect x="275.5" y="164.1" class="st1" width="3.8" height="2.4"/>
					<rect x="269.8" y="164.1" class="st1" width="3.8" height="2.4"/>
					<rect x="275.5" y="167.6" class="st1" width="3.8" height="2.4"/>
					<rect x="269.8" y="167.6" class="st1" width="3.8" height="2.4"/>
				</g>
				<rect x="228" y="147.8" class="st1" width="2.1" height="2.1"/>
				<rect x="224.4" y="147.8" class="st1" width="2.1" height="2.1"/>
				<rect x="228" y="151" class="st1" width="2.1" height="2.1"/>
				<rect x="224.4" y="151" class="st1" width="2.1" height="2.1"/>
				<rect x="228" y="154.1" class="st1" width="2.1" height="2.1"/>
				<rect x="224.4" y="154.1" class="st1" width="2.1" height="2.1"/>
				<rect x="228" y="157.3" class="st1" width="2.1" height="2.1"/>
				<rect x="224.4" y="157.3" class="st1" width="2.1" height="2.1"/>
				<rect x="228" y="160.5" class="st1" width="2.1" height="2.1"/>
				<rect x="224.4" y="160.5" class="st1" width="2.1" height="2.1"/>
				<rect x="228" y="163.8" class="st1" width="2.1" height="2.1"/>
				<rect x="224.4" y="163.8" class="st1" width="2.1" height="2.1"/>
				<rect x="228" y="167" class="st1" width="2.1" height="2.1"/>
				<rect x="224.4" y="167" class="st1" width="2.1" height="2.1"/>
				<rect x="228" y="170.2" class="st1" width="2.1" height="2.1"/>
				<rect x="224.4" y="170.2" class="st1" width="2.1" height="2.1"/>
				<rect x="228" y="173.5" class="st1" width="2.1" height="2.1"/>
				<rect x="224.4" y="173.5" class="st1" width="2.1" height="2.1"/>
				<rect x="228" y="176.8" class="st1" width="2.1" height="2.1"/>
				<rect x="224.4" y="176.8" class="st1" width="2.1" height="2.1"/>
				<rect x="228" y="180.1" class="st1" width="2.1" height="2.1"/>
				<rect x="224.4" y="180.1" class="st1" width="2.1" height="2.1"/>
				<rect x="177.3" y="129.2" class="st1" width="2.1" height="2.5"/>
				<rect x="173.7" y="129.2" class="st1" width="2.1" height="2.5"/>
				<rect x="177.3" y="133" class="st1" width="2.1" height="2.5"/>
				<rect x="173.7" y="133" class="st1" width="2.1" height="2.5"/>
				<rect x="177.3" y="136.7" class="st1" width="2.1" height="2.5"/>
				<rect x="173.7" y="136.7" class="st1" width="2.1" height="2.5"/>
				<rect x="177.3" y="140.4" class="st1" width="2.1" height="2.5"/>
				<rect x="173.7" y="140.4" class="st1" width="2.1" height="2.5"/>
				<rect x="177.3" y="144.2" class="st1" width="2.1" height="2.5"/>
				<rect x="173.7" y="144.2" class="st1" width="2.1" height="2.5"/>
				<rect x="177.3" y="148.1" class="st1" width="2.1" height="2.5"/>
				<rect x="173.7" y="148.1" class="st1" width="2.1" height="2.5"/>
				<rect x="177.3" y="151.9" class="st1" width="2.1" height="2.5"/>
				<rect x="173.7" y="151.9" class="st1" width="2.1" height="2.5"/>
				<rect x="177.3" y="155.7" class="st1" width="2.1" height="2.5"/>
				<rect x="173.7" y="155.7" class="st1" width="2.1" height="2.5"/>
				<rect x="177.3" y="159.5" class="st1" width="2.1" height="2.5"/>
				<rect x="173.7" y="159.5" class="st1" width="2.1" height="2.5"/>
				<rect x="177.3" y="163.4" class="st1" width="2.1" height="2.5"/>
				<rect x="173.7" y="163.4" class="st1" width="2.1" height="2.5"/>
				<rect x="177.3" y="167.3" class="st1" width="2.1" height="2.5"/>
				<rect x="173.7" y="167.3" class="st1" width="2.1" height="2.5"/>
				<rect x="177.3" y="171.1" class="st1" width="2.1" height="2.5"/>
				<rect x="173.7" y="171.1" class="st1" width="2.1" height="2.5"/>
				<rect x="220.3" y="147.8" class="st1" width="2.1" height="2.1"/>
				<rect x="216.7" y="147.8" class="st1" width="2.1" height="2.1"/>
				<rect x="220.3" y="144.6" class="st1" width="2.1" height="2.1"/>
				<rect x="216.7" y="144.6" class="st1" width="2.1" height="2.1"/>
				<rect x="220.3" y="141.3" class="st1" width="2.1" height="2.1"/>
				<rect x="216.7" y="141.3" class="st1" width="2.1" height="2.1"/>
				<rect x="220.3" y="151" class="st1" width="2.1" height="2.1"/>
				<rect x="216.7" y="151" class="st1" width="2.1" height="2.1"/>
				<rect x="220.3" y="154.1" class="st1" width="2.1" height="2.1"/>
				<rect x="216.7" y="154.1" class="st1" width="2.1" height="2.1"/>
				<rect x="220.3" y="157.3" class="st1" width="2.1" height="2.1"/>
				<rect x="216.7" y="157.3" class="st1" width="2.1" height="2.1"/>
				<rect x="220.3" y="160.5" class="st1" width="2.1" height="2.1"/>
				<rect x="216.7" y="160.5" class="st1" width="2.1" height="2.1"/>
				<rect x="220.3" y="163.8" class="st1" width="2.1" height="2.1"/>
				<rect x="216.7" y="163.8" class="st1" width="2.1" height="2.1"/>
				<rect x="220.3" y="167" class="st1" width="2.1" height="2.1"/>
				<rect x="216.7" y="167" class="st1" width="2.1" height="2.1"/>
				<rect x="220.3" y="170.2" class="st1" width="2.1" height="2.1"/>
				<rect x="216.7" y="170.2" class="st1" width="2.1" height="2.1"/>
				<rect x="220.3" y="173.5" class="st1" width="2.1" height="2.1"/>
				<rect x="216.7" y="173.5" class="st1" width="2.1" height="2.1"/>
				<rect x="220.3" y="176.8" class="st1" width="2.1" height="2.1"/>
				<rect x="216.7" y="176.8" class="st1" width="2.1" height="2.1"/>
				<rect x="220.3" y="180.1" class="st1" width="2.1" height="2.1"/>
				<rect x="216.7" y="180.1" class="st1" width="2.1" height="2.1"/>
			</g>
		</g>
	</g>
	<g>
		<g>
			<polygon class="st0" points="456.6,128.1 456.6,184.2 598.8,184.2 598.8,153 586.6,153 586.6,166.2 583.4,166.2 583.4,158.7 
				567.8,158.7 567.8,170.5 565.8,170.5 565.8,138 552.2,138 552.2,150.4 545.3,150.4 545.3,159.8 543.1,159.8 543.1,153.9 
				530.8,153.9 530.8,171.7 527.2,171.7 527.2,157.2 516,157.2 516,146.3 508.3,146.3 508.3,140 499.4,140 499.4,167.7 496.5,167.7 
				496.5,137.3 481.9,137.3 481.9,153.8 479.9,153.8 479.9,140.3 465,140.3 465,128.1 			"/>
			<g>
				<rect x="595.2" y="154.6" class="st1" width="2.1" height="2.5"/>
				<rect x="591.6" y="154.6" class="st1" width="2.1" height="2.5"/>
				<rect x="588.1" y="154.6" class="st1" width="2.1" height="2.5"/>
				<rect x="595.2" y="158.4" class="st1" width="2.1" height="2.5"/>
				<rect x="591.6" y="158.4" class="st1" width="2.1" height="2.5"/>
				<rect x="588.1" y="158.4" class="st1" width="2.1" height="2.5"/>
				<rect x="595.2" y="162.2" class="st1" width="2.1" height="2.5"/>
				<rect x="591.6" y="162.2" class="st1" width="2.1" height="2.5"/>
				<rect x="588.1" y="162.2" class="st1" width="2.1" height="2.5"/>
				<rect x="595.2" y="166" class="st1" width="2.1" height="2.5"/>
				<rect x="591.6" y="166" class="st1" width="2.1" height="2.5"/>
				<rect x="588.1" y="166" class="st1" width="2.1" height="2.5"/>
				<rect x="523.4" y="159" class="st1" width="2.1" height="2.1"/>
				<rect x="519.8" y="159" class="st1" width="2.1" height="2.1"/>
				<rect x="516.2" y="159" class="st1" width="2.1" height="2.1"/>
				<rect x="523.4" y="162.2" class="st1" width="2.1" height="2.1"/>
				<rect x="519.8" y="162.2" class="st1" width="2.1" height="2.1"/>
				<rect x="516.2" y="162.2" class="st1" width="2.1" height="2.1"/>
				<rect x="523.4" y="165.3" class="st1" width="2.1" height="2.1"/>
				<rect x="519.8" y="165.3" class="st1" width="2.1" height="2.1"/>
				<rect x="516.2" y="165.3" class="st1" width="2.1" height="2.1"/>
				<rect x="523.4" y="168.5" class="st1" width="2.1" height="2.1"/>
				<rect x="519.8" y="168.5" class="st1" width="2.1" height="2.1"/>
				<rect x="516.2" y="168.5" class="st1" width="2.1" height="2.1"/>
				<rect x="523.4" y="171.7" class="st1" width="2.1" height="2.1"/>
				<rect x="519.8" y="171.7" class="st1" width="2.1" height="2.1"/>
				<rect x="516.2" y="171.7" class="st1" width="2.1" height="2.1"/>
				<rect x="523.4" y="175" class="st1" width="2.1" height="2.1"/>
				<rect x="519.8" y="175" class="st1" width="2.1" height="2.1"/>
				<rect x="516.2" y="175" class="st1" width="2.1" height="2.1"/>
				<rect x="523.4" y="178.2" class="st1" width="2.1" height="2.1"/>
				<rect x="519.8" y="178.2" class="st1" width="2.1" height="2.1"/>
				<rect x="516.2" y="178.2" class="st1" width="2.1" height="2.1"/>
				<rect x="523.4" y="181.5" class="st1" width="2.1" height="2.1"/>
				<rect x="519.8" y="181.5" class="st1" width="2.1" height="2.1"/>
				<rect x="516.2" y="181.5" class="st1" width="2.1" height="2.1"/>
				<rect x="569.7" y="160.3" class="st1" width="11.9" height="1.6"/>
				<rect x="569.7" y="163.4" class="st1" width="11.9" height="1.6"/>
				<rect x="569.7" y="166.4" class="st1" width="11.9" height="1.6"/>
				<rect x="569.7" y="169.5" class="st1" width="11.9" height="1.6"/>
				<rect x="569.7" y="172.5" class="st1" width="11.9" height="1.6"/>
				<rect x="569.7" y="175.6" class="st1" width="11.9" height="1.6"/>
				<rect x="569.7" y="178.6" class="st1" width="11.9" height="1.6"/>
				<rect x="569.7" y="181.7" class="st1" width="11.9" height="1.6"/>
				<rect x="483.7" y="138.7" class="st1" width="11" height="1.6"/>
				<rect x="483.7" y="141.8" class="st1" width="11" height="1.6"/>
				<rect x="483.7" y="144.8" class="st1" width="11" height="1.6"/>
				<rect x="483.7" y="147.9" class="st1" width="11" height="1.6"/>
				<rect x="483.7" y="151" class="st1" width="11" height="1.6"/>
				<rect x="483.7" y="154" class="st1" width="11" height="1.6"/>
				<rect x="483.7" y="157.1" class="st1" width="11" height="1.6"/>
				<rect x="483.7" y="160.1" class="st1" width="11" height="1.6"/>
				<rect x="483.7" y="163" class="st1" width="11" height="1.6"/>
				<rect x="483.7" y="165.9" class="st1" width="11" height="1.6"/>
				<rect x="483.7" y="168.8" class="st1" width="11" height="1.6"/>
				<rect x="483.7" y="171.7" class="st1" width="11" height="1.6"/>
				<rect x="466" y="142.4" class="st1" width="11.6" height="1.6"/>
				<rect x="466" y="145.5" class="st1" width="11.6" height="1.6"/>
				<rect x="466" y="148.5" class="st1" width="11.6" height="1.6"/>
				<rect x="466" y="151.6" class="st1" width="11.6" height="1.6"/>
				<rect x="466" y="154.6" class="st1" width="11.6" height="1.6"/>
				<rect x="466" y="157.7" class="st1" width="11.6" height="1.6"/>
				<rect x="466" y="160.8" class="st1" width="11.6" height="1.6"/>
				<rect x="466" y="163.8" class="st1" width="11.6" height="1.6"/>
				<rect x="466" y="166.5" class="st1" width="11.6" height="1.6"/>
				<rect x="466" y="169.3" class="st1" width="11.6" height="1.6"/>
				<rect x="466" y="172" class="st1" width="11.6" height="1.6"/>
				<g>
					<rect x="535.9" y="155.3" class="st1" width="3.7" height="1.5"/>
					<rect x="535.9" y="158.3" class="st1" width="3.7" height="1.5"/>
					<rect x="535.9" y="161.2" class="st1" width="3.7" height="1.5"/>
					<rect x="535.9" y="164.2" class="st1" width="3.7" height="1.5"/>
					<rect x="535.9" y="167.1" class="st1" width="3.7" height="1.5"/>
					<rect x="535.9" y="170.1" class="st1" width="3.7" height="1.5"/>
					<rect x="535.9" y="173" class="st1" width="3.7" height="1.5"/>
					<rect x="535.9" y="176" class="st1" width="3.7" height="1.5"/>
				</g>
				<g>
					<rect x="530.8" y="155.3" class="st1" width="3.7" height="1.5"/>
					<rect x="530.8" y="158.3" class="st1" width="3.7" height="1.5"/>
					<rect x="530.8" y="161.2" class="st1" width="3.7" height="1.5"/>
					<rect x="530.8" y="164.2" class="st1" width="3.7" height="1.5"/>
					<rect x="530.8" y="167.1" class="st1" width="3.7" height="1.5"/>
					<rect x="530.8" y="170.1" class="st1" width="3.7" height="1.5"/>
					<rect x="530.8" y="173" class="st1" width="3.7" height="1.5"/>
					<rect x="530.8" y="176" class="st1" width="3.7" height="1.5"/>
				</g>
				<g>
					<rect x="559.9" y="139.6" class="st1" width="3.8" height="2.4"/>
					<rect x="554.1" y="139.6" class="st1" width="3.8" height="2.4"/>
					<rect x="559.9" y="143.1" class="st1" width="3.8" height="2.4"/>
					<rect x="554.1" y="143.1" class="st1" width="3.8" height="2.4"/>
					<rect x="559.9" y="146.6" class="st1" width="3.8" height="2.4"/>
					<rect x="554.1" y="146.6" class="st1" width="3.8" height="2.4"/>
					<rect x="559.9" y="150.1" class="st1" width="3.8" height="2.4"/>
					<rect x="554.1" y="150.1" class="st1" width="3.8" height="2.4"/>
				</g>
				<g>
					<rect x="547" y="151.4" class="st1" width="3.8" height="2.4"/>
					<rect x="547" y="154.9" class="st1" width="3.8" height="2.4"/>
					<rect x="547" y="158.5" class="st1" width="3.8" height="2.4"/>
					<rect x="547" y="162" class="st1" width="3.8" height="2.4"/>
					<rect x="547" y="165.5" class="st1" width="3.8" height="2.4"/>
					<rect x="547" y="169" class="st1" width="3.8" height="2.4"/>
					<rect x="559.9" y="153.6" class="st1" width="3.8" height="2.4"/>
					<rect x="554.1" y="153.6" class="st1" width="3.8" height="2.4"/>
					<rect x="547" y="172.5" class="st1" width="3.8" height="2.4"/>
					<rect x="559.9" y="157.1" class="st1" width="3.8" height="2.4"/>
					<rect x="554.1" y="157.1" class="st1" width="3.8" height="2.4"/>
					<rect x="547" y="176" class="st1" width="3.8" height="2.4"/>
					<rect x="559.9" y="160.6" class="st1" width="3.8" height="2.4"/>
					<rect x="554.1" y="160.6" class="st1" width="3.8" height="2.4"/>
					<rect x="547" y="179.5" class="st1" width="3.8" height="2.4"/>
					<rect x="559.9" y="164.1" class="st1" width="3.8" height="2.4"/>
					<rect x="554.1" y="164.1" class="st1" width="3.8" height="2.4"/>
					<rect x="559.9" y="167.6" class="st1" width="3.8" height="2.4"/>
					<rect x="554.1" y="167.6" class="st1" width="3.8" height="2.4"/>
				</g>
				<rect x="512.3" y="147.8" class="st1" width="2.1" height="2.1"/>
				<rect x="508.7" y="147.8" class="st1" width="2.1" height="2.1"/>
				<rect x="512.3" y="151" class="st1" width="2.1" height="2.1"/>
				<rect x="508.7" y="151" class="st1" width="2.1" height="2.1"/>
				<rect x="512.3" y="154.1" class="st1" width="2.1" height="2.1"/>
				<rect x="508.7" y="154.1" class="st1" width="2.1" height="2.1"/>
				<rect x="512.3" y="157.3" class="st1" width="2.1" height="2.1"/>
				<rect x="508.7" y="157.3" class="st1" width="2.1" height="2.1"/>
				<rect x="512.3" y="160.5" class="st1" width="2.1" height="2.1"/>
				<rect x="508.7" y="160.5" class="st1" width="2.1" height="2.1"/>
				<rect x="512.3" y="163.8" class="st1" width="2.1" height="2.1"/>
				<rect x="508.7" y="163.8" class="st1" width="2.1" height="2.1"/>
				<rect x="512.3" y="167" class="st1" width="2.1" height="2.1"/>
				<rect x="508.7" y="167" class="st1" width="2.1" height="2.1"/>
				<rect x="512.3" y="170.2" class="st1" width="2.1" height="2.1"/>
				<rect x="508.7" y="170.2" class="st1" width="2.1" height="2.1"/>
				<rect x="512.3" y="173.5" class="st1" width="2.1" height="2.1"/>
				<rect x="508.7" y="173.5" class="st1" width="2.1" height="2.1"/>
				<rect x="512.3" y="176.8" class="st1" width="2.1" height="2.1"/>
				<rect x="508.7" y="176.8" class="st1" width="2.1" height="2.1"/>
				<rect x="512.3" y="180.1" class="st1" width="2.1" height="2.1"/>
				<rect x="508.7" y="180.1" class="st1" width="2.1" height="2.1"/>
				<rect x="461.7" y="129.2" class="st1" width="2.1" height="2.5"/>
				<rect x="458.1" y="129.2" class="st1" width="2.1" height="2.5"/>
				<rect x="461.7" y="133" class="st1" width="2.1" height="2.5"/>
				<rect x="458.1" y="133" class="st1" width="2.1" height="2.5"/>
				<rect x="461.7" y="136.7" class="st1" width="2.1" height="2.5"/>
				<rect x="458.1" y="136.7" class="st1" width="2.1" height="2.5"/>
				<rect x="461.7" y="140.4" class="st1" width="2.1" height="2.5"/>
				<rect x="458.1" y="140.4" class="st1" width="2.1" height="2.5"/>
				<rect x="461.7" y="144.2" class="st1" width="2.1" height="2.5"/>
				<rect x="458.1" y="144.2" class="st1" width="2.1" height="2.5"/>
				<rect x="461.7" y="148.1" class="st1" width="2.1" height="2.5"/>
				<rect x="458.1" y="148.1" class="st1" width="2.1" height="2.5"/>
				<rect x="461.7" y="151.9" class="st1" width="2.1" height="2.5"/>
				<rect x="458.1" y="151.9" class="st1" width="2.1" height="2.5"/>
				<rect x="461.7" y="155.7" class="st1" width="2.1" height="2.5"/>
				<rect x="458.1" y="155.7" class="st1" width="2.1" height="2.5"/>
				<rect x="461.7" y="159.5" class="st1" width="2.1" height="2.5"/>
				<rect x="458.1" y="159.5" class="st1" width="2.1" height="2.5"/>
				<rect x="461.7" y="163.4" class="st1" width="2.1" height="2.5"/>
				<rect x="458.1" y="163.4" class="st1" width="2.1" height="2.5"/>
				<rect x="461.7" y="167.3" class="st1" width="2.1" height="2.5"/>
				<rect x="458.1" y="167.3" class="st1" width="2.1" height="2.5"/>
				<rect x="461.7" y="171.1" class="st1" width="2.1" height="2.5"/>
				<rect x="458.1" y="171.1" class="st1" width="2.1" height="2.5"/>
				<rect x="504.6" y="147.8" class="st1" width="2.1" height="2.1"/>
				<rect x="501" y="147.8" class="st1" width="2.1" height="2.1"/>
				<rect x="504.6" y="144.6" class="st1" width="2.1" height="2.1"/>
				<rect x="501" y="144.6" class="st1" width="2.1" height="2.1"/>
				<rect x="504.6" y="141.3" class="st1" width="2.1" height="2.1"/>
				<rect x="501" y="141.3" class="st1" width="2.1" height="2.1"/>
				<rect x="504.6" y="151" class="st1" width="2.1" height="2.1"/>
				<rect x="501" y="151" class="st1" width="2.1" height="2.1"/>
				<rect x="504.6" y="154.1" class="st1" width="2.1" height="2.1"/>
				<rect x="501" y="154.1" class="st1" width="2.1" height="2.1"/>
				<rect x="504.6" y="157.3" class="st1" width="2.1" height="2.1"/>
				<rect x="501" y="157.3" class="st1" width="2.1" height="2.1"/>
				<rect x="504.6" y="160.5" class="st1" width="2.1" height="2.1"/>
				<rect x="501" y="160.5" class="st1" width="2.1" height="2.1"/>
				<rect x="504.6" y="163.8" class="st1" width="2.1" height="2.1"/>
				<rect x="501" y="163.8" class="st1" width="2.1" height="2.1"/>
				<rect x="504.6" y="167" class="st1" width="2.1" height="2.1"/>
				<rect x="501" y="167" class="st1" width="2.1" height="2.1"/>
				<rect x="504.6" y="170.2" class="st1" width="2.1" height="2.1"/>
				<rect x="501" y="170.2" class="st1" width="2.1" height="2.1"/>
				<rect x="504.6" y="173.5" class="st1" width="2.1" height="2.1"/>
				<rect x="501" y="173.5" class="st1" width="2.1" height="2.1"/>
				<rect x="504.6" y="176.8" class="st1" width="2.1" height="2.1"/>
				<rect x="501" y="176.8" class="st1" width="2.1" height="2.1"/>
				<rect x="504.6" y="180.1" class="st1" width="2.1" height="2.1"/>
				<rect x="501" y="180.1" class="st1" width="2.1" height="2.1"/>
			</g>
		</g>
	</g>
	<g>
		<g>
			<polygon class="st0" points="31.8,128.1 31.8,184.2 173.2,184.2 173.2,153 160.9,153 160.9,166.2 157.7,166.2 157.7,158.7 
				142.2,158.7 142.2,170.5 140.1,170.5 140.1,123.9 126.5,123.9 126.5,150.4 119.6,150.4 119.6,159.8 117.5,159.8 117.5,153.9 
				105.2,153.9 105.2,171.7 101.6,171.7 101.6,157.2 90.3,157.2 90.3,146.3 82.7,146.3 82.7,140 73.8,140 73.8,167.7 70.8,167.7 
				70.8,137.3 56.2,137.3 56.2,153.8 54.2,153.8 54.2,140.3 39.4,140.3 39.4,128.1 			"/>
			<g>
				<rect x="169.6" y="154.6" class="st1" width="2.1" height="2.5"/>
				<rect x="166" y="154.6" class="st1" width="2.1" height="2.5"/>
				<rect x="162.4" y="154.6" class="st1" width="2.1" height="2.5"/>
				<rect x="169.6" y="158.4" class="st1" width="2.1" height="2.5"/>
				<rect x="166" y="158.4" class="st1" width="2.1" height="2.5"/>
				<rect x="162.4" y="158.4" class="st1" width="2.1" height="2.5"/>
				<rect x="169.6" y="162.2" class="st1" width="2.1" height="2.5"/>
				<rect x="166" y="162.2" class="st1" width="2.1" height="2.5"/>
				<rect x="162.4" y="162.2" class="st1" width="2.1" height="2.5"/>
				<rect x="169.6" y="166" class="st1" width="2.1" height="2.5"/>
				<rect x="166" y="166" class="st1" width="2.1" height="2.5"/>
				<rect x="162.4" y="166" class="st1" width="2.1" height="2.5"/>
				<rect x="97.8" y="159" class="st1" width="2.1" height="2.1"/>
				<rect x="94.2" y="159" class="st1" width="2.1" height="2.1"/>
				<rect x="90.6" y="159" class="st1" width="2.1" height="2.1"/>
				<rect x="97.8" y="162.2" class="st1" width="2.1" height="2.1"/>
				<rect x="94.2" y="162.2" class="st1" width="2.1" height="2.1"/>
				<rect x="90.6" y="162.2" class="st1" width="2.1" height="2.1"/>
				<rect x="97.8" y="165.3" class="st1" width="2.1" height="2.1"/>
				<rect x="94.2" y="165.3" class="st1" width="2.1" height="2.1"/>
				<rect x="90.6" y="165.3" class="st1" width="2.1" height="2.1"/>
				<rect x="97.8" y="168.5" class="st1" width="2.1" height="2.1"/>
				<rect x="94.2" y="168.5" class="st1" width="2.1" height="2.1"/>
				<rect x="90.6" y="168.5" class="st1" width="2.1" height="2.1"/>
				<rect x="97.8" y="171.7" class="st1" width="2.1" height="2.1"/>
				<rect x="94.2" y="171.7" class="st1" width="2.1" height="2.1"/>
				<rect x="90.6" y="171.7" class="st1" width="2.1" height="2.1"/>
				<rect x="97.8" y="175" class="st1" width="2.1" height="2.1"/>
				<rect x="94.2" y="175" class="st1" width="2.1" height="2.1"/>
				<rect x="90.6" y="175" class="st1" width="2.1" height="2.1"/>
				<rect x="97.8" y="178.2" class="st1" width="2.1" height="2.1"/>
				<rect x="94.2" y="178.2" class="st1" width="2.1" height="2.1"/>
				<rect x="90.6" y="178.2" class="st1" width="2.1" height="2.1"/>
				<rect x="97.8" y="181.5" class="st1" width="2.1" height="2.1"/>
				<rect x="94.2" y="181.5" class="st1" width="2.1" height="2.1"/>
				<rect x="90.6" y="181.5" class="st1" width="2.1" height="2.1"/>
				<rect x="144" y="160.3" class="st1" width="11.9" height="1.6"/>
				<rect x="144" y="163.4" class="st1" width="11.9" height="1.6"/>
				<rect x="144" y="166.4" class="st1" width="11.9" height="1.6"/>
				<rect x="144" y="169.5" class="st1" width="11.9" height="1.6"/>
				<rect x="144" y="172.5" class="st1" width="11.9" height="1.6"/>
				<rect x="144" y="175.6" class="st1" width="11.9" height="1.6"/>
				<rect x="144" y="178.6" class="st1" width="11.9" height="1.6"/>
				<rect x="144" y="181.7" class="st1" width="11.9" height="1.6"/>
				<rect x="58.1" y="138.7" class="st1" width="11" height="1.6"/>
				<rect x="58.1" y="141.8" class="st1" width="11" height="1.6"/>
				<rect x="58.1" y="144.8" class="st1" width="11" height="1.6"/>
				<rect x="58.1" y="147.9" class="st1" width="11" height="1.6"/>
				<rect x="58.1" y="151" class="st1" width="11" height="1.6"/>
				<rect x="58.1" y="154" class="st1" width="11" height="1.6"/>
				<rect x="58.1" y="157.1" class="st1" width="11" height="1.6"/>
				<rect x="58.1" y="160.1" class="st1" width="11" height="1.6"/>
				<rect x="58.1" y="163" class="st1" width="11" height="1.6"/>
				<rect x="58.1" y="165.9" class="st1" width="11" height="1.6"/>
				<rect x="58.1" y="168.8" class="st1" width="11" height="1.6"/>
				<rect x="58.1" y="171.7" class="st1" width="11" height="1.6"/>
				<rect x="40.3" y="142.4" class="st1" width="11.6" height="1.6"/>
				<rect x="40.3" y="145.5" class="st1" width="11.6" height="1.6"/>
				<rect x="40.3" y="148.5" class="st1" width="11.6" height="1.6"/>
				<rect x="40.3" y="151.6" class="st1" width="11.6" height="1.6"/>
				<rect x="40.3" y="154.6" class="st1" width="11.6" height="1.6"/>
				<rect x="40.3" y="157.7" class="st1" width="11.6" height="1.6"/>
				<rect x="40.3" y="160.8" class="st1" width="11.6" height="1.6"/>
				<rect x="40.3" y="163.8" class="st1" width="11.6" height="1.6"/>
				<rect x="40.3" y="166.5" class="st1" width="11.6" height="1.6"/>
				<rect x="40.3" y="169.3" class="st1" width="11.6" height="1.6"/>
				<rect x="40.3" y="172" class="st1" width="11.6" height="1.6"/>
				<g>
					<rect x="110.2" y="155.3" class="st1" width="3.7" height="1.5"/>
					<rect x="110.2" y="158.3" class="st1" width="3.7" height="1.5"/>
					<rect x="110.2" y="161.2" class="st1" width="3.7" height="1.5"/>
					<rect x="110.2" y="164.2" class="st1" width="3.7" height="1.5"/>
					<rect x="110.2" y="167.1" class="st1" width="3.7" height="1.5"/>
					<rect x="110.2" y="170.1" class="st1" width="3.7" height="1.5"/>
					<rect x="110.2" y="173" class="st1" width="3.7" height="1.5"/>
					<rect x="110.2" y="176" class="st1" width="3.7" height="1.5"/>
				</g>
				<g>
					<rect x="105.2" y="155.3" class="st1" width="3.7" height="1.5"/>
					<rect x="105.2" y="158.3" class="st1" width="3.7" height="1.5"/>
					<rect x="105.2" y="161.2" class="st1" width="3.7" height="1.5"/>
					<rect x="105.2" y="164.2" class="st1" width="3.7" height="1.5"/>
					<rect x="105.2" y="167.1" class="st1" width="3.7" height="1.5"/>
					<rect x="105.2" y="170.1" class="st1" width="3.7" height="1.5"/>
					<rect x="105.2" y="173" class="st1" width="3.7" height="1.5"/>
					<rect x="105.2" y="176" class="st1" width="3.7" height="1.5"/>
				</g>
				<g>
					<rect x="134.2" y="125.5" class="st1" width="3.8" height="2.4"/>
					<rect x="128.5" y="125.5" class="st1" width="3.8" height="2.4"/>
					<rect x="134.2" y="129" class="st1" width="3.8" height="2.4"/>
					<rect x="128.5" y="129" class="st1" width="3.8" height="2.4"/>
					<rect x="134.2" y="132.5" class="st1" width="3.8" height="2.4"/>
					<rect x="128.5" y="132.5" class="st1" width="3.8" height="2.4"/>
					<rect x="134.2" y="136.1" class="st1" width="3.8" height="2.4"/>
					<rect x="128.5" y="136.1" class="st1" width="3.8" height="2.4"/>
					<rect x="134.2" y="139.6" class="st1" width="3.8" height="2.4"/>
					<rect x="128.5" y="139.6" class="st1" width="3.8" height="2.4"/>
					<rect x="134.2" y="143.1" class="st1" width="3.8" height="2.4"/>
					<rect x="128.5" y="143.1" class="st1" width="3.8" height="2.4"/>
					<rect x="134.2" y="146.6" class="st1" width="3.8" height="2.4"/>
					<rect x="128.5" y="146.6" class="st1" width="3.8" height="2.4"/>
					<rect x="134.2" y="150.1" class="st1" width="3.8" height="2.4"/>
					<rect x="128.5" y="150.1" class="st1" width="3.8" height="2.4"/>
				</g>
				<g>
					<rect x="121.4" y="151.4" class="st1" width="3.8" height="2.4"/>
					<rect x="121.4" y="154.9" class="st1" width="3.8" height="2.4"/>
					<rect x="121.4" y="158.5" class="st1" width="3.8" height="2.4"/>
					<rect x="121.4" y="162" class="st1" width="3.8" height="2.4"/>
					<rect x="121.4" y="165.5" class="st1" width="3.8" height="2.4"/>
					<rect x="121.4" y="169" class="st1" width="3.8" height="2.4"/>
					<rect x="134.2" y="153.6" class="st1" width="3.8" height="2.4"/>
					<rect x="128.5" y="153.6" class="st1" width="3.8" height="2.4"/>
					<rect x="121.4" y="172.5" class="st1" width="3.8" height="2.4"/>
					<rect x="134.2" y="157.1" class="st1" width="3.8" height="2.4"/>
					<rect x="128.5" y="157.1" class="st1" width="3.8" height="2.4"/>
					<rect x="121.4" y="176" class="st1" width="3.8" height="2.4"/>
					<rect x="134.2" y="160.6" class="st1" width="3.8" height="2.4"/>
					<rect x="128.5" y="160.6" class="st1" width="3.8" height="2.4"/>
					<rect x="121.4" y="179.5" class="st1" width="3.8" height="2.4"/>
					<rect x="134.2" y="164.1" class="st1" width="3.8" height="2.4"/>
					<rect x="128.5" y="164.1" class="st1" width="3.8" height="2.4"/>
					<rect x="134.2" y="167.6" class="st1" width="3.8" height="2.4"/>
					<rect x="128.5" y="167.6" class="st1" width="3.8" height="2.4"/>
				</g>
				<rect x="86.7" y="147.8" class="st1" width="2.1" height="2.1"/>
				<rect x="83.1" y="147.8" class="st1" width="2.1" height="2.1"/>
				<rect x="86.7" y="151" class="st1" width="2.1" height="2.1"/>
				<rect x="83.1" y="151" class="st1" width="2.1" height="2.1"/>
				<rect x="86.7" y="154.1" class="st1" width="2.1" height="2.1"/>
				<rect x="83.1" y="154.1" class="st1" width="2.1" height="2.1"/>
				<rect x="86.7" y="157.3" class="st1" width="2.1" height="2.1"/>
				<rect x="83.1" y="157.3" class="st1" width="2.1" height="2.1"/>
				<rect x="86.7" y="160.5" class="st1" width="2.1" height="2.1"/>
				<rect x="83.1" y="160.5" class="st1" width="2.1" height="2.1"/>
				<rect x="86.7" y="163.8" class="st1" width="2.1" height="2.1"/>
				<rect x="83.1" y="163.8" class="st1" width="2.1" height="2.1"/>
				<rect x="86.7" y="167" class="st1" width="2.1" height="2.1"/>
				<rect x="83.1" y="167" class="st1" width="2.1" height="2.1"/>
				<rect x="86.7" y="170.2" class="st1" width="2.1" height="2.1"/>
				<rect x="83.1" y="170.2" class="st1" width="2.1" height="2.1"/>
				<rect x="86.7" y="173.5" class="st1" width="2.1" height="2.1"/>
				<rect x="83.1" y="173.5" class="st1" width="2.1" height="2.1"/>
				<rect x="86.7" y="176.8" class="st1" width="2.1" height="2.1"/>
				<rect x="83.1" y="176.8" class="st1" width="2.1" height="2.1"/>
				<rect x="86.7" y="180.1" class="st1" width="2.1" height="2.1"/>
				<rect x="83.1" y="180.1" class="st1" width="2.1" height="2.1"/>
				<rect x="36" y="129.2" class="st1" width="2.1" height="2.5"/>
				<rect x="32.4" y="129.2" class="st1" width="2.1" height="2.5"/>
				<rect x="36" y="133" class="st1" width="2.1" height="2.5"/>
				<rect x="32.4" y="133" class="st1" width="2.1" height="2.5"/>
				<rect x="36" y="136.7" class="st1" width="2.1" height="2.5"/>
				<rect x="32.4" y="136.7" class="st1" width="2.1" height="2.5"/>
				<rect x="36" y="140.4" class="st1" width="2.1" height="2.5"/>
				<rect x="32.4" y="140.4" class="st1" width="2.1" height="2.5"/>
				<rect x="36" y="144.2" class="st1" width="2.1" height="2.5"/>
				<rect x="32.4" y="144.2" class="st1" width="2.1" height="2.5"/>
				<rect x="36" y="148.1" class="st1" width="2.1" height="2.5"/>
				<rect x="32.4" y="148.1" class="st1" width="2.1" height="2.5"/>
				<rect x="36" y="151.9" class="st1" width="2.1" height="2.5"/>
				<rect x="32.4" y="151.9" class="st1" width="2.1" height="2.5"/>
				<rect x="36" y="155.7" class="st1" width="2.1" height="2.5"/>
				<rect x="32.4" y="155.7" class="st1" width="2.1" height="2.5"/>
				<rect x="36" y="159.5" class="st1" width="2.1" height="2.5"/>
				<rect x="32.4" y="159.5" class="st1" width="2.1" height="2.5"/>
				<rect x="36" y="163.4" class="st1" width="2.1" height="2.5"/>
				<rect x="32.4" y="163.4" class="st1" width="2.1" height="2.5"/>
				<rect x="36" y="167.3" class="st1" width="2.1" height="2.5"/>
				<rect x="32.4" y="167.3" class="st1" width="2.1" height="2.5"/>
				<rect x="36" y="171.1" class="st1" width="2.1" height="2.5"/>
				<rect x="32.4" y="171.1" class="st1" width="2.1" height="2.5"/>
				<rect x="79" y="147.8" class="st1" width="2.1" height="2.1"/>
				<rect x="75.4" y="147.8" class="st1" width="2.1" height="2.1"/>
				<rect x="79" y="144.6" class="st1" width="2.1" height="2.1"/>
				<rect x="75.4" y="144.6" class="st1" width="2.1" height="2.1"/>
				<rect x="79" y="141.3" class="st1" width="2.1" height="2.1"/>
				<rect x="75.4" y="141.3" class="st1" width="2.1" height="2.1"/>
				<rect x="79" y="151" class="st1" width="2.1" height="2.1"/>
				<rect x="75.4" y="151" class="st1" width="2.1" height="2.1"/>
				<rect x="79" y="154.1" class="st1" width="2.1" height="2.1"/>
				<rect x="75.4" y="154.1" class="st1" width="2.1" height="2.1"/>
				<rect x="79" y="157.3" class="st1" width="2.1" height="2.1"/>
				<rect x="75.4" y="157.3" class="st1" width="2.1" height="2.1"/>
				<rect x="79" y="160.5" class="st1" width="2.1" height="2.1"/>
				<rect x="75.4" y="160.5" class="st1" width="2.1" height="2.1"/>
				<rect x="79" y="163.8" class="st1" width="2.1" height="2.1"/>
				<rect x="75.4" y="163.8" class="st1" width="2.1" height="2.1"/>
				<rect x="79" y="167" class="st1" width="2.1" height="2.1"/>
				<rect x="75.4" y="167" class="st1" width="2.1" height="2.1"/>
				<rect x="79" y="170.2" class="st1" width="2.1" height="2.1"/>
				<rect x="75.4" y="170.2" class="st1" width="2.1" height="2.1"/>
				<rect x="79" y="173.5" class="st1" width="2.1" height="2.1"/>
				<rect x="75.4" y="173.5" class="st1" width="2.1" height="2.1"/>
				<rect x="79" y="176.8" class="st1" width="2.1" height="2.1"/>
				<rect x="75.4" y="176.8" class="st1" width="2.1" height="2.1"/>
				<rect x="79" y="180.1" class="st1" width="2.1" height="2.1"/>
				<rect x="75.4" y="180.1" class="st1" width="2.1" height="2.1"/>
			</g>
		</g>
	</g>
	<g>
		<g>
			<polygon class="st0" points="314.6,135.6 314.6,184.2 456.6,184.2 456.6,153 444.4,153 444.4,166.2 441.2,166.2 441.2,158.7 
				425.6,158.7 425.6,170.5 423.6,170.5 423.6,127.6 410,127.6 410,150.4 403.1,150.4 403.1,159.8 401,159.8 401,153.9 388.7,153.9 
				388.7,171.7 385.1,171.7 385.1,157.2 373.8,157.2 373.8,146.3 366.1,146.3 366.1,140 357.3,140 357.3,167.7 354.3,167.7 
				354.3,137.3 339.7,137.3 339.7,153.8 337.7,153.8 337.7,140.3 322.9,140.3 322.9,135.6 			"/>
			<g>
				<rect x="453.1" y="154.6" class="st1" width="2.1" height="2.5"/>
				<rect x="449.5" y="154.6" class="st1" width="2.1" height="2.5"/>
				<rect x="445.9" y="154.6" class="st1" width="2.1" height="2.5"/>
				<rect x="453.1" y="158.4" class="st1" width="2.1" height="2.5"/>
				<rect x="449.5" y="158.4" class="st1" width="2.1" height="2.5"/>
				<rect x="445.9" y="158.4" class="st1" width="2.1" height="2.5"/>
				<rect x="453.1" y="162.2" class="st1" width="2.1" height="2.5"/>
				<rect x="449.5" y="162.2" class="st1" width="2.1" height="2.5"/>
				<rect x="445.9" y="162.2" class="st1" width="2.1" height="2.5"/>
				<rect x="453.1" y="166" class="st1" width="2.1" height="2.5"/>
				<rect x="449.5" y="166" class="st1" width="2.1" height="2.5"/>
				<rect x="445.9" y="166" class="st1" width="2.1" height="2.5"/>
				<rect x="381.3" y="159" class="st1" width="2.1" height="2.1"/>
				<rect x="377.7" y="159" class="st1" width="2.1" height="2.1"/>
				<rect x="374.1" y="159" class="st1" width="2.1" height="2.1"/>
				<rect x="381.3" y="162.2" class="st1" width="2.1" height="2.1"/>
				<rect x="377.7" y="162.2" class="st1" width="2.1" height="2.1"/>
				<rect x="374.1" y="162.2" class="st1" width="2.1" height="2.1"/>
				<rect x="381.3" y="165.3" class="st1" width="2.1" height="2.1"/>
				<rect x="377.7" y="165.3" class="st1" width="2.1" height="2.1"/>
				<rect x="374.1" y="165.3" class="st1" width="2.1" height="2.1"/>
				<rect x="381.3" y="168.5" class="st1" width="2.1" height="2.1"/>
				<rect x="377.7" y="168.5" class="st1" width="2.1" height="2.1"/>
				<rect x="374.1" y="168.5" class="st1" width="2.1" height="2.1"/>
				<rect x="381.3" y="171.7" class="st1" width="2.1" height="2.1"/>
				<rect x="377.7" y="171.7" class="st1" width="2.1" height="2.1"/>
				<rect x="374.1" y="171.7" class="st1" width="2.1" height="2.1"/>
				<rect x="381.3" y="175" class="st1" width="2.1" height="2.1"/>
				<rect x="377.7" y="175" class="st1" width="2.1" height="2.1"/>
				<rect x="374.1" y="175" class="st1" width="2.1" height="2.1"/>
				<rect x="381.3" y="178.2" class="st1" width="2.1" height="2.1"/>
				<rect x="377.7" y="178.2" class="st1" width="2.1" height="2.1"/>
				<rect x="374.1" y="178.2" class="st1" width="2.1" height="2.1"/>
				<rect x="381.3" y="181.5" class="st1" width="2.1" height="2.1"/>
				<rect x="377.7" y="181.5" class="st1" width="2.1" height="2.1"/>
				<rect x="374.1" y="181.5" class="st1" width="2.1" height="2.1"/>
				<rect x="427.5" y="160.3" class="st1" width="11.9" height="1.6"/>
				<rect x="427.5" y="163.4" class="st1" width="11.9" height="1.6"/>
				<rect x="427.5" y="166.4" class="st1" width="11.9" height="1.6"/>
				<rect x="427.5" y="169.5" class="st1" width="11.9" height="1.6"/>
				<rect x="427.5" y="172.5" class="st1" width="11.9" height="1.6"/>
				<rect x="427.5" y="175.6" class="st1" width="11.9" height="1.6"/>
				<rect x="427.5" y="178.6" class="st1" width="11.9" height="1.6"/>
				<rect x="427.5" y="181.7" class="st1" width="11.9" height="1.6"/>
				<rect x="341.5" y="138.7" class="st1" width="11" height="1.6"/>
				<rect x="341.5" y="141.8" class="st1" width="11" height="1.6"/>
				<rect x="341.5" y="144.8" class="st1" width="11" height="1.6"/>
				<rect x="341.5" y="147.9" class="st1" width="11" height="1.6"/>
				<rect x="341.6" y="151" class="st1" width="11" height="1.6"/>
				<rect x="341.5" y="154" class="st1" width="11" height="1.6"/>
				<rect x="341.5" y="157.1" class="st1" width="11" height="1.6"/>
				<rect x="341.5" y="160.1" class="st1" width="11" height="1.6"/>
				<rect x="341.5" y="163" class="st1" width="11" height="1.6"/>
				<rect x="341.5" y="165.9" class="st1" width="11" height="1.6"/>
				<rect x="341.5" y="168.8" class="st1" width="11" height="1.6"/>
				<rect x="341.5" y="171.7" class="st1" width="11" height="1.6"/>
				<rect x="323.8" y="142.4" class="st1" width="11.6" height="1.6"/>
				<rect x="323.8" y="145.5" class="st1" width="11.6" height="1.6"/>
				<rect x="323.8" y="148.5" class="st1" width="11.6" height="1.6"/>
				<rect x="323.8" y="151.6" class="st1" width="11.6" height="1.6"/>
				<rect x="323.8" y="154.6" class="st1" width="11.6" height="1.6"/>
				<rect x="323.8" y="157.7" class="st1" width="11.6" height="1.6"/>
				<rect x="323.8" y="160.8" class="st1" width="11.6" height="1.6"/>
				<rect x="323.8" y="163.8" class="st1" width="11.6" height="1.6"/>
				<rect x="323.8" y="166.5" class="st1" width="11.6" height="1.6"/>
				<rect x="323.8" y="169.3" class="st1" width="11.6" height="1.6"/>
				<rect x="323.8" y="172" class="st1" width="11.6" height="1.6"/>
				<g>
					<rect x="393.7" y="155.3" class="st1" width="3.7" height="1.5"/>
					<rect x="393.7" y="158.3" class="st1" width="3.7" height="1.5"/>
					<rect x="393.7" y="161.2" class="st1" width="3.7" height="1.5"/>
					<rect x="393.7" y="164.2" class="st1" width="3.7" height="1.5"/>
					<rect x="393.7" y="167.1" class="st1" width="3.7" height="1.5"/>
					<rect x="393.7" y="170.1" class="st1" width="3.7" height="1.5"/>
					<rect x="393.7" y="173" class="st1" width="3.7" height="1.5"/>
					<rect x="393.7" y="176" class="st1" width="3.7" height="1.5"/>
				</g>
				<g>
					<rect x="388.7" y="155.3" class="st1" width="3.7" height="1.5"/>
					<rect x="388.7" y="158.3" class="st1" width="3.7" height="1.5"/>
					<rect x="388.7" y="161.2" class="st1" width="3.7" height="1.5"/>
					<rect x="388.7" y="164.2" class="st1" width="3.7" height="1.5"/>
					<rect x="388.7" y="167.1" class="st1" width="3.7" height="1.5"/>
					<rect x="388.7" y="170.1" class="st1" width="3.7" height="1.5"/>
					<rect x="388.7" y="173" class="st1" width="3.7" height="1.5"/>
					<rect x="388.7" y="176" class="st1" width="3.7" height="1.5"/>
				</g>
				<g>
					<rect x="417.7" y="129" class="st1" width="3.8" height="2.4"/>
					<rect x="412" y="129" class="st1" width="3.8" height="2.4"/>
					<rect x="417.7" y="132.5" class="st1" width="3.8" height="2.4"/>
					<rect x="412" y="132.5" class="st1" width="3.8" height="2.4"/>
					<rect x="417.7" y="136.1" class="st1" width="3.8" height="2.4"/>
					<rect x="412" y="136.1" class="st1" width="3.8" height="2.4"/>
					<rect x="417.7" y="139.6" class="st1" width="3.8" height="2.4"/>
					<rect x="412" y="139.6" class="st1" width="3.8" height="2.4"/>
					<rect x="417.7" y="143.1" class="st1" width="3.8" height="2.4"/>
					<rect x="412" y="143.1" class="st1" width="3.8" height="2.4"/>
					<rect x="417.7" y="146.6" class="st1" width="3.8" height="2.4"/>
					<rect x="412" y="146.6" class="st1" width="3.8" height="2.4"/>
					<rect x="417.7" y="150.1" class="st1" width="3.8" height="2.4"/>
					<rect x="412" y="150.1" class="st1" width="3.8" height="2.4"/>
				</g>
				<g>
					<rect x="404.9" y="151.4" class="st1" width="3.8" height="2.4"/>
					<rect x="404.9" y="154.9" class="st1" width="3.8" height="2.4"/>
					<rect x="404.9" y="158.5" class="st1" width="3.8" height="2.4"/>
					<rect x="404.9" y="162" class="st1" width="3.8" height="2.4"/>
					<rect x="404.9" y="165.5" class="st1" width="3.8" height="2.4"/>
					<rect x="404.9" y="169" class="st1" width="3.8" height="2.4"/>
					<rect x="417.7" y="153.6" class="st1" width="3.8" height="2.4"/>
					<rect x="412" y="153.6" class="st1" width="3.8" height="2.4"/>
					<rect x="404.9" y="172.5" class="st1" width="3.8" height="2.4"/>
					<rect x="417.7" y="157.1" class="st1" width="3.8" height="2.4"/>
					<rect x="412" y="157.1" class="st1" width="3.8" height="2.4"/>
					<rect x="404.9" y="176" class="st1" width="3.8" height="2.4"/>
					<rect x="417.7" y="160.6" class="st1" width="3.8" height="2.4"/>
					<rect x="412" y="160.6" class="st1" width="3.8" height="2.4"/>
					<rect x="404.9" y="179.5" class="st1" width="3.8" height="2.4"/>
					<rect x="417.7" y="164.1" class="st1" width="3.8" height="2.4"/>
					<rect x="412" y="164.1" class="st1" width="3.8" height="2.4"/>
					<rect x="417.7" y="167.6" class="st1" width="3.8" height="2.4"/>
					<rect x="412" y="167.6" class="st1" width="3.8" height="2.4"/>
				</g>
				<rect x="370.2" y="147.8" class="st1" width="2.1" height="2.1"/>
				<rect x="366.6" y="147.8" class="st1" width="2.1" height="2.1"/>
				<rect x="370.2" y="151" class="st1" width="2.1" height="2.1"/>
				<rect x="366.6" y="151" class="st1" width="2.1" height="2.1"/>
				<rect x="370.2" y="154.1" class="st1" width="2.1" height="2.1"/>
				<rect x="366.6" y="154.1" class="st1" width="2.1" height="2.1"/>
				<rect x="370.2" y="157.3" class="st1" width="2.1" height="2.1"/>
				<rect x="366.6" y="157.3" class="st1" width="2.1" height="2.1"/>
				<rect x="370.2" y="160.5" class="st1" width="2.1" height="2.1"/>
				<rect x="366.6" y="160.5" class="st1" width="2.1" height="2.1"/>
				<rect x="370.2" y="163.8" class="st1" width="2.1" height="2.1"/>
				<rect x="366.6" y="163.8" class="st1" width="2.1" height="2.1"/>
				<rect x="370.2" y="167" class="st1" width="2.1" height="2.1"/>
				<rect x="366.6" y="167" class="st1" width="2.1" height="2.1"/>
				<rect x="370.2" y="170.2" class="st1" width="2.1" height="2.1"/>
				<rect x="366.6" y="170.2" class="st1" width="2.1" height="2.1"/>
				<rect x="370.2" y="173.5" class="st1" width="2.1" height="2.1"/>
				<rect x="366.6" y="173.5" class="st1" width="2.1" height="2.1"/>
				<rect x="370.2" y="176.8" class="st1" width="2.1" height="2.1"/>
				<rect x="366.6" y="176.8" class="st1" width="2.1" height="2.1"/>
				<rect x="370.2" y="180.1" class="st1" width="2.1" height="2.1"/>
				<rect x="366.6" y="180.1" class="st1" width="2.1" height="2.1"/>
				<rect x="319.5" y="136.7" class="st1" width="2.1" height="2.5"/>
				<rect x="315.9" y="136.7" class="st1" width="2.1" height="2.5"/>
				<rect x="319.5" y="140.4" class="st1" width="2.1" height="2.5"/>
				<rect x="315.9" y="140.4" class="st1" width="2.1" height="2.5"/>
				<rect x="319.5" y="144.2" class="st1" width="2.1" height="2.5"/>
				<rect x="315.9" y="144.2" class="st1" width="2.1" height="2.5"/>
				<rect x="319.5" y="148.1" class="st1" width="2.1" height="2.5"/>
				<rect x="315.9" y="148.1" class="st1" width="2.1" height="2.5"/>
				<rect x="319.5" y="151.9" class="st1" width="2.1" height="2.5"/>
				<rect x="315.9" y="151.9" class="st1" width="2.1" height="2.5"/>
				<rect x="319.5" y="155.7" class="st1" width="2.1" height="2.5"/>
				<rect x="315.9" y="155.7" class="st1" width="2.1" height="2.5"/>
				<rect x="319.5" y="159.5" class="st1" width="2.1" height="2.5"/>
				<rect x="315.9" y="159.5" class="st1" width="2.1" height="2.5"/>
				<rect x="319.5" y="163.4" class="st1" width="2.1" height="2.5"/>
				<rect x="315.9" y="163.4" class="st1" width="2.1" height="2.5"/>
				<rect x="319.5" y="167.3" class="st1" width="2.1" height="2.5"/>
				<rect x="315.9" y="167.3" class="st1" width="2.1" height="2.5"/>
				<rect x="319.5" y="171.1" class="st1" width="2.1" height="2.5"/>
				<rect x="315.9" y="171.1" class="st1" width="2.1" height="2.5"/>
				<rect x="362.5" y="147.8" class="st1" width="2.1" height="2.1"/>
				<rect x="358.9" y="147.8" class="st1" width="2.1" height="2.1"/>
				<rect x="362.5" y="144.6" class="st1" width="2.1" height="2.1"/>
				<rect x="358.9" y="144.6" class="st1" width="2.1" height="2.1"/>
				<rect x="362.5" y="141.3" class="st1" width="2.1" height="2.1"/>
				<rect x="358.9" y="141.3" class="st1" width="2.1" height="2.1"/>
				<rect x="362.5" y="151" class="st1" width="2.1" height="2.1"/>
				<rect x="358.9" y="151" class="st1" width="2.1" height="2.1"/>
				<rect x="362.5" y="154.1" class="st1" width="2.1" height="2.1"/>
				<rect x="358.9" y="154.1" class="st1" width="2.1" height="2.1"/>
				<rect x="362.5" y="157.3" class="st1" width="2.1" height="2.1"/>
				<rect x="358.9" y="157.3" class="st1" width="2.1" height="2.1"/>
				<rect x="362.5" y="160.5" class="st1" width="2.1" height="2.1"/>
				<rect x="358.9" y="160.5" class="st1" width="2.1" height="2.1"/>
				<rect x="362.5" y="163.8" class="st1" width="2.1" height="2.1"/>
				<rect x="358.9" y="163.8" class="st1" width="2.1" height="2.1"/>
				<rect x="362.5" y="167" class="st1" width="2.1" height="2.1"/>
				<rect x="358.9" y="167" class="st1" width="2.1" height="2.1"/>
				<rect x="362.5" y="170.2" class="st1" width="2.1" height="2.1"/>
				<rect x="358.9" y="170.2" class="st1" width="2.1" height="2.1"/>
				<rect x="362.5" y="173.5" class="st1" width="2.1" height="2.1"/>
				<rect x="358.9" y="173.5" class="st1" width="2.1" height="2.1"/>
				<rect x="362.5" y="176.8" class="st1" width="2.1" height="2.1"/>
				<rect x="358.9" y="176.8" class="st1" width="2.1" height="2.1"/>
				<rect x="362.5" y="180.1" class="st1" width="2.1" height="2.1"/>
				<rect x="358.9" y="180.1" class="st1" width="2.1" height="2.1"/>
			</g>
		</g>
	</g>
</g>
<g>
	<path class="st0" d="M455.2,72.1h-63.5c0,0,6.3-15.2,16-15.2s12.7,10.5,12.7,10.5s6.5-5.7,11.9-5.7s10,7.5,10,7.5
		S449.9,65.2,455.2,72.1z"/>
	<path class="st2" d="M391.4,110h-29.7c0,0,6.6-8.5,11.9-8.5s6.8,5.7,6.8,5.7s3.7-2.6,7.1-2.2C390.8,105.5,391.4,110,391.4,110z"/>
	<path class="st2" d="M601.8,105.8h-29.7c0,0,6.6-8.5,11.8-8.5s6.8,5.7,6.8,5.7s3.7-2.6,7.1-2.2
		C601.2,101.2,601.8,105.8,601.8,105.8z"/>
	<path class="st0" d="M131.1,114.1H73.3c0,0,7.9-15.6,16.4-16.6s12.5,11.6,12.5,11.6s5.5-4.4,9.8-4.4s7.6,5.9,7.6,5.9
		S128.2,106.5,131.1,114.1z"/>
	<path class="st2" d="M220.5,93.5h-39.1c0,0,6.7-11.3,14-11.5s11.1,8.6,11.1,8.6S217.9,82.5,220.5,93.5z"/>
</g>
<g>
	<ellipse class="st0" cx="293.6" cy="340.3" rx="246.8" ry="50.3"/>
</g>
<g>
	<g>
		<polygon class="st3" points="618.1,192.6 30.1,284.3 30.1,275.9 618.1,184.2 		"/>
		<g>
			<path class="st4" d="M60.3,271.2c0.3,1.4,0.4,2.8,0.4,4.2c0,1.4-0.1,2.8-0.4,4.2c-0.4-1.4-0.4-2.8-0.4-4.2S60,272.6,60.3,271.2z"
				/>
			<path class="st4" d="M95.5,265.7c0.3,1.4,0.4,2.8,0.4,4.2c0,1.4-0.1,2.8-0.4,4.2c-0.4-1.4-0.4-2.8-0.4-4.2
				C95,268.5,95.1,267.1,95.5,265.7z"/>
			<path class="st4" d="M130.7,260.2c0.4,1.4,0.4,2.8,0.4,4.2c0,1.4-0.1,2.8-0.4,4.2c-0.4-1.4-0.4-2.8-0.4-4.2
				C130.2,263,130.3,261.6,130.7,260.2z"/>
			<path class="st4" d="M165.8,254.7c0.4,1.4,0.4,2.8,0.4,4.2c0,1.4-0.1,2.8-0.4,4.2c-0.4-1.4-0.4-2.8-0.4-4.2
				S165.5,256.1,165.8,254.7z"/>
			<path class="st4" d="M201,249.2c0.4,1.4,0.4,2.8,0.4,4.2c0,1.4-0.1,2.8-0.4,4.2c-0.4-1.4-0.4-2.8-0.4-4.2S200.6,250.6,201,249.2z
				"/>
			<path class="st4" d="M236.2,243.8c0.4,1.4,0.4,2.8,0.4,4.2c0,1.4-0.1,2.8-0.4,4.2c-0.4-1.4-0.4-2.8-0.4-4.2
				C235.7,246.5,235.8,245.2,236.2,243.8z"/>
			<path class="st4" d="M271.3,238.3c0.4,1.4,0.4,2.8,0.5,4.2c0,1.4-0.1,2.8-0.5,4.2c-0.4-1.4-0.4-2.8-0.5-4.2
				C270.9,241.1,271,239.7,271.3,238.3z"/>
			<path class="st4" d="M306.5,232.8c0.4,1.4,0.4,2.8,0.5,4.2c0,1.4-0.1,2.8-0.5,4.2c-0.4-1.4-0.4-2.8-0.5-4.2
				C306.1,235.6,306.1,234.2,306.5,232.8z"/>
			<path class="st4" d="M341.7,227.3c0.4,1.4,0.4,2.8,0.5,4.2c0,1.4-0.1,2.8-0.5,4.2c-0.4-1.4-0.4-2.8-0.5-4.2
				C341.2,230.1,341.3,228.7,341.7,227.3z"/>
			<path class="st4" d="M376.8,221.8c0.4,1.4,0.4,2.8,0.5,4.2c0,1.4-0.1,2.8-0.5,4.2c-0.4-1.4-0.4-2.8-0.5-4.2
				C376.4,224.6,376.5,223.2,376.8,221.8z"/>
			<path class="st4" d="M412,216.3c0.4,1.4,0.4,2.8,0.5,4.2c0,1.4-0.1,2.8-0.5,4.2c-0.4-1.4-0.4-2.8-0.5-4.2
				C411.6,219.1,411.6,217.7,412,216.3z"/>
			<path class="st4" d="M447.2,210.8c0.4,1.4,0.4,2.8,0.5,4.2c0,1.4-0.1,2.8-0.5,4.2c-0.4-1.4-0.4-2.8-0.5-4.2
				C446.7,213.6,446.8,212.2,447.2,210.8z"/>
			<path class="st4" d="M482.3,205.3c0.4,1.4,0.4,2.8,0.5,4.2c0,1.4-0.1,2.8-0.5,4.2c-0.4-1.4-0.4-2.8-0.5-4.2
				C481.9,208.1,482,206.7,482.3,205.3z"/>
			<path class="st4" d="M517.5,199.9c0.3,1.4,0.4,2.8,0.5,4.2c0,1.4-0.1,2.8-0.5,4.2c-0.4-1.4-0.4-2.8-0.5-4.2
				C517.1,202.7,517.1,201.3,517.5,199.9z"/>
			<path class="st4" d="M552.7,194.4c0.3,1.4,0.4,2.8,0.5,4.2c0,1.4-0.1,2.8-0.5,4.2c-0.4-1.4-0.4-2.8-0.5-4.2
				C552.2,197.2,552.3,195.8,552.7,194.4z"/>
			<path class="st4" d="M587.8,188.9c0.3,1.4,0.4,2.8,0.5,4.2c0,1.4-0.1,2.8-0.5,4.2c-0.4-1.4-0.4-2.8-0.5-4.2
				C587.4,191.7,587.5,190.3,587.8,188.9z"/>
		</g>
	</g>
	<polygon class="st4" points="30.1,184.2 103.6,184 177.1,183.9 324.1,183.8 471.1,183.9 544.6,184 618.1,184.2 544.6,184.4 
		471.1,184.4 324.1,184.6 177.1,184.4 103.6,184.4 	"/>
</g>
<g>
	<path class="st5" d="M83.7,220.2c0,0-0.9-3.9-2.8-4.5s-3,1.1-3,1.1s-0.4-3.7-3.1-4.8s-4.7,1.2-4.7,1.2s-2.1-4.7-5.7-4.7
		c-3.7,0-5.5,6.9-5.5,6.9s-2.2-2.1-4.4-0.9c-2.2,1.2-2.2,5.7-2.2,5.7L83.7,220.2L83.7,220.2z"/>
	<path class="st6" d="M294.9,195.7c0,0-0.8-3.1-2.2-3.6s-2.4,0.9-2.4,0.9s-0.4-2.9-2.5-3.8s-3.7,0.9-3.7,0.9s-1.6-3.7-4.5-3.7
		s-4.4,5.5-4.4,5.5s-1.7-1.6-3.5-0.7s-1.8,4.5-1.8,4.5L294.9,195.7L294.9,195.7z"/>
	<path class="st5" d="M166.8,220.2h-33.1c0,0,1.1-4.1,3.3-4.4s3.2,1.6,3.2,1.6s-0.1-5.8,4-6.7c4.1-1,7.5,4.1,7.5,4.1
		s2.6-2.9,6.1-2.7c3.5,0.2,4.4,5,4.4,5S165.4,215.4,166.8,220.2z"/>
	<path class="st6" d="M54.3,220.2H36.9c0,0,0-2.3,1.8-2.9c1.8-0.6,2.7,0.6,2.7,0.6s0.7-4.2,3.9-4.2c3.2,0,4.7,3.6,4.7,3.6
		s0.7-1.1,2.5-0.9C54.2,216.6,54.3,220.2,54.3,220.2z"/>
	<path class="st6" d="M180.5,220.2h-17.4c0,0,0-2.3,1.8-2.9s2.7,0.6,2.7,0.6s0.7-4.2,3.9-4.2s4.7,3.6,4.7,3.6s0.7-1.1,2.5-0.9
		C180.4,216.6,180.5,220.2,180.5,220.2z"/>
	<path class="st6" d="M351.1,195.7h-13.8c0,0,0-1.8,1.4-2.3s2.2,0.5,2.2,0.5s0.5-3.3,3.1-3.3s3.7,2.9,3.7,2.9s0.6-0.9,2-0.7
		C351,192.9,351.1,195.7,351.1,195.7z"/>
	<path class="st5" d="M371.2,195.7h-22.7c0,0,0-3,2.3-3.8c2.2-0.8,3.6,0.8,3.6,0.8s0.9-5.5,5.1-5.5s6.2,4.8,6.2,4.8s0.9-1.4,3.2-1.2
		C371.1,191,371.2,195.7,371.2,195.7z"/>
</g>
<g>
	<path class="st7" d="M494.2,312.2l92.2-14.4h-6.3c0,0,6.7-8.7,0.7-12.5s-12.7,1.5-12.7,1.5s-1-11-11-11.8s-15,16.8-15,16.8
		s-2.2-3.6-9-1s-10.6,12.1-10.6,12.1L494.2,312.2"/>
	<path class="st0" d="M509.9,319.1l99.1-15.5h-6.8c0,0,7.2-9.4,0.8-13.4s-13.7,1.6-13.7,1.6s-1.1-11.9-11.8-12.7
		s-16.1,18.1-16.1,18.1s-2.3-3.9-9.6-1c-7.3,2.8-11.4,13-11.4,13L509.9,319.1"/>
</g>
<g>
	<path class="st7" d="M445.9,270.5l92.2-14.4h-6.3c0,0,6.7-8.7,0.7-12.5s-12.7,1.5-12.7,1.5s-1-11-11-11.8c-10-0.8-15,16.8-15,16.8
		s-2.2-3.6-9-1s-10.6,12.1-10.6,12.1L445.9,270.5"/>
	<path class="st0" d="M487.2,271.2l99.1-15.5h-6.8c0,0,7.2-9.4,0.8-13.4s-13.7,1.6-13.7,1.6s-1.1-11.9-11.8-12.7
		c-10.7-0.8-16.1,18.1-16.1,18.1s-2.3-3.9-9.6-1c-7.3,2.8-11.4,13-11.4,13L487.2,271.2"/>
</g>
<g>
	<g>
		<path class="st5" d="M240.5,343.3c-1.2,21.5,7.8,47.9,33.4,47.9c2.5,0,15.9,0.5,18.2-0.1c21.1-5.1,36-33.1,36-57.8
			c0-19.2-6.2-40.8-27.5-43.4c-1.4-0.2-16.7,0-18.2,0C256.5,290,241.8,320.2,240.5,343.3z"/>
		<path class="st4" d="M260.8,343.3c-1.2,21.5,7.8,47.9,33.4,47.9s40.2-30.5,40.2-57.9c0-20.5-6.8-43.4-31.8-43.4
			C276.7,290,262.1,320.2,260.8,343.3z"/>
		<path class="st3" d="M271.5,342.7c-0.9,16.6,5.8,36.9,24.7,36.9s29.7-23.5,29.7-44.5c0-15.8-5-33.4-23.5-33.4
			C283.3,301.6,272.5,324.9,271.5,342.7z"/>
		<g>
			<path class="st4" d="M308.1,305.2c-1,6.7-4.4,28.2-6.4,28.2c-1.7,0-4.6-20.2-5.6-27.6c2.1-0.8,4.4-1.2,6.8-1.2
				C304.8,304.6,306.6,304.8,308.1,305.2z"/>
			<path class="st4" d="M298.1,334.7c-1.1,0.6-9.5-9.1-15.5-16.3c1.9-3.3,4.2-6.2,6.9-8.5C293,318.2,299.6,333.9,298.1,334.7z"/>
			<path class="st4" d="M296.1,337.2c-0.6,0.9-10.2-2.5-18.9-5.8c0.7-2.7,1.6-5.4,2.8-8C287.7,329,296.8,336.1,296.1,337.2z"/>
			<path class="st4" d="M294.9,340.2c0,1-10.2,2.4-19.5,3.5c0-0.4,0-0.8,0-1.2c0.1-2.1,0.4-4.4,0.8-6.7
				C285.3,337.3,294.9,339,294.9,340.2z"/>
			<path class="st4" d="M276.9,357.8c-0.8-3-1.3-6.1-1.5-9.2c9.1-3,19.6-6.3,20.3-5.2C296.4,344.4,285.1,352.2,276.9,357.8z"/>
			<path class="st4" d="M286.4,373.2c-3.1-2.3-5.5-5.5-7.2-9.2c6.3-7.2,17.1-19,18.5-18.3C299.1,346.4,289.4,366.9,286.4,373.2z"/>
			<path class="st4" d="M306,374.5c-2.6,1.4-5.5,2.1-8.6,2.1c-1.2,0-2.4-0.1-3.4-0.3c0.8-5.6,4.4-29,6.5-29
				C302.1,347.4,304.9,366.9,306,374.5z"/>
			<path class="st4" d="M318.2,360.9c-1.6,3.4-3.6,6.4-6,8.8c-3.6-8.3-9.3-22.2-7.9-23C305.3,346.2,312.4,354.1,318.2,360.9z"/>
			<path class="st4" d="M322.4,348.6c-0.5,2.5-1.2,5-2.1,7.3c-6.7-5-13.6-10.5-13-11.5C307.8,343.6,315,345.9,322.4,348.6z"/>
			<path class="st4" d="M323.8,337.7c-0.1,2.3-0.3,4.5-0.6,6.8c-7.5-1.2-14.5-2.6-14.5-3.5S316,338.8,323.8,337.7z"/>
			<path class="st4" d="M323.8,333.4c-7.6,2.6-15.2,4.9-15.8,4c-0.6-0.9,7.7-7.2,14.9-12.4C323.4,327.7,323.7,330.6,323.8,333.4z"/>
			<path class="st4" d="M321.4,318.9L321.4,318.9c-6.1,7-14.6,16.4-15.9,15.8c-1.4-0.7,6.4-18.3,9.7-25.7
				C318.1,311.5,320.1,314.9,321.4,318.9z"/>
		</g>
	</g>
	<g>
		<path class="st5" d="M465.9,295.5c-0.7,15,4.5,33.3,19.5,33.3c1.5,0,9.3,0.3,10.7,0c12.4-3.5,21-23,21-40.2
			c0-13.4-3.6-28.4-16.1-30.1c-0.8-0.1-9.8,0-10.7,0C475.2,258.4,466.7,279.4,465.9,295.5z"/>
		<path class="st4" d="M477.8,295.5c-0.7,15,4.5,33.3,19.5,33.3c15,0,23.5-21.2,23.5-40.2c0-14.3-4-30.1-18.6-30.1
			C487.1,258.4,478.5,279.4,477.8,295.5z"/>
		<path class="st3" d="M484,295.1c-0.5,11.5,3.4,25.6,14.4,25.6s17.4-16.3,17.4-31c0-11-2.9-23.2-13.7-23.2
			C490.9,266.5,484.6,282.7,484,295.1z"/>
		<g>
			<path class="st4" d="M505.4,269c-0.6,4.7-2.6,19.6-3.7,19.6c-1,0-2.7-14.1-3.3-19.2c1.2-0.5,2.6-0.9,4-0.9
				C503.5,268.6,504.5,268.7,505.4,269z"/>
			<path class="st4" d="M499.6,289.5c-0.6,0.4-5.5-6.3-9.1-11.4c1.1-2.3,2.5-4.3,4-5.9C496.6,278,500.5,288.9,499.6,289.5z"/>
			<path class="st4" d="M498.4,291.2c-0.3,0.6-6-1.8-11-4c0.4-1.9,1-3.8,1.6-5.6C493.5,285.6,498.8,290.5,498.4,291.2z"/>
			<path class="st4" d="M497.7,293.3c0,0.7-6,1.7-11.4,2.5c0-0.3,0-0.5,0-0.8c0.1-1.5,0.2-3,0.5-4.6
				C492.1,291.3,497.7,292.5,497.7,293.3z"/>
			<path class="st4" d="M487.2,305.5c-0.5-2.1-0.7-4.2-0.9-6.4c5.3-2.1,11.5-4.4,11.9-3.6C498.6,296.2,492,301.7,487.2,305.5z"/>
			<path class="st4" d="M492.7,316.3c-1.8-1.6-3.2-3.8-4.2-6.4c3.7-5,10-13.2,10.8-12.7C500.2,297.6,494.5,311.9,492.7,316.3z"/>
			<path class="st4" d="M504.2,317.2c-1.5,0.9-3.2,1.5-5,1.5c-0.7,0-1.4-0.1-2-0.2c0.5-3.9,2.6-20.1,3.8-20.1
				C501.9,298.3,503.6,311.9,504.2,317.2z"/>
			<path class="st4" d="M511.3,307.7c-1,2.3-2.1,4.4-3.5,6.1c-2.1-5.8-5.5-15.5-4.6-16C503.8,297.5,507.9,303,511.3,307.7z"/>
			<path class="st4" d="M513.8,299.2c-0.3,1.8-0.7,3.5-1.2,5.1c-3.9-3.5-7.9-7.3-7.6-8C505.3,295.7,509.5,297.3,513.8,299.2z"/>
			<path class="st4" d="M514.6,291.6c0,1.6-0.2,3.2-0.4,4.7c-4.4-0.8-8.5-1.8-8.5-2.5C505.8,293.3,510.1,292.4,514.6,291.6z"/>
			<path class="st4" d="M514.6,288.6c-4.5,1.8-8.9,3.4-9.2,2.8s4.5-5,8.7-8.6C514.4,284.7,514.6,286.6,514.6,288.6z"/>
			<path class="st4" d="M513.2,278.5L513.2,278.5c-3.6,4.9-8.6,11.4-9.3,11c-0.8-0.5,3.7-12.7,5.7-17.9
				C511.3,273.4,512.4,275.8,513.2,278.5z"/>
		</g>
	</g>
	<path class="st8" d="M525.8,247.2c-0.2,1.2-1.9,7.5-1.9,7.5s0.4,30.1-2.5,44.3c0,0-0.2,0.1-1.6,0.6c4-35.2-9.9-41.6-16.8-41
		c-6.2,0.5-17.5,8.1-23.3,25.8c-5.8,17.7-5.4,32-5.3,33.8c-3.4,1.4-5.7,2.3-6.3,2.5c-3.3,1-9.4-1.4-9.4-1.4s-100.8,31.6-129,40.2
		c1.7-4,4.4-22.7,3.5-36.1s-7.9-33.5-31.1-33.5s-40,28.5-43.2,45.9c-3.3,17.3,3.1,37.8,1.9,38.2l0,0c-9.4,1.8-16.4,3-17.9,3.2
		c-5.1,0.7-80.1,2.5-85.5,2.3s-54.5-9.5-69.1-13.4s-36.8-13.6-37.4-15.2c-0.5-1.6-0.4-14.1-0.3-14.7c0.1-0.5,3.5-3.6,3.5-3.6
		l-5-18.2c0,0,26.7-45,66.8-55.9c21.9-5.9,32.1-4.6,38.4-4.8c6.3-0.2,53.6-5.1,55.5-5.1s79.3-38.7,94.8-42.1
		c15.5-3.4,93.3-0.3,100,0c6.7,0.4,54.9,7.1,77.9,19.4c0,0,19,2.5,20.1,2.7c1.2,0.2,16.5,4.6,17.3,5.1
		C520.6,234.5,526,246,525.8,247.2z"/>
	<g>
		<path class="st4" d="M390.1,217.7l-27.6,43c0,0-97.8,1.3-102.7,0.9c-5-0.5-29.9-3.7-33.9-4.9c-4-1.1-16.1-7.7-16.1-7.7
			c1.6,0,54.5-26.4,81.7-37.5C362.6,212.6,390.1,217.7,390.1,217.7z"/>
		<path class="st5" d="M390.1,217.7l-24.5,38c-7.5,0.2-98.4,2.1-103.2,1.7c-5-0.5-28.9-3.2-32.9-4.3c-3.9-1.1-15.1-5.8-15.6-6
			c12.9-5.9,51.5-24.8,74.8-34.6c0.9-0.4,1.8-0.7,2.6-1.1C362.6,212.6,390.1,217.7,390.1,217.7z"/>
		<g>
			<path class="st6" d="M389,217.5l-147,37.6c-5.7-0.7-10.8-1.5-12.4-2c-2.8-0.8-9.6-3.5-13.2-5l134.5-34.4
				C373.6,215.2,385.5,216.9,389,217.5z"/>
			<path class="st6" d="M321.3,212.2l-73,18.6c7.1-3.3,14.4-6.8,21.5-10l35.9-9.2C311.2,211.8,316.4,212,321.3,212.2z"/>
			<path class="st6" d="M376.6,238.6l-3.5,5.4l-49,12.5c-6.2,0.1-12.7,0.3-19,0.4L376.6,238.6z"/>
			<path class="st6" d="M368.9,250.8l-0.9,1.3l-15.2,3.9c-1.5,0-3,0.1-4.7,0.1L368.9,250.8z"/>
		</g>
	</g>
	<g>
		<path class="st4" d="M373.9,259.8c0,0,27.6-2.8,30.6-3.1c2.9-0.2,57.8-15.5,58.2-16c0.4-0.5,3.1-10,3.1-10s-18.8-10.5-20.5-11.1
			s-27.6-4.4-30.6-4c-2.9,0.4-14.5,2.8-15.4,3.6C398.5,220.1,373.9,259.8,373.9,259.8z"/>
		<path class="st5" d="M461.9,228.6c-0.1,2.9-1.7,10.9-1.7,10.9s-54.2,13-55.7,13.2c-1.4,0.2-15.1,0.9-15.1,0.9s-0.6-1.5-0.6-1.9
			s8.6-26.7,10.3-31.9l0,0c0.1-0.2,0.2-0.3,0.3-0.4c0.9-0.8,12.4-3.2,15.4-3.6c2.9-0.4,28.9,3.4,30.6,4
			C446.5,220.1,456.3,225.5,461.9,228.6z"/>
		<g>
			<path class="st6" d="M452.9,223.7l-60.1,15.4c0.5-1.6,1.1-3.3,1.6-4.9l52.9-13.5C448.6,221.3,450.7,222.5,452.9,223.7z"/>
			<path class="st6" d="M461.2,228.3l-70.8,18.1c0.1-0.4,0.2-0.8,0.4-1.2l69.1-17.7C460.4,227.8,460.8,228,461.2,228.3z"/>
		</g>
		<path class="st8" d="M389.4,253.6l-0.6-1.9c0,0,10.3-8.5,12.6-9.5c2.3-0.9,24.6,0.9,25.3,2c0.8,1.1,0.9,3.2,0.7,4.1
			c-0.2,0.9-19.6,6.1-21.7,6.2C403.6,254.5,389.4,253.6,389.4,253.6z"/>
	</g>
	<g>
		<path class="st5" d="M168.4,320.4c0,0,9.2-12.5,12.3-14.3s48.1-22,50.9-22.9s24.1-5.5,24.1-5.5s-1.2,6.1-2.2,7.4
			s-51.1,31.4-56.4,32.7C191.7,319.1,168.4,320.4,168.4,320.4z"/>
		<path class="st6" d="M246.6,279.8c-2.1,2.6-7.1,8.6-8.4,9.6c-1.7,1.3-41.6,22.3-44.4,22.8c-2,0.4-11.7-1.4-16.9-2.4
			c1.6-1.8,3-3.2,3.9-3.7c3.1-1.8,48.1-22,50.9-22.9C233.2,282.8,240.4,281.2,246.6,279.8z"/>
	</g>
	<g>
		<path class="st5" d="M61.9,296c-0.1,0.3,1.2,5,4.5,8c0,0,14.7-13.1,15.9-14.5c1.2-1.5,7.1-12,7.7-13.1s9.9-11.3,10.6-11.6
			c0,0-19.9,10.2-27,16.3C71.7,282.6,62.2,295,61.9,296z"/>
		<path class="st6" d="M100.6,264.8L100.6,264.8c-0.1,0.1-0.2,0.1-0.2,0.2c-2.6,2-23.6,17.7-24.5,18.9c-1.1,1.3-12,17-12,17
			c-1.4-2.3-2-4.5-1.9-4.8c0.2-1,9.8-13.4,11.7-14.9C80.5,275.1,99.3,265.4,100.6,264.8C100.5,264.8,100.6,264.8,100.6,264.8z"/>
	</g>
	<g class="st9">
		<path d="M257.5,374.6c-1.7-6.5-2.8-13.2-3.2-19.9c-0.2-3.4-0.3-6.7-0.1-10.1c0-1.7,0.3-3.4,0.4-5c0.3-1.7,0.5-3.4,0.8-5
			c0.7-3.3,1.7-6.6,3-9.8c1.2-3.2,2.7-6.3,4.4-9.4c3.3-6.1,7.4-11.9,12.4-17c2.5-2.5,5.3-4.9,8.4-6.9s6.5-3.7,10.1-4.7
			c3.7-1,7.6-1.5,11.4-1.2c3.8,0.2,7.6,1,11.1,2.5s6.6,3.6,9.1,6.1s4.6,5.5,6.2,8.5c3.1,6.2,4.6,12.9,5.1,19.6
			c-0.6-6.7-2.2-13.4-5.5-19.4c-1.6-3-3.6-5.9-6.2-8.3c-2.5-2.5-5.6-4.5-9-5.9s-7.1-2.1-10.9-2.4c-3.8-0.2-7.5,0.2-11.1,1.2
			s-6.9,2.7-9.9,4.6c-3,2-5.8,4.3-8.3,6.8c-5,5-9,10.7-12.3,16.7s-5.9,12.4-7.4,18.9c-0.4,1.6-0.6,3.3-0.9,5c-0.2,1.7-0.4,3.3-0.5,5
			c-0.2,3.3-0.2,6.7-0.1,10C255,361.4,255.9,368.1,257.5,374.6z"/>
		<path d="M478.3,280.3c1.5-5,3.8-9.9,7.2-14.2c1.7-2.2,3.7-4.1,6-5.8c2.3-1.7,4.8-3.2,7.6-4.1c1.4-0.5,2.9-0.8,4.4-0.9
			s3,0.1,4.5,0.4s2.8,1,4.1,1.7c0.6,0.4,1.2,0.8,1.7,1.3l0.8,0.7l0.7,0.8c1.9,2.1,3.1,4.5,4,7s1.3,5.1,1.7,7.6
			c-0.5-2.5-1-5.1-2.1-7.5c-1-2.4-2.2-4.8-4.1-6.7l-0.7-0.7l-0.8-0.6c-0.5-0.5-1.1-0.8-1.7-1.2c-1.2-0.7-2.5-1.2-3.9-1.5
			s-2.8-0.4-4.2-0.4c-1.4,0.1-2.8,0.4-4.1,0.9c-2.7,0.9-5.1,2.3-7.4,3.9c-2.2,1.6-4.2,3.5-5.9,5.6c-1.7,2.1-3.3,4.3-4.5,6.6
			c-0.7,1.1-1.2,2.4-1.8,3.5C479.2,277.8,478.8,279,478.3,280.3z"/>
	</g>
	<g class="st10">
		<path d="M144.4,362.1c9.8-0.3,19.6-0.5,29.5-0.4c2.5,0,4.9,0.1,7.4,0.2c1.2,0.1,2.4,0.1,3.7,0.4c0.2,0,0.3,0.1,0.5,0.2
			c0.1,0.1,0.1,0.2,0.1,0.3c0,0.1,0,0.2,0,0.2c-0.1,0.3-0.2,0.6-0.4,0.8c-0.3,0.5-0.7,0.9-1.1,1.3c-1.6,1.6-3.4,3.1-5.3,4.6
			c-1.8,1.5-3.7,2.9-5.6,4.3l-0.2-0.3c5-2.7,10.1-5.4,15-8.2c0.3-0.2,0.6-0.4,0.9-0.6c0.2-0.2,0.4-0.5,0.6-0.8
			c0.3-0.5,0.6-1.2,0.8-1.8c0.2-0.6,0.3-1.3,0.1-1.8c0-0.1-0.1-0.1-0.1-0.2l0,0l0,0h-0.1c-0.2,0-0.3,0-0.5,0c-0.4,0-0.7,0-1.1,0
			c-2.9,0-5.9,0.1-8.8,0.2c-5.9,0.2-11.8,0.5-17.6,0.8L144.4,362.1z M144.4,362.1c11.7-0.8,23.5-1.4,35.3-1.9
			c2.9-0.1,5.9-0.2,8.8-0.2c0.4,0,0.7,0,1.1,0c0.2,0,0.4,0,0.6,0c0.1,0,0.1,0,0.2,0c0,0,0.1,0,0.1,0.1l0.1,0.1
			c0.1,0.1,0.1,0.2,0.1,0.3c0.2,0.7,0.1,1.4-0.1,2c-0.2,0.6-0.4,1.3-0.8,1.9c-0.2,0.3-0.4,0.6-0.7,0.8c-0.3,0.2-0.6,0.4-0.9,0.6
			c-4.9,2.9-10,5.5-15,8.2l-0.2-0.3c1.9-1.4,3.8-2.8,5.6-4.2c1.8-1.5,3.6-2.9,5.2-4.5c0.4-0.4,0.8-0.8,1.1-1.3
			c0.2-0.2,0.3-0.5,0.4-0.7v-0.1c0,0,0-0.1-0.1-0.1s-0.2-0.1-0.3-0.1c-1.1-0.3-2.4-0.3-3.6-0.4c-2.4-0.1-4.9-0.2-7.4-0.2
			c-4.9-0.1-9.8,0-14.7,0C154.2,362,149.3,362,144.4,362.1z"/>
		<path d="M64.2,351.3c-1.3-1-2.5-2.1-3.7-3.2c-1.2-1.1-2.4-2.2-3.4-3.5c-0.2-0.3-0.5-0.6-0.6-1.1l-0.2-1.1l-0.5-2.3
			c-0.3-1.5-0.6-3-0.6-4.6c0-0.2,0-0.4,0.1-0.6c0,0,0.1-0.1,0.2-0.2c0.2,0,0.2,0,0.3,0s0.2,0.1,0.3,0.1c0.4,0.2,0.7,0.5,1.1,0.7
			c0.7,0.5,1.3,1,2,1.5c1.3,1,2.5,2.1,3.8,3.1c2.5,2.1,5,4.3,7.4,6.5l-0.3,0.3c-2-1.5-4-3-6-4.4c-1-0.7-2-1.5-3.1-2.2
			c-0.5-0.4-1-0.7-1.6-1c-0.3-0.2-0.5-0.3-0.8-0.5c-0.1,0-0.1-0.1-0.2-0.1c0.1,0,0,0,0,0.1c-0.1,0.1-0.1,0.3-0.2,0.4
			c-0.3,1.1-0.5,2.3-0.4,3.4c0,0.1,0,0.3,0.1,0.4s0.2,0.2,0.2,0.4l0.6,0.7l1.1,1.4L64.2,351.3z M64.2,351.3l-4.7-5.6l-1.2-1.4
			l-0.6-0.7c-0.1-0.1-0.2-0.2-0.3-0.4c-0.1-0.2-0.1-0.3-0.1-0.5c-0.1-1.2,0.1-2.3,0.4-3.5c0-0.1,0.1-0.3,0.2-0.4l0.1-0.1
			c0,0,0,0,0.1-0.1c0.1,0,0.1,0,0.2,0c0.1,0,0.2,0.1,0.3,0.1c0.3,0.1,0.6,0.3,0.8,0.5c0.5,0.3,1.1,0.7,1.6,1c1,0.7,2.1,1.4,3.1,2.1
			c2.1,1.5,4.1,2.9,6.1,4.4l-0.3,0.3l-7.4-6.4c-1.2-1.1-2.5-2.1-3.8-3.2c-0.6-0.5-1.3-1-1.9-1.5c-0.3-0.2-0.7-0.5-1-0.7
			c-0.1,0-0.2-0.1-0.2-0.1s-0.1,0,0,0l0,0c-0.1,0.1-0.1,0.3-0.1,0.5c0,1.5,0.3,3,0.6,4.5l0.4,2.3l0.2,1.1c0.1,0.3,0.3,0.7,0.6,1
			c1,1.2,2.1,2.4,3.3,3.5C61.7,349.1,62.9,350.2,64.2,351.3z"/>
	</g>
	<g>
		<path class="st11" d="M359.4,286.6l104-32.6c0,0-29.5,19.3-34.5,21.8s-37.5,18.8-40.7,19.1c-3.2,0.2-19.9,0-19.9,0L359.4,286.6z"
			/>
		<path class="st11" d="M110.8,322c0,0,26.3-16.9,28.5-18s55.4-25.9,57.6-26.5c2.2-0.6,14.8,3.9,14.8,3.9s-69.1,25.4-72.4,27
			C136.1,310,110.8,322,110.8,322z"/>
		<path class="st11" d="M260.8,374L260.8,374c-2.5,0.5-4.9,0.9-7,1.3c-4.4-0.9-9-1.8-10.2-2c-2.4-0.5-9-11.1-10.1-11.9
			s-17,0.8-24.8,0.6c-7.8-0.2-39.9-6.4-41.7-7.6c-1.7-1.3,3.9-4.5,5.5-5.6c1.5-1.1,40.2-0.9,49.3-1.4c7-0.4,27.3-5,36.5-7.2
			C256.6,356.4,261.9,373.7,260.8,374z"/>
	</g>
	<g>
		<path class="st4" d="M72.8,362.1c-0.7-1-1-15.9-1.3-16.4s-13.9-12-14.6-12.8c-0.6-0.8-4.6-16.9-4.5-17.7s17.7,6.1,21.5,7.4
			c3.8,1.3,44.4,9.5,49.8,10.2c5.4,0.8,52.6,2.4,53.1,2.3s-1.1,13.1-2.2,14.7c-1,1.6-9.7,5.5-10.6,5.7c-0.9,0.1-32.6,2.4-33.3,2.9
			c-0.8,0.5-10.4,14.9-12.2,14.9C108.4,373.3,73.7,363.4,72.8,362.1z"/>
		<polygon class="st6" points="71.6,345.7 68.5,320.6 70,321.2 		"/>
		<polygon class="st6" points="130.7,358.4 154.9,334.5 157.3,334.6 		"/>
		<path class="st6" d="M71.6,345.7c0,0,11.1,7.6,12,7.8s23.5,6.2,25.7,6.2s22.7-1.2,21.5-1.3C129.5,358.3,71.6,345.7,71.6,345.7z"/>
		<path class="st4" d="M187.9,379c1.4,0,15.7-10.3,16.8-10.7c1.1-0.4,27.5-6.9,28.9-7s8.5,11.4,10.1,11.9c1.5,0.5,11.2,1.8,12.1,1.7
			c0.8-0.2-11.6,3-13.1,3C241,378.1,187.9,379,187.9,379z"/>
		<path class="st4" d="M474.4,318.3c-3.4,1.4-5.7,2.3-6.3,2.5c-3.3,1-9.4-1.4-9.4-1.4s-100.8,31.6-129,40.2l0,0c0.1-0.3,0.6-2,1-3.7
			c0-0.1,0-0.2,0.1-0.3c0.1-0.3,0.1-0.5,0.2-0.8c0,0,119.1-42.2,120-42.4c0.9-0.2,6.4,0.7,7.3,1.1c0.9,0.5,5.9,5.1,8.2,5
			c2.3-0.1,8-1.1,8-1.1l0,0C474.4,317.8,474.4,318.1,474.4,318.3z"/>
		<path class="st4" d="M306.6,272c0,0,18.5-4.6,20-4.8c1.5-0.2,24.3,12.5,27.4,14.8s14.2,12.3,14.4,12.9s-12.7,6.6-12.7,6.6
			s-19.7-12.4-22.3-14.7C331.8,285.4,306.6,272,306.6,272z"/>
		<polygon class="st5" points="332,272 325.9,274.5 348.1,288.2 353.8,285.9 		"/>
		<path class="st4" d="M493.3,251.8c0,0,4.3-1.6,4.6-2.3s0-12.1-0.2-12.8c-0.2-0.6-4.7-2-4.7-2L493.3,251.8z"/>
		<path class="st4" d="M501.3,251.2c0,0,3.6-1.2,3.8-1.7s0.2-9.8,0-10.5s-3.8-1.9-3.8-1.9V251.2z"/>
		<path class="st4" d="M508.4,248.9c0,0,2.7-1.4,3-1.9s-0.3-6.7-0.8-7.1s-2.8-0.9-2.8-0.9L508.4,248.9z"/>
		<polygon class="st4" points="127.7,281.3 119.8,277.2 130.6,270.8 136.7,270.5 142.7,273.3 		"/>
		<polygon class="st4" points="193.8,287.9 211.7,281.4 229.2,281.9 210.1,288.5 		"/>
	</g>
	<g>
		<path class="st12" d="M419.5,323.4L331,354.7l0,0c0.8-3.9,1.5-9.3,2-15.1c8.1-2,52.7-12.9,56.6-13.9
			C393.9,324.8,419.5,323.4,419.5,323.4z"/>
		<path class="st12" d="M374.9,205.8c-2.1,0.1-59.8,2.2-62.6,2.6c-2.9,0.4-12.4,3.2-12.4,3.2l-8.5-0.2c5.8-2.4,10.4-4,13.1-4.6
			C314.4,204.6,349.1,205.1,374.9,205.8z"/>
		<path class="st12" d="M83.6,322.5l19.8,4.2c0,0,31.9-20.4,34.7-22s55.9-26.4,58.8-27.2c3-0.8,50.7-9.4,53.2-9.6s61.1-4.6,61.1-4.6
			s-46.8-1.4-50.3-1.7c-3.5-0.3-31.6-4.1-35.1-6c-3.4-1.9-16.1-6.7-16.1-6.7l-18.8,1.8c0,0-41.9,17.4-63.2,30.6
			c-7.5,4.7-21.8,15.4-23.2,16.9C103.2,299.6,83.6,322.5,83.6,322.5z"/>
		<path class="st13" d="M188.4,265.5c0,0-36,16.1-38.4,17.2s-29.2,17.2-30.1,18c-0.9,0.7-28.3,23-28.7,23.4l0,0l-7.6-1.6
			c0,0,19.6-22.9,21-24.4s15.6-12.2,23.2-16.9c14.6-9.1,39-20.1,52.8-26.1l0,0l0.4-0.1c-2.4,1.8-8.9,10.5-8,11.8
			C173.9,268.2,188.4,265.5,188.4,265.5z"/>
	</g>
	<g class="st10">
		<path d="M82.1,291.4c1.7,0.8,3.4,1.5,5.2,2.3c1.7,0.7,3.5,1.5,5.2,2.1c1.8,0.7,3.5,1.4,5.3,2s3.6,1.3,5.4,1.9
			c-1.8-0.5-3.7-1-5.5-1.6s-3.6-1.2-5.4-1.9c-1.8-0.7-3.5-1.4-5.2-2.2S83.7,292.3,82.1,291.4z"/>
		<path d="M106,297.5c2.6,0.5,5.2,1,7.8,1.5l7.8,1.6l7.7,1.7c2.6,0.6,5.1,1.2,7.7,1.8c-2.6-0.5-5.2-1-7.8-1.5l-7.8-1.6l-7.7-1.7
			C111.1,298.7,108.5,298.1,106,297.5z"/>
		<path d="M138.1,308.7c3.3,0,6.6,0,9.8,0l9.8,0.1l9.8,0.2c3.3,0.1,6.6,0.2,9.8,0.3c-3.3,0-6.6,0-9.8,0l-9.8-0.1l-9.8-0.2
			C144.7,308.9,141.4,308.8,138.1,308.7z"/>
		<path d="M84.1,289.4l16.4-6.3l8.2-3.2l4.1-1.6c1.3-0.6,2.7-1.1,4-1.8c2.5-1.4,4.9-3,7.3-4.6l7.1-4.8l14.2-9.6l-7,5l-7,4.9
			l-7.1,4.8c-2.4,1.6-4.7,3.2-7.2,4.7c-1.3,0.7-2.7,1.2-4,1.8l-4.1,1.6l-8.2,3.1l-8.2,3.1L84.1,289.4z"/>
		<path d="M116.2,278.6c1.6,0.5,3.1,1.1,4.6,1.8c1.5,0.7,3,1.4,4.4,2.2c-1.6-0.5-3.1-1.1-4.6-1.8C119.1,280,117.6,279.4,116.2,278.6
			z"/>
		<path d="M184,291.4c2.3-0.1,4.5-0.1,6.8-0.1h6.8h6.8c2.3,0,4.5,0.1,6.8,0.1c-2.3,0.1-4.5,0.1-6.8,0.1h-6.8h-6.8
			C188.6,291.5,186.3,291.4,184,291.4z"/>
		<path d="M95.2,320.4l13.9-11.3l7-5.6c1.2-0.9,2.3-1.9,3.6-2.8c1.3-0.8,2.6-1.6,3.9-2.4c5.2-3.2,10.4-6.3,15.6-9.5
			c2.6-1.6,5.2-3.1,7.9-4.6c1.3-0.8,2.6-1.5,4.1-2.2c1.4-0.6,2.8-1.2,4.2-1.8l16.9-7.5l8.5-3.8l4.2-1.9l2.1-0.9
			c0.7-0.3,1.4-0.7,2.2-0.9c12.1-3.1,24.4-5.8,36.6-8.6l-18.3,4.4c-6.1,1.5-12.2,2.9-18.2,4.5c-0.7,0.2-1.4,0.6-2.1,0.9l-2.1,0.9
			l-4.2,1.9l-8.4,3.8l-16.9,7.5c-1.4,0.6-2.8,1.2-4.3,1.8c-1.4,0.6-2.7,1.4-4,2.2c-2.6,1.5-5.3,3.1-7.9,4.6
			c-5.2,3.1-10.4,6.2-15.6,9.4c-1.3,0.8-2.6,1.6-3.9,2.4c-1.2,0.9-2.4,1.8-3.6,2.8l-7,5.6L95.2,320.4z"/>
		<path d="M66.4,304c0.6,2.4,1.1,4.9,1.6,7.3c0.4,2.5,0.9,4.9,1.1,7.4c-0.6-2.4-1.1-4.9-1.6-7.3C67.2,309,66.7,306.5,66.4,304z"/>
		<path d="M168.4,320.4c-1.5,2.2-3.2,4.2-4.9,6.3c-1.7,2.1-3.4,4.1-5.2,6.1c1.5-2.2,3.2-4.2,4.9-6.3
			C164.9,324.5,166.6,322.4,168.4,320.4z"/>
		<path d="M184,319.3c-0.6,3.4-1.2,6.9-1.8,10.3s-1.4,6.9-2.1,10.3c-0.4,1.7-0.8,3.4-1.2,5.1c-0.2,0.9-0.4,1.7-0.7,2.5
			c-0.2,0.8-0.6,1.7-1.2,2.4c-1.2,1.4-2.7,2.6-4.3,3.6s-3.3,1.9-5.2,2.5c1.8-0.6,3.5-1.6,5-2.6c1.5-1.1,3-2.2,4.1-3.6
			c0.6-0.7,0.9-1.5,1.1-2.3c0.2-0.8,0.5-1.7,0.7-2.5c0.4-1.7,0.8-3.4,1.2-5.1c0.8-3.4,1.5-6.8,2.2-10.2L184,319.3z"/>
		<path d="M230,307.8c0.4,4.1,0.8,8.2,1.1,12.2c0.2,2,0.3,4.1,0.4,6.1c0.1,2,0.2,4.1,0.1,6.2c-0.1,1-0.4,2-0.6,3c-0.2,1-0.5,2-0.8,3
			c-0.6,2-1.1,4-1.8,5.9c-1.2,4-2.5,7.9-3.8,11.8l3.4-11.9l1.7-6l0.8-3c0.2-1,0.5-2,0.6-3c0.1-2,0-4.1-0.1-6.1l-0.3-6.1L230,307.8z"
			/>
		<path d="M225.9,303.6c3.8-0.1,7.6-0.1,11.3-0.1h11.3h11.3c3.8,0,7.6,0.1,11.3,0.1c-3.8,0.1-7.6,0.1-11.3,0.1h-11.3h-11.3
			C233.4,303.7,229.6,303.6,225.9,303.6z"/>
		<path d="M327.9,297.5c2.2-1,4.4-1.9,6.7-2.8c2.3-0.8,4.5-1.7,6.9-2.4c-2.2,1-4.4,1.9-6.7,2.8C332.5,296,330.2,296.8,327.9,297.5z"
			/>
		<path d="M255.7,277.8c-1.3-1.5-2.5-3.1-3.7-4.7s-2.3-3.2-3.3-4.9c1.3,1.5,2.5,3.1,3.7,4.7C253.5,274.5,254.7,276.1,255.7,277.8z"
			/>
		<path d="M448.5,292.4c2.3,0.1,4.7,0.2,7,0.3l7,0.4l7,0.5c2.3,0.2,4.7,0.4,7,0.6c-2.3-0.1-4.7-0.2-7-0.3l-7-0.4l-7-0.5
			C453.1,292.8,450.8,292.6,448.5,292.4z"/>
		<path d="M51.7,312.4c4.2,1.6,8.3,3.1,12.5,4.6c2.1,0.8,4.2,1.5,6.3,2.2c1.1,0.4,2.1,0.7,3.2,1s2.2,0.6,3.2,0.8
			c8.7,1.9,17.6,3.7,26.3,5.4c4.4,0.9,8.8,1.7,13.2,2.5c2.2,0.4,4.4,0.8,6.6,1.2c2.2,0.4,4.5,0.5,6.7,0.6c9,0.6,18,1.2,27,1.6
			c2.2,0.1,4.5,0,6.8,0l6.8-0.2l13.5-0.6c4.5-0.2,9-0.4,13.5-0.7c1.1-0.1,2.2-0.1,3.4-0.3c1.1-0.2,2.2-0.4,3.3-0.7l6.6-1.5
			c8.7-2,17.5-4,26.2-6.1l26.2-6.1c-17.4,4.2-34.8,8.4-52.3,12.4l-6.6,1.5c-1.1,0.2-2.2,0.5-3.3,0.7s-2.2,0.2-3.4,0.3
			c-4.5,0.3-9,0.5-13.5,0.8l-13.5,0.6l-6.8,0.2c-2.2,0.1-4.5,0.2-6.8,0.1c-9-0.4-18-1-27-1.6c-2.2-0.2-4.5-0.2-6.7-0.6
			s-4.4-0.8-6.6-1.2c-4.4-0.8-8.8-1.7-13.2-2.5c-8.8-1.8-17.6-3.5-26.3-5.5c-1.1-0.2-2.2-0.5-3.3-0.8c-1.1-0.3-2.1-0.7-3.2-1.1
			c-2.1-0.7-4.2-1.5-6.3-2.3C60,315.6,55.8,314,51.7,312.4z"/>
		<path d="M190.9,250.7l-15.2,6.9l-7.6,3.4c-1.3,0.6-2.6,1.1-3.8,1.7s-2.5,1.2-3.7,1.8c-9.9,5-19.7,10.1-29.4,15.4
			c-1.2,0.7-2.4,1.3-3.6,2l-3.4,2.2c-2.3,1.5-4.6,3-6.8,4.6c-2.2,1.5-4.4,3.1-6.6,4.8c-2.1,1.6-4.3,3.3-6.1,5.2
			c-3.7,3.8-7.1,7.9-10.6,11.8c-3.5,4-6.9,8-10.4,12c6.7-8.2,13.2-16.4,20.4-24.3c1.9-2,4-3.6,6.2-5.3c2.2-1.7,4.4-3.2,6.6-4.8
			s4.5-3.1,6.8-4.6l3.4-2.2c1.2-0.8,2.4-1.4,3.6-2.1c4.9-2.6,9.8-5.2,14.7-7.7s9.9-5.1,14.9-7.5c1.2-0.6,2.5-1.2,3.8-1.8
			s2.6-1.1,3.8-1.7l7.7-3.3L190.9,250.7z"/>
		<path d="M103.4,326.7l23.2-15.1c3.9-2.5,7.8-5,11.8-7.3c4.1-2.3,8.3-4.3,12.5-6.4c8.4-4.1,16.9-8.1,25.4-12
			c4.3-1.9,8.5-3.9,12.9-5.7c2.2-0.9,4.4-1.8,6.6-2.6c2.3-0.9,4.6-1.3,7-1.8c9.4-1.9,18.8-3.4,28.2-5l14.1-2.4
			c2.3-0.4,4.8-0.7,7.1-0.9c2.4-0.2,4.8-0.4,7.2-0.6c9.6-0.8,19.1-1.4,28.7-2.1l28.7-1.7l-28.7,2.1c-9.6,0.7-19.1,1.4-28.7,2.2
			c-2.4,0.2-4.8,0.4-7.1,0.6c-2.4,0.2-4.7,0.5-7.1,1l-14.1,2.4c-9.4,1.6-18.8,3.2-28.2,5.1c-2.3,0.5-4.7,1-6.8,1.8
			c-2.2,0.8-4.4,1.7-6.6,2.6c-4.3,1.8-8.6,3.7-12.9,5.6c-8.5,3.9-17,7.8-25.4,11.9c-4.2,2-8.4,4.1-12.5,6.3c-4,2.3-7.9,4.8-11.8,7.3
			L103.4,326.7z"/>
		<path d="M255.7,277.8c4.1-1.2,8.2-2.4,12.3-3.4c2.1-0.5,4.1-1,6.2-1.5s4.3-0.5,6.5-0.7c4.3-0.2,8.6-0.3,12.9-0.3h6.5
			c2.1,0,4.3,0.1,6.5,0.1l-6.5,0.2l-6.5,0.2c-4.3,0.1-8.6,0.2-12.9,0.5c-2.1,0.1-4.3,0.2-6.3,0.6c-2.1,0.4-4.2,0.9-6.3,1.4
			L255.7,277.8z"/>
		<path d="M109.2,322.9c5.4-2.8,10.8-5.5,16.3-8.2c2.7-1.4,5.5-2.7,8.2-4s5.5-2.6,8.4-3.8c11.4-4.6,22.8-9.2,34.2-13.6
			c1.4-0.5,2.9-1.1,4.4-1.6c0.4-0.1,0.8-0.2,1.2-0.4c0.3-0.1,0.7-0.2,1.1-0.3c0.7-0.2,1.4-0.5,2.2-0.7l8.7-3.1l8.7-3.1
			c2.9-1,5.8-2.1,8.8-3c0.7-0.2,1.6-0.4,2.4-0.4c0.8-0.1,1.6-0.1,2.3-0.2c1.6-0.1,3.1-0.2,4.7-0.3c3.1-0.2,6.2-0.3,9.4-0.4
			c6.2-0.2,12.5-0.4,18.7-0.5c-6.2,0.3-12.5,0.6-18.7,0.9c-3.1,0.2-6.2,0.3-9.4,0.5c-1.6,0.1-3.1,0.2-4.7,0.3
			c-0.8,0.1-1.6,0.1-2.3,0.2c-0.8,0.1-1.5,0.2-2.2,0.4c-5.8,1.9-11.6,4.1-17.4,6.2l-8.7,3.1c-0.7,0.2-1.4,0.5-2.2,0.8
			c-0.4,0.1-0.8,0.2-1.1,0.4c-0.4,0.1-0.7,0.2-1.1,0.3c-1.4,0.5-2.9,1-4.3,1.6c-11.5,4.4-22.9,8.9-34.3,13.4
			c-2.9,1.1-5.6,2.4-8.4,3.7l-8.3,3.9C120.2,317.6,114.7,320.3,109.2,322.9z"/>
		<path d="M472.5,278.6l-20.9,9.9l-21,9.8l-21,9.8l-5.2,2.4l-2.6,1.2l-1.3,0.6c-0.1,0-0.2,0.1-0.3,0.1l-0.4,0.1
			c-0.3,0.1-0.5,0.1-0.8,0.2c-2,0.3-4,0.5-5.9,0.7c-2,0.2-4,0.3-5.9,0.4c-2,0.1-4,0.2-5.9,0.2c-1,0-2,0-3,0c-0.2,0-0.5,0-0.8,0
			c-0.2,0-0.5,0-0.8-0.1c-0.3,0-0.5-0.2-0.8-0.3c-0.2-0.1-0.5-0.2-0.7-0.3c-3.4-1.9-6.6-3.8-9.9-5.8c-6.5-3.9-13.1-7.9-19.5-12
			c-1.6-1-3.2-2-4.7-3.2l-1.1-0.9l-1.2-0.8c-0.8-0.5-1.6-1-2.4-1.6c-3.2-2-6.5-4-9.8-5.9c-6.6-3.9-13.3-7.6-20-11.3
			c6.8,3.6,13.5,7.2,20.2,11c3.3,1.9,6.6,3.8,9.9,5.8c0.8,0.5,1.6,1,2.4,1.5l1.2,0.8l1.1,0.9c1.5,1.1,3.1,2.1,4.7,3.1
			c6.5,4,13,8,19.5,11.9c3.3,1.9,6.6,3.9,9.9,5.7c0.2,0.1,0.4,0.2,0.6,0.3c0.2,0.1,0.4,0.2,0.6,0.2s0.4,0.1,0.7,0.1
			c0.2,0,0.5,0,0.7,0c1,0,2,0,2.9,0c2,0,3.9-0.1,5.9-0.2s3.9-0.2,5.9-0.4c2-0.2,3.9-0.3,5.8-0.6c0.2,0,0.5-0.1,0.7-0.1l0.3-0.1
			c0.1,0,0.2-0.1,0.3-0.1l1.3-0.6l2.6-1.2l5.3-2.4l21-9.7l21.1-9.6L472.5,278.6z"/>
		<path d="M367.8,294.8c4.6,0.2,9.2,0.3,13.8,0.2c1.1,0,2.3,0,3.5-0.1c1.1,0,2.3-0.1,3.4-0.3c0.5-0.1,1.1-0.3,1.6-0.5
			s1.1-0.4,1.6-0.6c1-0.4,2.1-0.9,3.1-1.3c8.2-3.7,16.2-7.8,24.2-11.8l6-3c1-0.5,2.1-1,3-1.5c1-0.5,1.9-1.1,2.9-1.7
			c3.8-2.3,7.6-4.7,11.4-7l22.6-14.2c-7.3,5-14.7,9.9-22.2,14.7c-3.7,2.4-7.5,4.8-11.3,7.1c-1,0.6-1.9,1.1-2.9,1.7s-2,1-3,1.5l-6,3
			c-4,2-8,4-12.1,6s-8.1,3.9-12.3,5.7c-1,0.5-2.1,0.9-3.2,1.3c-0.5,0.2-1.1,0.4-1.6,0.6s-1.1,0.3-1.7,0.5c-1.2,0.2-2.3,0.2-3.5,0.3
			c-1.2,0-2.3,0-3.5,0C377,295.4,372.4,295.1,367.8,294.8z"/>
		<path d="M460.6,306.8l6.8-13.1c1.1-2.2,2.2-4.4,3.2-6.6c0.5-1.1,1-2.2,1.2-3.4c0.3-1.1,0.4-2.3,0.5-3.5c0.2-2.4,0.2-4.8,0.2-7.1
			c0-1.2-0.1-2.4-0.2-3.6c0-0.6-0.1-1.2-0.2-1.8c0-0.3-0.1-0.6-0.1-0.9c-0.1-0.3-0.2-0.5-0.3-0.8c-1-2.2-2.2-4.3-3.4-6.5l-3.5-6.5
			c2.7,4.2,5.3,8.4,7.6,12.7c0.1,0.3,0.3,0.6,0.4,0.9s0.1,0.6,0.2,0.9c0.1,0.6,0.1,1.2,0.2,1.8c0.1,1.2,0.2,2.4,0.2,3.6
			c0.1,2.4,0.1,4.8-0.1,7.2c-0.1,1.2-0.2,2.4-0.5,3.6s-0.8,2.4-1.3,3.5c-1.1,2.2-2.2,4.4-3.4,6.6
			C465.7,298.3,463.2,302.5,460.6,306.8z"/>
		<path d="M482.5,226.1c1.3,0.5,2.6,1.1,3.9,1.7l3.8,1.7l3.8,1.7c0.6,0.3,1.3,0.6,1.9,0.8c0.3,0.1,0.6,0.2,1,0.3
			c0.3,0.1,0.7,0.1,1,0.2c2.8,0.5,5.6,0.7,8.5,1.1l4.3,0.5l4.3,0.5c-2.9,0-5.7-0.2-8.6-0.4c-2.9-0.2-5.7-0.5-8.6-0.9
			c-0.4-0.1-0.7-0.1-1.1-0.2s-0.8-0.2-1.1-0.3c-0.7-0.3-1.3-0.6-2-0.9c-1.3-0.6-2.5-1.2-3.8-1.8
			C487.4,228.8,484.9,227.5,482.5,226.1z"/>
		<path d="M525.8,246.8c-0.4,1.1-1,2.1-1.5,3.1c-0.6,1-1.2,2-2,3c-0.2,0.2-0.4,0.5-0.7,0.7c-0.1,0.1-0.3,0.2-0.5,0.3l-0.4,0.2
			c-0.5,0.3-1.1,0.6-1.6,0.9c-1.1,0.6-2.2,1.2-3.3,1.7c0.9-0.8,1.9-1.5,2.9-2.2c0.5-0.4,1-0.7,1.6-1c0.1-0.1,0.3-0.1,0.4-0.2
			c0.1-0.1,0.2-0.1,0.3-0.2c0.2-0.2,0.4-0.4,0.6-0.6c0.7-0.9,1.4-1.9,2.1-2.8C524.3,248.7,525.1,247.8,525.8,246.8z"/>
		<path d="M463.9,258.8c-1.5,1.1-3.1,2.2-4.7,3.2l-2.4,1.6c-0.4,0.3-0.8,0.5-1.1,0.8c-0.1,0-0.2,0.2-0.1,0.1v-0.1l0,0l0,0v0.1
			c0.1,0.2,0.2,0.4,0.3,0.5c0.2,0.4,0.5,0.7,0.7,1c0.1,0.1,0.3,0.2,0.4,0.2l0,0h0.1l0.3-0.1l2.8-1l2.8-1c0.9-0.3,1.9-0.6,2.8-0.9
			c-0.9,0.5-1.8,0.9-2.6,1.3l-2.7,1.2c-0.9,0.4-1.8,0.8-2.7,1.1c-0.1,0-0.2,0.1-0.4,0.1c-0.1,0-0.1,0-0.2,0.1c-0.1,0-0.3,0-0.4,0
			c-0.4-0.1-0.6-0.3-0.9-0.5c-0.4-0.4-0.6-0.8-0.9-1.2c-0.1-0.2-0.2-0.4-0.3-0.7c0-0.1,0-0.1,0-0.2v-0.1v-0.1c0-0.1,0-0.2,0-0.2
			c0.1-0.2,0.2-0.3,0.3-0.4c0.4-0.3,0.8-0.6,1.2-0.9c0.8-0.5,1.6-1,2.5-1.5C460.4,260.6,462.1,259.7,463.9,258.8z"/>
		<polygon points="336.6,272 344.9,270 353.3,268 370.1,264.2 386.9,260.5 395.3,258.7 403.7,256.9 395.3,258.9 387,260.9 
			370.2,264.7 353.4,268.4 345,270.3 		"/>
		<path d="M390.1,217.7c1.8-1.6,3.6-3.1,5.5-4.6c0.5-0.4,1-0.7,1.6-1c0.6-0.2,1.2-0.3,1.9-0.4l3.7-0.7c2.5-0.5,4.9-0.9,7.4-1.4
			l3.7-0.6c0.6-0.1,1.2-0.2,1.9-0.2c0.3,0,0.7,0,1,0s0.6,0.1,1,0.1c2.5,0.3,5,0.7,7.5,1.1c2.5,0.4,5,0.8,7.4,1.3
			c4.9,0.9,9.9,1.9,14.8,3c-2.5-0.5-4.9-0.9-7.4-1.4l-7.4-1.3c-5-0.8-9.9-1.7-14.9-2.3c-0.3,0-0.6-0.1-0.9-0.1s-0.6-0.1-0.9,0
			c-0.6,0-1.2,0.1-1.8,0.2l-3.7,0.6l-7.4,1.3l-3.7,0.7c-0.6,0.1-1.3,0.2-1.8,0.4c-0.5,0.2-1,0.6-1.5,0.9
			C393.9,214.6,392,216.1,390.1,217.7z"/>
	</g>
	<g>
		<path class="st4" d="M527.2,225.4c4-0.8,8-1.5,12-2.2s8-1.3,12-2c4-0.6,8-1.2,12-1.8l6-0.8c2-0.2,4-0.5,6-0.8c-2,0.4-4,0.8-6,1.1
			l-6,1.1c-4,0.7-8,1.3-12,2c-4,0.6-8,1.2-12,1.8C535.3,224.4,531.2,225,527.2,225.4z"/>
		<path class="st4" d="M518.8,226.7c4.7-0.9,9.4-1.7,14.1-2.5c4.7-0.8,9.4-1.5,14.1-2.3c4.7-0.7,9.4-1.4,14.1-2.1l7.1-1
			c2.4-0.3,4.7-0.6,7.1-0.9c-2.3,0.5-4.7,0.9-7,1.3l-7,1.2c-4.7,0.8-9.4,1.5-14.1,2.3c-4.7,0.7-9.4,1.4-14.1,2.1
			C528.3,225.5,523.6,226.2,518.8,226.7z"/>
		<path class="st4" d="M540.7,231.3c5.5-1,11-2,16.5-2.9s11.1-1.8,16.6-2.7c5.5-0.8,11.1-1.7,16.6-2.5l8.3-1.2
			c2.8-0.4,5.6-0.8,8.3-1.1c-2.8,0.5-5.5,1-8.3,1.5l-8.3,1.4c-5.5,0.9-11.1,1.8-16.6,2.7c-5.5,0.8-11.1,1.7-16.6,2.5
			C551.7,229.8,546.2,230.6,540.7,231.3z"/>
		<path class="st4" d="M533.5,241c4.8-0.9,9.5-1.7,14.3-2.5s9.5-1.5,14.3-2.3c4.8-0.7,9.6-1.5,14.4-2.1l7.2-1
			c2.4-0.3,4.8-0.6,7.2-0.9c-2.4,0.5-4.8,0.9-7.1,1.3l-7.2,1.2c-4.8,0.8-9.5,1.5-14.3,2.3c-4.8,0.7-9.6,1.5-14.4,2.1
			S538.3,240.4,533.5,241z"/>
	</g>
</g>
</svg>
