<?xml version="1.0" encoding="utf-8"?>
<!-- Generator: Adobe Illustrator 25.2.0, SVG Export Plug-In . SVG Version: 6.00 Build 0)  -->
<svg version="1.1" id="Layer_1" xmlns="http://www.w3.org/2000/svg" xmlns:xlink="http://www.w3.org/1999/xlink" x="0px" y="0px"
	 viewBox="0 0 640 480" style="enable-background:new 0 0 640 480;" xml:space="preserve">
<style type="text/css">
	.st0{fill:#F5F5F5;}
	.st1{fill:#E0E0E0;}
	.st2{fill:#EBEBEB;}
	.st3{fill:#FAFAFA;}
	.st4{fill:#263238;}
	.st5{fill:#FFC727;}
	.st6{opacity:0.7;}
	.st7{opacity:0.4;}
	.st8{opacity:0.5;}
	.st9{fill:#FFFFFF;}
	.st10{fill:none;stroke:#839198;stroke-miterlimit:10;}
	.st11{fill:#455A64;}
	.st12{fill:#B78876;}
	.st13{fill:#E8505B;}
	.st14{fill:none;}
</style>
<g>
	<g>
		<g>
			<g>
				<polyline class="st0" points="482.7,218.6 498.7,218.6 473.7,271.8 613.5,271.8 582.8,218.6 597.5,217.9 568,158.1 578.9,157.5 
					538.5,83 502.5,158.3 513.2,158.7 				"/>
			</g>
		</g>
		<g>
			<g>
				<g>
					<path class="st1" d="M544.6,170.4c0.2,0-0.1,45.5-0.6,101.6c-0.6,56.1-1.5,107.9-1.5,107.7c-0.1-12,0.1-51.6,0.7-107.7
						C543.8,215.9,544.4,170.4,544.6,170.4z"/>
				</g>
			</g>
		</g>
	</g>
	<g>
		<g>
			<g>
				<path class="st1" d="M561.7,189.7c0.2,0.1-3.4,5.2-8,11.4s-8.5,11.1-8.6,10.9c-0.2-0.1,3.4-5.2,8-11.4
					C557.7,194.5,561.6,189.6,561.7,189.7z"/>
			</g>
		</g>
	</g>
	<g>
		<g>
			<g>
				<path class="st1" d="M544.3,210.5c-0.1,0.2-3.7-2.5-7.9-5.9s-7.6-6.4-7.5-6.5c0.1-0.2,3.7,2.5,7.9,5.9S544.4,210.3,544.3,210.5z
					"/>
			</g>
		</g>
	</g>
	<g>
		<g>
			<g>
				<path class="st1" d="M543.3,247.5c-0.1,0.1-1.1-0.8-2.6-2.1c-1.6-1.4-3.8-3.3-6.2-5.4c-2.4-2.1-4.7-3.9-6.3-5.2
					s-2.6-2.2-2.6-2.3c0.1-0.1,1.2,0.6,2.9,1.8s4,3,6.5,5.1s4.6,4.1,6.1,5.6C542.5,246.4,543.4,247.4,543.3,247.5z"/>
			</g>
		</g>
	</g>
	<g>
		<g>
			<g>
				<path class="st1" d="M561.8,224.6c0.2,0.1-3.8,5.5-8.8,12s-9.2,11.6-9.4,11.5s3.8-5.5,8.8-12
					C557.4,229.6,561.6,224.5,561.8,224.6z"/>
			</g>
		</g>
	</g>
</g>
<g>
	<g>
		<g>
			<g>
				<g>
					<polygon class="st0" points="129.3,83 96.5,151.6 106.3,152 78.5,206.6 93.1,206.6 70.3,255 197.7,255 169.6,206.6 183.1,206 
						156.2,151.4 166.1,150.8 					"/>
				</g>
			</g>
			<g>
				<g>
					<g>
						<path class="st1" d="M134.8,162.6c0.2,0-0.1,41.4-0.6,92.5s-1.1,109.1-1.3,109.1s0.1-57.9,0.6-109.1
							C134.1,204,134.7,162.6,134.8,162.6z"/>
					</g>
				</g>
			</g>
		</g>
		<g>
			<g>
				<g>
					<path class="st1" d="M150.5,180.3c0.2,0.1-3.1,4.8-7.3,10.4c-4.2,5.6-7.7,10.1-7.8,10s3.1-4.8,7.3-10.4
						C146.8,184.6,150.3,180.1,150.5,180.3z"/>
				</g>
			</g>
		</g>
		<g>
			<g>
				<g>
					<path class="st1" d="M134.5,199.2c-0.1,0.2-3.3-2.3-7.2-5.4c-3.9-3.1-6.9-5.8-6.8-5.9c0.1-0.2,3.3,2.3,7.2,5.4
						C131.6,196.4,134.6,199,134.5,199.2z"/>
				</g>
			</g>
		</g>
		<g>
			<g>
				<g>
					<path class="st1" d="M133.7,232.8c-0.1,0.1-1-0.7-2.4-2s-3.4-3-5.7-4.9c-2.2-1.9-4.3-3.6-5.8-4.8s-2.4-2-2.3-2.1
						s1.1,0.5,2.6,1.7c1.6,1.1,3.7,2.7,5.9,4.6c2.2,1.9,4.2,3.7,5.6,5.1C132.9,231.9,133.7,232.8,133.7,232.8z"/>
				</g>
			</g>
		</g>
		<g>
			<g>
				<g>
					<path class="st1" d="M150.5,212c0.2,0.1-3.4,5-8,10.9s-8.4,10.6-8.5,10.4c-0.2-0.1,3.4-5,8-10.9S150.3,211.9,150.5,212z"/>
				</g>
			</g>
		</g>
	</g>
	<g>
		<g>
			<g>
				<g>
					<polygon class="st2" points="72.8,174.8 47.5,227.7 55,228 33.6,270 44.9,270 27.3,307.3 119.8,307.3 103.8,270 114.2,269.5 
						93.5,227.6 101.1,227.1 					"/>
				</g>
			</g>
			<g>
				<g>
					<g>
						<path class="st1" d="M77.1,236.2c0.1,0-0.1,31.9-0.4,71.3c-0.4,39.4-0.8,71.3-1,71.3c-0.1,0,0.1-31.9,0.4-71.3
							C76.5,268.1,76.9,236.2,77.1,236.2z"/>
					</g>
				</g>
			</g>
		</g>
		<g>
			<g>
				<g>
					<path class="st1" d="M89.1,249.7c0.1,0.1-2.4,3.7-5.6,8c-3.2,4.3-5.9,7.8-6,7.7c-0.1-0.1,2.4-3.7,5.6-8
						C86.3,253.1,89,249.7,89.1,249.7z"/>
				</g>
			</g>
		</g>
		<g>
			<g>
				<g>
					<path class="st1" d="M76.8,264.3c-0.1,0.1-2.6-1.7-5.6-4.2c-3-2.4-5.3-4.5-5.2-4.6c0.1-0.1,2.6,1.7,5.6,4.2
						C74.6,262.1,76.9,264.2,76.8,264.3z"/>
				</g>
			</g>
		</g>
		<g>
			<g>
				<g>
					<path class="st1" d="M76.1,290.2c-0.1,0.1-0.7-0.5-1.9-1.5c-1.1-1-2.6-2.3-4.4-3.8c-1.7-1.5-3.3-2.7-4.4-3.7
						c-1.1-0.9-1.8-1.5-1.8-1.6s0.8,0.4,2,1.3s2.8,2.1,4.6,3.6c1.7,1.5,3.2,2.9,4.3,3.9C75.6,289.5,76.2,290.2,76.1,290.2z"/>
				</g>
			</g>
		</g>
		<g>
			<g>
				<g>
					<path class="st1" d="M89.1,274.2c0.1,0.1-2.6,3.9-6.2,8.4c-3.5,4.5-6.5,8.1-6.6,8s2.6-3.9,6.2-8.4
						C86,277.7,89,274.1,89.1,274.2z"/>
				</g>
			</g>
		</g>
	</g>
</g>
<g>
	<g>
		<path class="st0" d="M509.8,386.6c-33.3,25.9-78,29.5-119.5,25.9s-82.7-13.5-124.2-11c-23.5,1.5-46.8,6.9-70.3,7.3
			c-23.6,0.4-48.6-4.9-65.6-21.8L509.8,386.6z"/>
	</g>
</g>
<g>
	<g>
		<g>
			<path class="st2" d="M198.1,132.4h112.5c0,0-10-18.8-38.9-16c-27.7,2.6-29.1-9.2-43.1-10.7C214.5,104.2,202.8,115.4,198.1,132.4z
				"/>
		</g>
	</g>
</g>
<g>
	<g>
		<g>
			<path class="st0" d="M298.3,164.5h61.4c0,0-5.4-10.2-21.2-8.7c-15.1,1.4-15.8-5-23.5-5.8C307.3,149.2,300.9,155.2,298.3,164.5z"
				/>
		</g>
	</g>
</g>
<g>
	<g>
		<g>
			<path class="st3" d="M362.2,105h61.4c0,0-5.4-10.2-21.2-8.7c-15.1,1.4-15.8-5-23.5-5.8C371.2,89.6,364.8,95.7,362.2,105z"/>
		</g>
	</g>
</g>
<g>
	<g>
		<g>
			<path class="st4" d="M609.4,379.4c44.8,0.7-79.7,0.9-291.9,0.2c-161.3-0.6-291.9-0.1-291.9-0.2s130.7-0.2,291.9-0.2
				C478.7,379.1,609.2,379.4,609.4,379.4z"/>
		</g>
	</g>
</g>
<g>
	<g>
		<g>
			<g>
				<g>
					<path class="st5" d="M528.4,300.6L528.4,300.6c8.3,9.3,8.9,23.7,1,33.4c-3.4,4.2-7.7,7.6-12.6,9.9l-41.9,19.6l-29.6,4.7
						l-387.2-2.5l-24.3-4.9c-11.7-2.4-20.1-13.1-19.9-25.4l0.2-17.5c0-2.7,1.7-5,4.2-5.8l1.7-0.5c0,0,1.4-17.1,11.4-21
						c36.3-16.2,60.4-21.4,121.2-24.1l51.4-31.8c0,0,20.7-13.7,40.1-15.5c19.3-1.8,63.1-1.8,83.1-0.6c23.5,1.4,53.4,12.5,70,21.1
						c13,6.7,44.4,23.3,44.4,23.3l17.8,3.1c2.7,0.1,51.7,3.2,57.3,4.1c3.3,0.5,7.5,3.1,8.9,7.9s2.6,22.5,2.6,22.5"/>
				</g>
			</g>
			<g>
				<g>
					<path class="st4" d="M379.7,240.1c-8.4-4.3-30.8-10.3-43.4-12.8c-12.6-2.4-38.1-2.8-48.3-2.5c-10.2,0.3-38.5,0.8-53.5,5.2
						c-7.7,2.3-20,8.9-27.3,14.4c-2.5,1.9-13.5,10.8-15.9,12.9l-19,18.4l233.5-7.6c0,0,1.4-8.4-2.9-13.3
						C398.8,249.8,379.7,240.1,379.7,240.1z"/>
				</g>
			</g>
			<g>
				<g>
					<g>
						<g>
							<g>
								<path class="st3" d="M33.3,310.1l-11.8-0.2c0.5-3.3,2-12.1,7.1-17l15.6,0.2c2.9,0,4.6,3.3,3.1,5.8l-2.8,4.8
									C42.1,307.8,37.8,310.2,33.3,310.1z"/>
							</g>
						</g>
					</g>
				</g>
				<g>
					<g>
						<g>
							<g>
								<path class="st1" d="M34.7,309.4c1.2-5.4,2.8-12.5,7.2-16.3h2.3c2.9,0,4.6,3.3,3.1,5.8l-2.9,4.8c-2.1,3.6-5.8,5.9-9.9,6.3
									C34.6,309.8,34.7,309.6,34.7,309.4z"/>
							</g>
						</g>
					</g>
				</g>
			</g>
			<g>
				<g class="st6">
					<g>
						<g>
							<g>
								<path d="M149.4,366.1c1.2-6.1,1.5-12.6,0.8-19.2c-3.1-27.2-20.2-46.7-46.2-47.1c-22.6-0.3-41.2,14.3-45,41.4
									c-1.1,8.1-0.8,16.4,0.8,24.3L149.4,366.1z"/>
							</g>
						</g>
					</g>
				</g>
				<g class="st6">
					<g>
						<g>
							<g>
								<path d="M476.1,363.3c0-1-0.1-2-0.1-3.1c-0.5-34.3-22.7-58.1-49.1-58.5c-24.1-0.4-44,19.7-44.4,44.7
									c-0.1,7.6-0.5,14.8,0.4,21.2l63.6,0.4L476.1,363.3z"/>
							</g>
						</g>
					</g>
				</g>
			</g>
			<g>
				<g>
					<g>
						<g>
							<g>
								<path class="st4" d="M388.1,346.5c-0.3,21.8,16.5,39.8,37.6,40.1c21.1,0.3,38.4-17.1,38.7-39c0.3-21.8-16.5-39.8-37.6-40.1
									C405.8,307.2,388.4,324.7,388.1,346.5z"/>
							</g>
						</g>
					</g>
				</g>
				<g>
					<g>
						<g>
							<g>
								<path class="st4" d="M388.1,346.4v0.1c-0.3,21.8,16.5,39.8,37.6,40.1c21.1,0.3,38.4-17.1,38.7-39v-0.1L388.1,346.4z"/>
							</g>
						</g>
					</g>
				</g>
				<g>
					<g>
						<g>
							<g>
								<path class="st3" d="M399.5,346.7c-0.2,15.3,11.6,27.9,26.4,28.1s26.9-12,27.2-27.3c0.2-15.3-11.6-27.9-26.4-28.1
									C411.9,319.1,399.7,331.3,399.5,346.7z"/>
							</g>
						</g>
					</g>
				</g>
				<g>
					<g>
						<g>
							<g>
								<path class="st1" d="M426.6,319.3c-14.8-0.2-26.9,12-27.2,27.3l53.5,0.8C453.2,332.1,441.4,319.5,426.6,319.3z"/>
							</g>
						</g>
					</g>
				</g>
				<g>
					<g>
						<g>
							<g>
								<path class="st4" d="M409.9,346.8c-0.1,9.3,7.1,17,16.1,17.1s16.4-7.3,16.5-16.7c0.1-9.3-7.1-17-16.1-17.1
									C417.5,330,410.1,337.5,409.9,346.8z"/>
							</g>
						</g>
					</g>
				</g>
			</g>
			<g>
				<g>
					<g>
						<g>
							<g>
								<ellipse class="st4" cx="104.8" cy="348.1" rx="38.1" ry="39.5"/>
							</g>
						</g>
					</g>
				</g>
				<g>
					<g>
						<g>
							<g>
								<path class="st4" d="M66.7,347.4v0.1c-0.3,21.8,16.5,39.8,37.6,40.1c21.1,0.3,38.4-17.1,38.7-39v-0.1L66.7,347.4z"/>
							</g>
						</g>
					</g>
				</g>
				<g>
					<g>
						<g>
							<g>
								<path class="st3" d="M78,347.7c-0.2,15.3,11.6,27.9,26.4,28.1s26.9-12,27.2-27.3c0.2-15.3-11.6-27.9-26.4-28.1
									C90.4,320.1,78.2,332.4,78,347.7z"/>
							</g>
						</g>
					</g>
				</g>
				<g>
					<g>
						<g>
							<g>
								<path class="st1" d="M105.2,320.3c-14.8-0.2-26.9,12-27.2,27.3l53.5,0.8C131.8,333.2,119.9,320.6,105.2,320.3z"/>
							</g>
						</g>
					</g>
				</g>
				<g>
					<g>
						<g>
							<g>
								<path class="st4" d="M88.5,347.8c-0.1,9.3,7.1,17,16.1,17.1s16.4-7.3,16.5-16.7c0.1-9.3-7.1-17-16.1-17.1
									C96,331,88.6,338.5,88.5,347.8z"/>
							</g>
						</g>
					</g>
				</g>
			</g>
			<g class="st7">
				<g>
					<g>
						<g>
							<path d="M31,339c-0.1,4.4-2.2,8-4.8,7.9c-2.6,0-4.7-3.7-4.6-8.1s2.2-8,4.8-7.9S31.1,334.6,31,339z"/>
						</g>
					</g>
				</g>
			</g>
			<g>
				<g>
					<g>
						<g>
							<g>
								<path class="st4" d="M529.6,300.2c0,0-0.3,0-0.7,0.1c-0.5,0-1.2,0-2.1,0.1c-1.8,0.1-4.5,0.1-7.7,0.2
									c-3.3,0.1-7.2,0.3-11.5,0.7c-4.3,0.4-9,0.9-13.9,2.1c-2.4,0.6-4.7,1.4-6.8,2.4c-2.1,1.1-3.9,2.4-5.6,3.8
									c-3.4,2.7-6,5.8-8.3,8.2c-2.3,2.4-4.4,4.2-6,5.2c-0.8,0.5-1.4,0.8-1.9,1.1c-0.4,0.2-0.7,0.3-0.7,0.3c0-0.1,0.9-0.5,2.4-1.5
									s3.5-2.8,5.8-5.2c2.3-2.4,4.8-5.5,8.3-8.3c1.7-1.4,3.5-2.8,5.7-3.9c2.1-1.1,4.5-1.9,6.9-2.5c4.9-1.2,9.7-1.7,14-2.1
									c4.3-0.3,8.2-0.5,11.5-0.6c3.3-0.1,5.9-0.1,7.8-0.1c0.9,0,1.6,0,2.1,0C529.4,300.2,529.6,300.2,529.6,300.2z"/>
							</g>
						</g>
					</g>
				</g>
			</g>
			<g class="st8">
				<g>
					<g>
						<g>
							<g>
								<path class="st9" d="M474.9,364c0,0,0.2-0.1,0.5-0.3s0.7-0.5,1.3-1c1.1-0.9,2.5-2.6,3.5-5.2c1.1-2.5,1.6-6,1.2-9.9
									c-0.3-3.9-1.2-8.4-2.5-13.1c-1.4-4.8-3.3-9.8-6.1-14.9c-2.8-5-6.6-10-11.3-14.3c-4.8-4.3-10.5-7.9-17.1-10
									s-13.8-2.7-21.1-1.9c-7.3,0.8-14.2,2.7-20.5,5.5s-12,6.7-16.3,11.5s-7.3,10.3-9.3,15.8c-2,5.4-3.2,10.8-4,15.7
									c-0.4,2.5-0.7,4.8-0.8,7c-0.2,2.2-0.3,4.3-0.3,6.3c0.1,3.9,1.4,7.3,3.3,9.2c1.9,2,4,2.7,5.4,2.8c1.4,0.1,2.1-0.3,2.1-0.2
									c0,0-0.2,0.1-0.5,0.2c-0.4,0.1-0.9,0.2-1.6,0.2c-1.4-0.1-3.6-0.7-5.5-2.7c-2-1.9-3.3-5.4-3.4-9.3c-0.1-2,0-4.1,0.2-6.3
									c0.2-2.2,0.5-4.6,0.8-7.1c0.7-4.9,1.9-10.3,3.9-15.8c1-2.7,2.3-5.5,3.8-8.2s3.4-5.3,5.6-7.7c4.3-4.9,10-8.8,16.4-11.6
									c6.4-2.8,13.4-4.8,20.7-5.6c7.3-0.8,14.6-0.2,21.3,1.9c6.7,2.1,12.5,5.8,17.3,10.1c4.8,4.3,8.6,9.4,11.4,14.5
									s4.8,10.2,6.1,15c1.3,4.8,2.2,9.2,2.5,13.2s-0.2,7.5-1.3,10c-1.1,2.6-2.6,4.2-3.6,5.2C475.6,363.7,474.9,364,474.9,364z"/>
							</g>
						</g>
					</g>
				</g>
			</g>
			<g>
				<g>
					<g>
						<g>
							<g>
								<path class="st10" d="M401.2,355.8"/>
							</g>
						</g>
					</g>
				</g>
			</g>
			<g>
				<g>
					<g>
						<g>
							<g>
								<path class="st4" d="M59.8,341.2c0,0-0.4-0.5-1.2-1.5s-2-2.3-3.7-3.7c-3.3-2.9-8.8-5.9-15.4-7.3c-6.5-1.4-12.6-1.3-17-1.1
									c-2.2,0.1-4,0.2-5.2,0.3c-1.2,0.1-1.9,0.1-1.9,0.1s0.2-0.1,0.5-0.1c0.4-0.1,0.8-0.1,1.4-0.2c1.2-0.1,3-0.3,5.2-0.4
									c4.4-0.3,10.5-0.4,17.1,1s12.2,4.5,15.5,7.5c1.7,1.5,2.9,2.9,3.6,3.9c0.4,0.5,0.6,0.9,0.8,1.2
									C59.7,341,59.8,341.1,59.8,341.2z"/>
							</g>
						</g>
					</g>
				</g>
			</g>
			<g>
				<g>
					<g>
						<g>
							<g>
								<path class="st4" d="M59.5,311.7c0,0.2-9.1,0.1-20.3,0c-11.2-0.2-20.3-0.4-20.3-0.6s9.1-0.1,20.3,0
									C50.4,311.3,59.5,311.6,59.5,311.7z"/>
							</g>
						</g>
					</g>
				</g>
			</g>
			<g class="st8">
				<g>
					<g>
						<g>
							<g>
								<path class="st9" d="M162.7,362c0,0,0-0.2,0-0.5c0-0.4,0-0.9,0-1.6s0-1.6-0.1-2.6c0-1-0.1-2.2-0.2-3.5
									c-0.4-5.3-1.6-12.9-4.6-21.8c-1.5-4.5-3.5-9.2-6.1-14.1s-5.6-9.9-9.7-14.6c-4-4.6-9.2-8.6-15.3-11.2c-6-2.6-12.8-4-19.7-4.2
									c-3.5-0.1-6.9,0.2-10.2,0.8c-3.3,0.6-6.6,1.4-9.7,2.5c-3.1,1.2-6.1,2.4-8.8,4l-1,0.6l-1,0.6c-0.7,0.4-1.3,0.8-2,1.2
									c-0.6,0.5-1.3,0.9-1.9,1.3l-0.9,0.7l-0.9,0.7c-4.8,3.8-8.7,8.2-11.7,12.8c-3,4.6-5.2,9.3-6.7,13.7c-1.5,4.4-2.4,8.6-3,12.3
									c-0.2,1.9-0.4,3.6-0.5,5.2s-0.1,3.1-0.1,4.4s0.1,2.5,0.2,3.5c0.1,1,0.2,1.9,0.3,2.6s0.1,1.2,0.2,1.6c0,0.4,0.1,0.5,0.1,0.5
									s0-0.2-0.1-0.5c-0.1-0.4-0.1-0.9-0.2-1.6c-0.1-0.7-0.3-1.5-0.3-2.6c-0.1-1-0.2-2.2-0.2-3.5s-0.1-2.8,0-4.4
									c0-1.6,0.2-3.4,0.4-5.2c0.5-3.7,1.4-8,2.9-12.4c1.5-4.5,3.7-9.2,6.7-13.8c3-4.6,6.9-9.1,11.7-13l0.9-0.7l0.9-0.7
									c0.6-0.5,1.3-0.9,1.9-1.4c0.7-0.4,1.3-0.8,2-1.3l1-0.6l1-0.6c2.8-1.6,5.8-2.9,8.9-4s6.4-1.9,9.8-2.5
									c3.4-0.5,6.8-0.8,10.3-0.8c7,0.2,13.8,1.6,19.9,4.3c6.1,2.6,11.4,6.6,15.4,11.3c4.1,4.7,7.1,9.8,9.7,14.7
									c2.5,4.9,4.5,9.7,6,14.2c3,9,4.1,16.7,4.5,21.9C162.9,359.1,162.7,362,162.7,362z"/>
							</g>
						</g>
					</g>
				</g>
			</g>
			<g>
				<g>
					<g>
						<g>
							<g>
								<path class="st4" d="M460.8,266c0,0,0,0.2,0,0.6c-0.1,0.4-0.1,1-0.2,1.6c-0.2,1.4-0.5,3.5-0.7,6s-0.2,5.6,0.4,8.9
									s2.2,6.7,4.8,9.5c2.6,2.8,5.8,4.7,8.8,6s5.9,2,8.3,2.5s4.4,0.8,5.8,1c0.6,0.1,1.1,0.2,1.6,0.3c0.4,0.1,0.5,0.1,0.5,0.1
									s-0.2,0-0.6,0s-0.9-0.1-1.6-0.2c-1.4-0.2-3.4-0.4-5.8-0.9s-5.4-1.1-8.4-2.4c-3.1-1.3-6.3-3.2-9-6s-4.3-6.5-4.9-9.8
									c-0.6-3.4-0.5-6.5-0.3-9.1s0.6-4.6,0.8-6c0.1-0.7,0.2-1.3,0.3-1.6C460.8,266.2,460.8,266,460.8,266z"/>
							</g>
						</g>
					</g>
				</g>
			</g>
			<g>
				<g>
					<g>
						<g>
							<g>
								<path class="st4" d="M267.1,287.7c0,0,0.2,0,0.5-0.1c0.3,0,0.8,0,1.4,0.1s1.4,0.4,1.9,1.2c0.5,0.7,0.7,1.9,0.2,3
									s-1.5,1.9-2.8,2.2c-1.2,0.4-2.6,0.3-4,0.2c-2.8-0.2-5.8-0.3-9-0.5c-0.8-0.1-1.6-0.1-2.4-0.5c-0.8-0.3-1.5-0.9-1.7-1.8
									c-0.3-0.9,0-1.8,0.4-2.4c0.5-0.7,1.1-1.1,1.8-1.4c1.4-0.5,2.7-0.4,4-0.4c1.2,0,2.4,0,3.4,0.1c2,0.1,3.7,0.2,4.9,0.2
									c1.2,0,1.8,0.1,1.8,0.1C267.6,287.7,267.4,287.7,267.1,287.7c-0.3,0.1-0.8,0.1-1.4,0.1c-1.2,0-2.9,0-4.9,0c-1,0-2.2,0-3.4,0
									c-1.2,0-2.6,0-3.8,0.4c-0.6,0.2-1.2,0.6-1.6,1.2c-0.4,0.6-0.6,1.3-0.4,1.9c0.2,0.6,0.8,1.2,1.4,1.5c0.7,0.3,1.4,0.4,2.2,0.4
									c3.2,0.2,6.2,0.4,9,0.6c1.4,0.1,2.7,0.2,3.8-0.1c1.1-0.3,2.1-1,2.5-1.9c0.5-0.9,0.3-1.9-0.1-2.6s-1.1-1-1.6-1.1
									C267.8,287.7,267.1,287.7,267.1,287.7z"/>
							</g>
						</g>
					</g>
				</g>
			</g>
			<g>
				<g>
					<g>
						<g>
							<g>
								<path class="st4" d="M387.7,286.6c0,0,0.2,0,0.5-0.1c0.3,0,0.8,0,1.4,0.1s1.4,0.4,1.9,1.2c0.5,0.7,0.7,1.9,0.2,3
									s-1.5,1.9-2.8,2.2c-1.2,0.4-2.6,0.3-4,0.2c-2.8-0.2-5.8-0.3-9-0.5c-0.8-0.1-1.6-0.1-2.4-0.5c-0.8-0.3-1.5-0.9-1.7-1.8
									c-0.3-0.9,0-1.8,0.4-2.4c0.5-0.7,1.1-1.1,1.8-1.4c1.4-0.5,2.7-0.4,4-0.4c1.2,0,2.4,0,3.4,0.1c2,0.1,3.7,0.2,4.9,0.2
									c1.2,0,1.8,0.1,1.8,0.1C388.2,286.6,388,286.7,387.7,286.6c-0.3,0.1-0.8,0.1-1.4,0.1c-1.2,0-2.9,0-4.9,0c-1,0-2.2,0-3.4,0
									c-1.2,0-2.6,0-3.8,0.4c-0.6,0.2-1.2,0.6-1.6,1.2s-0.6,1.3-0.4,1.9s0.8,1.2,1.4,1.5c0.7,0.3,1.4,0.4,2.2,0.4
									c3.2,0.2,6.2,0.4,9,0.6c1.4,0.1,2.7,0.2,3.8-0.1c1.1-0.3,2.1-1,2.5-1.9c0.5-0.9,0.3-1.9-0.1-2.6s-1.1-1-1.6-1.1
									C388.4,286.7,387.7,286.7,387.7,286.6z"/>
							</g>
						</g>
					</g>
				</g>
			</g>
			<g>
				<g>
					<g>
						<path class="st4" d="M405.9,268c0,0,0,0.2-0.1,0.5s-0.2,0.8-0.4,1.5c-0.4,1.3-0.9,3.2-1.5,5.7c-1.4,5-3.3,12.3-5.9,21.6v0.1
							h-0.1c-3.9,1.9-7.9,4.5-11.7,8.1c-1.9,1.8-3.7,3.8-5.5,6c-1.7,2.2-3.3,4.7-4.8,7.3c-2.9,5.3-5.2,11.4-6.8,18
							c-1.6,6.6-2.6,13.7-2.6,21.1v0.2h-0.2c-25.2,0-54.5,0-85.5,0c-41.5,0-79.8,0-110.3-0.1h-0.2v-0.2c-2.8-23.4-4.5-42.7-5.6-56.2
							c-0.5-6.7-0.9-12-1.1-15.5c-0.1-1.8-0.2-3.1-0.3-4.1c-0.1-0.9-0.1-1.4-0.1-1.4s0.1,0.5,0.1,1.4c0.1,0.9,0.2,2.3,0.3,4.1
							c0.3,3.6,0.7,8.8,1.2,15.5c1.1,13.4,2.9,32.7,5.7,56.1l-0.2-0.2c30.5,0,68.8,0,110.3-0.1c31,0,60.3,0,85.5,0l-0.2,0.2
							c0-7.5,1.1-14.6,2.7-21.2s4-12.7,6.9-18c1.5-2.6,3.1-5.1,4.8-7.4c1.8-2.2,3.6-4.3,5.5-6c3.8-3.6,7.9-6.2,11.8-8.1l-0.1,0.1
							c2.6-9.3,4.6-16.6,6-21.6c0.7-2.5,1.2-4.4,1.6-5.7c0.2-0.6,0.3-1.1,0.4-1.5C405.8,268.2,405.9,268,405.9,268z"/>
					</g>
				</g>
			</g>
			<g>
				<g>
					<g>
						<path class="st4" d="M283,272.5c0,0,0,0.1,0,0.2c0,0.2,0,0.4-0.1,0.6c-0.1,0.6-0.2,1.4-0.3,2.5c-0.1,1.1-0.3,2.4-0.5,3.9
							s-0.4,3.3-0.5,5.2c-0.2,1.9-0.4,4-0.5,6.3c-0.2,2.3-0.3,4.7-0.4,7.3c-0.2,5.1-0.2,10.7,0,16.7c0.2,5.9,0.6,11.5,1.1,16.6
							c0.3,2.5,0.5,5,0.8,7.2c0.3,2.3,0.6,4.3,0.9,6.3c0.3,1.9,0.6,3.6,0.9,5.2c0.3,1.5,0.5,2.8,0.7,3.9c0.2,1,0.3,1.9,0.5,2.5
							c0,0.3,0.1,0.5,0.1,0.6s0,0.2,0,0.2s0-0.1-0.1-0.2c0-0.2-0.1-0.4-0.2-0.6c-0.1-0.6-0.3-1.4-0.5-2.4c-0.2-1.1-0.5-2.3-0.8-3.9
							c-0.3-1.5-0.6-3.2-0.9-5.1s-0.7-4-0.9-6.3c-0.3-2.3-0.6-4.7-0.9-7.2c-0.5-5.1-0.9-10.7-1.1-16.7c-0.2-5.9-0.1-11.6,0.1-16.7
							c0.1-2.6,0.2-5,0.4-7.3c0.1-2.3,0.3-4.4,0.5-6.3s0.4-3.7,0.6-5.2s0.4-2.8,0.5-3.9c0.2-1,0.3-1.9,0.4-2.5
							c0.1-0.3,0.1-0.5,0.1-0.6C282.9,272.6,283,272.5,283,272.5z"/>
					</g>
				</g>
			</g>
			<g>
				<g>
					<path class="st4" d="M164.3,270c-2.7,2.1-6.8,2.6-10.1,1.9s-6-2.3-7.7-5.4l7.5-0.4L164.3,270z"/>
				</g>
			</g>
			<g>
				<g>
					<path class="st11" d="M154,266.2c0,0,7.6,4.8,9.8,4.1c2.2-0.6,37.5-29.6,58.8-40.7c0,0-2.8-1.2-6.5-1.5c0,0-9.9,5.2-22.3,12.9
						c-9.4,5.9-19,12-23.4,14.8C160.6,262,154,266.2,154,266.2z"/>
				</g>
			</g>
			<g>
				<g>
					<g>
						<path class="st4" d="M178.2,272.3c0,0-0.1,0.1-0.2,0.2c-0.2,0.1-0.4,0.3-0.7,0.4c-0.7,0.4-1.6,1-2.9,1.7
							c-2.6,1.5-6.3,3.6-10.9,6.3l0,0l0,0c-6.9-0.3-15.6-0.4-25.7,0c-5,0.2-10.4,0.6-16,1.2s-11.4,1.4-17.3,2.4
							c-10.4,1.7-20.2,3.8-29.2,5.5s-17.2,2.6-24.1,3s-12.5,0.3-16.4,0.2c-1.9-0.1-3.4-0.1-4.4-0.2c-0.5,0-0.9-0.1-1.1-0.1
							c-0.3,0-0.4,0-0.4,0s0.1,0,0.4,0s0.7,0,1.2,0c1,0,2.5,0.1,4.4,0.1c3.9,0.1,9.4,0.1,16.3-0.3s15.1-1.4,24-3.1
							c9-1.7,18.8-3.9,29.2-5.6c5.9-1,11.8-1.8,17.3-2.4c5.6-0.6,11-0.9,16-1.2c10.1-0.4,18.9-0.2,25.8,0.1h-0.1
							c4.7-2.7,8.4-4.8,11-6.2c1.3-0.7,2.2-1.3,2.9-1.6C177.6,272.5,177.9,272.4,178.2,272.3C178.1,272.3,178.2,272.3,178.2,272.3z"
							/>
					</g>
				</g>
			</g>
			<g>
				<g>
					<path class="st11" d="M186.2,273.2c53.6-2.5,161.7-4.5,215.3-7c0,0,1.8-6.1-3.3-9.9c-1.8-1.4-13-10.1-26-15.3
						c-20.4-8.1-41.2-11.3-49.5-12c-9.5-0.8-27-1.5-27-1.5s-32,1.3-40.9,2.2c-13.1,1.2-24.2,4.9-32.4,9.1
						c-11.2,5.7-30.6,22.6-30.6,22.6l-13.7,11.8H186.2L186.2,273.2z"/>
				</g>
			</g>
			<g>
				<g>
					<polygon class="st4" points="284.8,225.9 274.5,271.7 293.2,271.1 297,225.9 					"/>
				</g>
			</g>
			<g>
				<g>
					<polygon class="st4" points="365.9,237 364.1,268 366.7,268 368.5,237.9 					"/>
				</g>
			</g>
			<g>
				<g>
					<path class="st4" d="M188.2,262.7c0.8,1.1,5.6,12.2,5.6,12.2l-18.1-1.2L188.2,262.7z"/>
				</g>
			</g>
			<g>
				<g>
					<g>
						<g>
							<g>
								<path class="st5" d="M205.2,273.8l-13.8,0.4c-1.8,0-3.3-3.4-3.2-7.5l0,0c0.1-3.7,1.3-6.8,2.9-7.3l13.1-4.3L205.2,273.8z"/>
							</g>
						</g>
					</g>
				</g>
			</g>
			<g>
				<g>
					<g>
						<path class="st11" d="M290.7,225.3c0.1,0-1.3,10.5-3.3,23.3c-1.9,12.9-3.6,23.3-3.7,23.3s1.3-10.5,3.3-23.3
							C288.9,235.7,290.6,225.3,290.7,225.3z"/>
					</g>
				</g>
			</g>
			<g>
				<g>
					<g>
						<path class="st11" d="M188.8,262c0.1,0-0.7,2.3-2.1,4.7c-1.5,2.5-3,4.2-3.1,4.1s1.3-1.9,2.7-4.3
							C187.7,264.1,188.7,262,188.8,262z"/>
					</g>
				</g>
			</g>
			<g>
				<g>
					<g>
						<path class="st2" d="M265.3,234.2c0,0-0.1,0.1-0.2,0.4c-0.2,0.3-0.4,0.6-0.6,1c-0.6,0.9-1.4,2.2-2.4,3.8
							c-2,3.2-4.9,7.6-7.9,12.4c-3.1,4.9-5.8,9.3-7.8,12.5c-1,1.6-1.8,2.8-2.4,3.8c-0.3,0.4-0.5,0.7-0.7,1c-0.2,0.2-0.2,0.4-0.3,0.3
							c0,0,0.1-0.1,0.2-0.4c0.2-0.3,0.4-0.6,0.6-1.1c0.5-0.9,1.3-2.2,2.2-3.9c1.9-3.3,4.6-7.7,7.7-12.6c3.1-4.9,5.9-9.2,8.1-12.4
							c1.1-1.6,1.9-2.8,2.5-3.7c0.3-0.4,0.5-0.7,0.7-1C265.2,234.3,265.2,234.2,265.3,234.2z"/>
					</g>
				</g>
			</g>
			<g>
				<g>
					<g>
						<path class="st2" d="M257.4,241.1c0.1,0.1-1.8,3-4.2,6.5s-4.5,6.3-4.6,6.3c-0.1-0.1,1.8-3,4.2-6.5
							C255.3,243.9,257.3,241.1,257.4,241.1z"/>
					</g>
				</g>
			</g>
			<g>
				<g>
					<g>
						<g>
							<path class="st0" d="M529.5,297.8c0,0-4.4,0.3-7.8-1.2c-5.3-2.4-7.9-8.9-5.3-14.3c0,0,0-0.1,0.1-0.1c1.6-3.3,4.9-5.7,8.4-5.7
								h1.9c0,0,0.8,1.4,1.2,4.6C528.4,285.3,529.1,291.7,529.5,297.8z"/>
						</g>
					</g>
				</g>
			</g>
		</g>
		<g>
			<g>
				<g>
					<path class="st2" d="M332.6,235.7c0.1,0.1-4,6.9-9.1,15.3c-5.1,8.4-9.4,15.2-9.5,15.1s4-6.9,9.1-15.3S332.5,235.6,332.6,235.7z
						"/>
				</g>
			</g>
		</g>
		<g>
			<g>
				<g>
					<path class="st2" d="M331.2,244.4c0.1,0.1-1.3,2.5-3.1,5.3c-1.8,2.9-3.3,5.2-3.4,5.1c-0.1-0.1,1.3-2.5,3.1-5.3
						C329.6,246.6,331.1,244.3,331.2,244.4z"/>
				</g>
			</g>
		</g>
	</g>
	<g>
		<g>
			<g>
				<path class="st2" d="M257.3,251.2c0,0.1-2.2,1.2-5.2,2.1c-3,0.9-5.4,1.3-5.5,1.2c0-0.1,2.4-0.7,5.3-1.6
					C254.9,251.9,257.3,251,257.3,251.2z"/>
			</g>
		</g>
	</g>
	<g>
		<g>
			<g>
				<path class="st2" d="M331.5,270.6c0,0.1-22.5,0.2-50.2,0.2s-50.2-0.1-50.2-0.2s22.5-0.2,50.2-0.2
					C309,270.3,331.5,270.4,331.5,270.6z"/>
			</g>
		</g>
	</g>
	<g>
		<g>
			<g>
				<path class="st2" d="M324.1,279.8c0,0.1-3.3,0.2-7.3,0.2s-7.3-0.1-7.3-0.2s3.3-0.2,7.3-0.2C320.9,279.6,324.1,279.7,324.1,279.8
					z"/>
			</g>
		</g>
	</g>
	<g>
		<g>
			<g>
				<path class="st2" d="M160.8,290.3c0,0-0.2,0-0.6,0c-0.4,0-0.9,0-1.6,0c-1.4,0-3.4,0.1-5.8,0.4c-4.9,0.6-11.6,2.4-18.1,6.5
					c-6.4,4.1-11.1,9.5-13.8,13.7c-1.4,2.1-2.4,3.9-3,5.2c-0.3,0.6-0.5,1.1-0.7,1.5c-0.2,0.3-0.3,0.5-0.3,0.5s0.1-0.2,0.2-0.5
					c0.2-0.4,0.3-0.9,0.6-1.5c0.6-1.3,1.5-3.2,2.9-5.3c2.7-4.3,7.3-9.8,13.8-13.9s13.3-5.9,18.3-6.4c2.5-0.3,4.5-0.3,5.9-0.2
					c0.7,0,1.2,0.1,1.6,0.1C160.6,290.3,160.8,290.3,160.8,290.3z"/>
			</g>
		</g>
	</g>
	<g>
		<g>
			<g>
				<path class="st2" d="M417.7,268.1c0,0.1-14.9,0.2-33.3,0.2s-33.3-0.1-33.3-0.2s14.9-0.2,33.3-0.2
					C402.8,267.9,417.7,268,417.7,268.1z"/>
			</g>
		</g>
	</g>
	<g>
		<g>
			<g>
				<path class="st2" d="M446.9,278.5c0,0.1-0.9,0.1-2.4,0c-1.5,0-3.5-0.1-5.8-0.1s-4.3,0-5.8,0s-2.4,0-2.4,0s0.9-0.2,2.4-0.3
					c1.5-0.1,3.5-0.2,5.8-0.2s4.3,0.1,5.8,0.2C446,278.3,446.9,278.4,446.9,278.5z"/>
			</g>
		</g>
	</g>
</g>
<g>
	<g>
		<g>
			<path class="st12" d="M451,231.6"/>
			<path class="st12" d="M457.6,210.2"/>
		</g>
	</g>
	<g>
		<g>
			<g>
				<g>
					<g>
						<g>
							<path class="st4" d="M522.3,379.5c0.4-0.2,0.8-0.1,0.8,0s-0.4,0-0.8,0.1"/>
						</g>
					</g>
				</g>
			</g>
		</g>
		<g>
			<g>
				<g>
					<g class="st7">
						<g>
							<g>
								<g>
									<path d="M486.9,379.3l-4.5,0.1"/>
								</g>
							</g>
						</g>
					</g>
				</g>
			</g>
		</g>
		<g>
			<g>
				<g>
					<g>
						<g>
							<path class="st11" d="M486.3,191.2"/>
						</g>
					</g>
				</g>
				<g>
					<g>
						<g>
							<path class="st11" d="M489.2,191.1"/>
						</g>
					</g>
				</g>
				<g>
					<g>
						<g>
							<path class="st3" d="M486,213.3"/>
							<path class="st3" d="M486,212.9"/>
						</g>
					</g>
				</g>
				<g>
					<g>
						<g>
							<path class="st3" d="M486.3,215.4c9,0,16.2,0,16.2,0.2c0,0.1-7.3,0.2-16.2,0.2"/>
						</g>
					</g>
				</g>
				<g>
					<g>
						<g>
							<path class="st3" d="M486.1,218c9.2-0.1,16.7-0.1,16.7,0.1c0,0.1-7.5,0.3-16.6,0.4"/>
						</g>
					</g>
				</g>
				<g>
					<g>
						<g>
							<path class="st3" d="M513.3,203.5c0,0-0.5,0.6-1.4,1.6c-0.9,0.9-2.2,2.2-3.7,3.5s-2.9,2.4-3.9,3.2s-1.7,1.2-1.7,1.2
								c0-0.1,0.6-0.6,1.5-1.4c1.1-0.9,2.4-2.1,3.8-3.3s2.7-2.4,3.7-3.3C512.7,204,513.3,203.5,513.3,203.5z"/>
						</g>
					</g>
				</g>
				<g>
					<g>
						<g>
							<path class="st3" d="M515.3,205.7c0,0.1-0.6,0.7-1.6,1.7c-1.1,1-2.6,2.3-4.3,3.7c-1.7,1.4-3.3,2.5-4.5,3.3s-2,1.3-2,1.2
								s0.7-0.6,1.8-1.5c1.1-0.9,2.7-2.1,4.4-3.5c1.7-1.4,3.2-2.6,4.4-3.6C514.5,206.3,515.2,205.7,515.3,205.7z"/>
						</g>
					</g>
				</g>
				<g>
					<g>
						<g>
							<path class="st3" d="M516.3,207.8c0.1,0.1-2.5,2.5-5.8,5.4s-6,5.2-6.1,5.1c-0.1-0.1,2.5-2.5,5.8-5.4
								C513.5,210,516.2,207.7,516.3,207.8z"/>
						</g>
					</g>
				</g>
				<g>
					<g>
						<g>
							<path class="st3" d="M461.3,206.1c-0.8-0.9-1.2-1.5-1.2-1.6c0.1,0,0.6,0.5,1.4,1.3"/>
						</g>
					</g>
				</g>
				<g>
					<g>
						<g>
							<path class="st3" d="M459.6,208.3c-0.8-1-1.3-1.7-1.3-1.7c0.1,0,0.6,0.5,1.5,1.5"/>
						</g>
					</g>
				</g>
				<g>
					<g>
						<g>
							<path class="st3" d="M462,214c-1.5-1.4-2.8-2.6-3.8-3.5s-1.6-1.4-1.5-1.5c0-0.1,0.7,0.4,1.7,1.2s2.4,2,3.9,3.4"/>
						</g>
					</g>
				</g>
			</g>
		</g>
	</g>
</g>
<g>
	<g>
		<g>
			<g>
				<path class="st13" d="M593.3,328.6c2.2,1.1,3.9,3.3,4.7,5.7c0.8,2.4,0.8,5,0.5,7.6c-0.6,4.9-3.4,9.8-6.4,13.7
					c-3.9-3.7-4.7-10-4.9-13.2C586.8,337.2,589.2,327.7,593.3,328.6"/>
			</g>
		</g>
	</g>
	<g>
		<g>
			<g>
				<path class="st13" d="M596.5,363.7c-0.6-2.8,0.6-5.8,2.7-7.7c2.1-1.9,5-2.6,7.7-2.3c1.3,0.1,2.6,0.5,3.3,1.6
					c0.7,1,0.6,2.4,0,3.5s-1.5,1.9-2.6,2.5C604.2,363.5,600.4,365,596.5,363.7"/>
			</g>
		</g>
	</g>
	<g>
		<g>
			<g>
				<g>
					<path class="st4" d="M591.2,378.7c0,0,0-0.4,0.2-1c0.1-0.7,0.3-1.6,0.5-2.7c0.5-2.3,1.1-5.5,2.9-8.7c1.7-3.1,4.2-5.4,6.2-6.5
						c1-0.6,1.9-0.9,2.5-1.1c0.3-0.1,0.6-0.1,0.7-0.2c0.2,0,0.3,0,0.3,0c0,0.1-1.4,0.3-3.3,1.5c-1.9,1.2-4.3,3.4-6,6.5
						s-2.4,6.3-2.9,8.5c-0.3,1.1-0.5,2.1-0.6,2.7C591.3,378.3,591.2,378.7,591.2,378.7z"/>
				</g>
			</g>
		</g>
	</g>
	<g>
		<g>
			<g>
				<g>
					<path class="st4" d="M592.1,335.9c0,0,0,0.2,0,0.4c0,0.3,0,0.8,0.1,1.3c0,1.1,0.1,2.7,0.1,4.7c0.1,3.9,0.1,9.4-0.1,15.4
						s-0.4,11.4-0.6,15.4c-0.1,2-0.2,3.6-0.3,4.7c0,0.5-0.1,0.9-0.1,1.3c0,0.3-0.1,0.4-0.1,0.4s0-0.2,0-0.4c0-0.3,0-0.8,0-1.3
						c0.1-1.1,0.1-2.7,0.2-4.7c0.2-3.9,0.4-9.4,0.5-15.4s0.2-11.4,0.2-15.4c0-1.9,0-3.5,0-4.7c0-0.5,0-0.9,0-1.3
						C592.1,336.1,592.1,335.9,592.1,335.9z"/>
				</g>
			</g>
		</g>
	</g>
	<g>
		<g>
			<g>
				<path class="st13" d="M589.6,366.6c-0.8-6-4.6-11.4-9.8-14.1c-1.3-0.7-3.1-1.2-4.2-0.1c-1.1,1-0.9,2.9-0.4,4.3
					c2.1,6,8.1,10.3,14.2,10.4"/>
			</g>
		</g>
	</g>
	<g>
		<g>
			<g>
				<g>
					<path class="st4" d="M580.4,357.1c0,0,0.3,0.1,0.8,0.4c0.3,0.1,0.6,0.3,0.9,0.5c0.4,0.2,0.8,0.5,1.2,0.8s0.9,0.7,1.4,1.1
						s1,0.9,1.5,1.4c1,1.1,1.9,2.3,2.8,3.8c0.8,1.5,1.4,3,1.8,4.4c0.2,0.7,0.4,1.4,0.4,2c0.1,0.6,0.2,1.2,0.2,1.8
						c0.1,0.5,0,1.1,0,1.5s0,0.8-0.1,1.1c-0.1,0.6-0.1,0.9-0.1,0.9c-0.1,0,0.1-1.4-0.1-3.5c-0.1-0.5-0.1-1.1-0.2-1.8
						c-0.1-0.6-0.3-1.3-0.5-2c-0.4-1.4-1-2.9-1.8-4.3s-1.7-2.7-2.7-3.8c-0.5-0.5-0.9-1-1.4-1.4s-0.9-0.8-1.3-1.1
						C581.5,357.8,580.4,357.2,580.4,357.1z"/>
				</g>
			</g>
		</g>
	</g>
</g>
<line class="st14" x1="569.4" y1="268.1" x2="571.9" y2="290.2"/>
</svg>
