<?xml version="1.0" encoding="utf-8"?>
<!-- Generator: Adobe Illustrator 25.2.0, SVG Export Plug-In . SVG Version: 6.00 Build 0)  -->
<svg version="1.1" id="Layer_1" xmlns="http://www.w3.org/2000/svg" xmlns:xlink="http://www.w3.org/1999/xlink" x="0px" y="0px"
	 viewBox="0 0 640 480" style="enable-background:new 0 0 640 480;" xml:space="preserve">
<g>
	<g>
		<g>
			
				<rect x="400.07" y="205.91" transform="matrix(-1 -4.488688e-11 4.488688e-11 -1 869.1165 609.8052)" style="fill:#FF867B;" width="68.97" height="197.98"/>
			<polygon style="opacity:0.1;fill:#1A2029;" points="400.07,205.91 400.07,403.89 469.04,403.89 469.04,402.43 403.42,205.91 			
				"/>
		</g>
		<g style="opacity:0.58;">
			<g>
				<path style="fill:#EF4D61;" d="M458.45,327.43h3.61c0.64,0,1.16-0.52,1.16-1.16v-0.98c0-0.64-0.52-1.16-1.16-1.16h-3.61
					c-0.64,0-1.16,0.52-1.16,1.16v0.98C457.29,326.91,457.81,327.43,458.45,327.43z"/>
				<path style="fill:#EF4D61;" d="M454.33,331.35h3.61c0.64,0,1.16-0.52,1.16-1.16v-0.98c0-0.64-0.52-1.16-1.16-1.16h-3.61
					c-0.64,0-1.16,0.52-1.16,1.16v0.98C453.17,330.83,453.69,331.35,454.33,331.35z"/>
				<path style="fill:#EF4D61;" d="M451.73,327.43h3.61c0.64,0,1.16-0.52,1.16-1.16v-0.98c0-0.64-0.52-1.16-1.16-1.16h-3.61
					c-0.64,0-1.16,0.52-1.16,1.16v0.98C450.57,326.91,451.09,327.43,451.73,327.43z"/>
			</g>
			<g>
				<path style="fill:#EF4D61;" d="M414.71,221.61h3.61c0.64,0,1.16-0.52,1.16-1.16v-0.98c0-0.64-0.52-1.16-1.16-1.16h-3.61
					c-0.64,0-1.16,0.52-1.16,1.16v0.98C413.55,221.09,414.07,221.61,414.71,221.61z"/>
				<path style="fill:#EF4D61;" d="M410.59,225.54h3.61c0.64,0,1.16-0.52,1.16-1.16v-0.98c0-0.64-0.52-1.16-1.16-1.16h-3.61
					c-0.64,0-1.16,0.52-1.16,1.16v0.98C409.43,225.02,409.95,225.54,410.59,225.54z"/>
				<path style="fill:#EF4D61;" d="M407.99,221.61h3.61c0.64,0,1.16-0.52,1.16-1.16v-0.98c0-0.64-0.52-1.16-1.16-1.16h-3.61
					c-0.64,0-1.16,0.52-1.16,1.16v0.98C406.83,221.09,407.35,221.61,407.99,221.61z"/>
			</g>
		</g>
		<g>
			<g>
				
					<rect x="400.07" y="202.43" transform="matrix(-1 -4.489710e-11 4.489710e-11 -1 870.0531 411.3086)" style="fill:#EF4D61;" width="69.91" height="6.45"/>
				<polygon style="fill:#F27C96;" points="400.07,202.43 469.98,202.43 457.72,165.25 403.37,165.25 				"/>
				
					<rect x="400.07" y="211.17" transform="matrix(-1 -4.488688e-11 4.488688e-11 -1 869.1165 424.8214)" style="fill:#EF4D61;" width="68.97" height="2.47"/>
			</g>
			<g>
				
					<rect x="400.07" y="296.84" transform="matrix(-1 -4.483404e-11 4.483404e-11 -1 869.1165 609.1003)" style="fill:#EF4D61;" width="68.97" height="15.43"/>
				
					<rect x="400.07" y="313.9" transform="matrix(-1 -4.488688e-11 4.488688e-11 -1 869.1165 630.2766)" style="fill:#EF4D61;" width="68.97" height="2.47"/>
			</g>
		</g>
		<g>
			<g>
				<g>
					<g>
						<g>
							
								<rect x="408.16" y="346.13" transform="matrix(-1.836970e-16 1 -1 -1.836970e-16 793.4664 -76.5867)" style="fill:#BADBED;" width="53.74" height="24.61"/>
							<path style="opacity:0.13;fill:#1A2029;" d="M447.33,383.08v2.23h-24.61v-53.74h8.43c-3.19,5.45-5.11,12.46-5.11,20.12
								C426.04,368.69,435.51,382.53,447.33,383.08z"/>
						</g>
						<g>
							<defs>
								
									<rect id="SVGID_29_" x="408.16" y="346.13" transform="matrix(-1.836970e-16 1 -1 -1.836970e-16 793.4664 -76.5867)" width="53.74" height="24.61"/>
							</defs>
							<clipPath id="SVGID_1_">
								<use xlink:href="#SVGID_29_"  style="overflow:visible;"/>
							</clipPath>
							
								<rect x="431.3" y="316.72" transform="matrix(-0.6771 -0.7359 0.7359 -0.6771 464.4904 924.2429)" style="opacity:0.35;clip-path:url(#SVGID_1_);fill:#FFFFFF;" width="7.45" height="86.98"/>
							
								<rect x="425.41" y="308.29" transform="matrix(0.6771 0.7359 -0.7359 0.6771 396.8531 -200.8349)" style="opacity:0.35;clip-path:url(#SVGID_1_);fill:#FFFFFF;" width="3.73" height="86.98"/>
							
								<rect x="440.9" y="327.78" transform="matrix(0.6771 0.7359 -0.7359 0.6771 416.0289 -205.5616)" style="opacity:0.35;clip-path:url(#SVGID_1_);fill:#FFFFFF;" width="2.68" height="86.98"/>
						</g>
					</g>
					<polygon style="opacity:0.21;fill:#1A2029;" points="447.33,331.57 447.33,333.91 424.88,333.91 424.88,385.31 422.72,385.31 
						422.72,331.57 					"/>
				</g>
				<path style="fill:#FFFFFF;" d="M419.48,328.33v60.21h31.09v-60.21H419.48z M447.33,385.31h-24.61v-34h24.61V385.31z
					 M447.33,348.07h-24.61v-16.5h24.61V348.07z"/>
			</g>
			<g>
				<g>
					<g>
						<g>
							
								<rect x="408.16" y="241.38" transform="matrix(-1.836970e-16 1 -1 -1.836970e-16 688.7164 -181.3368)" style="fill:#BADBED;" width="53.74" height="24.61"/>
							<path style="opacity:0.13;fill:#1A2029;" d="M447.33,278.33v2.23h-24.61v-53.74h8.43c-3.19,5.45-5.11,12.46-5.11,20.12
								C426.04,263.94,435.51,277.78,447.33,278.33z"/>
						</g>
						<g>
							<defs>
								
									<rect id="SVGID_31_" x="408.16" y="241.38" transform="matrix(-1.836970e-16 1 -1 -1.836970e-16 688.7164 -181.3368)" width="53.74" height="24.61"/>
							</defs>
							<clipPath id="SVGID_2_">
								<use xlink:href="#SVGID_31_"  style="overflow:visible;"/>
							</clipPath>
							
								<rect x="431.3" y="211.97" transform="matrix(-0.6771 -0.7359 0.7359 -0.6771 541.5771 748.5688)" style="opacity:0.35;clip-path:url(#SVGID_2_);fill:#FFFFFF;" width="7.45" height="86.98"/>
							
								<rect x="425.41" y="203.54" transform="matrix(0.6771 0.7359 -0.7359 0.6771 319.7664 -234.6609)" style="opacity:0.35;clip-path:url(#SVGID_2_);fill:#FFFFFF;" width="3.73" height="86.98"/>
							
								<rect x="440.9" y="223.03" transform="matrix(0.6771 0.7359 -0.7359 0.6771 338.9421 -239.3877)" style="opacity:0.35;clip-path:url(#SVGID_2_);fill:#FFFFFF;" width="2.68" height="86.98"/>
						</g>
					</g>
					<polygon style="opacity:0.21;fill:#1A2029;" points="447.33,226.82 447.33,229.16 424.88,229.16 424.88,280.56 422.72,280.56 
						422.72,226.82 					"/>
				</g>
				<path style="fill:#FFFFFF;" d="M419.48,223.58v60.21h31.09v-60.21H419.48z M447.33,280.56h-24.61v-34h24.61V280.56z
					 M447.33,243.32h-24.61v-16.5h24.61V243.32z"/>
			</g>
		</g>
	</g>
	<g>
		<g>
			<rect x="189.05" y="206.43" style="fill:#FF867B;" width="68.97" height="197.98"/>
			<polygon style="opacity:0.07;fill:#1A2029;" points="258.02,206.42 258.02,404.4 189.05,404.4 189.05,402.94 254.68,206.42 			
				"/>
		</g>
		<g style="opacity:0.58;">
			<g>
				<path style="fill:#EF4D61;" d="M199.65,327.94h-3.61c-0.64,0-1.16-0.52-1.16-1.16v-0.98c0-0.64,0.52-1.16,1.16-1.16h3.61
					c0.64,0,1.16,0.52,1.16,1.16v0.98C200.81,327.42,200.29,327.94,199.65,327.94z"/>
				<path style="fill:#EF4D61;" d="M203.77,331.86h-3.61c-0.64,0-1.16-0.52-1.16-1.16v-0.98c0-0.64,0.52-1.16,1.16-1.16h3.61
					c0.64,0,1.16,0.52,1.16,1.16v0.98C204.93,331.35,204.41,331.86,203.77,331.86z"/>
				<path style="fill:#EF4D61;" d="M206.37,327.94h-3.61c-0.64,0-1.16-0.52-1.16-1.16v-0.98c0-0.64,0.52-1.16,1.16-1.16h3.61
					c0.64,0,1.16,0.52,1.16,1.16v0.98C207.53,327.42,207.01,327.94,206.37,327.94z"/>
			</g>
			<g>
				<path style="fill:#EF4D61;" d="M243.39,222.12h-3.61c-0.64,0-1.16-0.52-1.16-1.16v-0.98c0-0.64,0.52-1.16,1.16-1.16h3.61
					c0.64,0,1.16,0.52,1.16,1.16v0.98C244.55,221.6,244.03,222.12,243.39,222.12z"/>
				<path style="fill:#EF4D61;" d="M247.5,226.05h-3.61c-0.64,0-1.16-0.52-1.16-1.16v-0.98c0-0.64,0.52-1.16,1.16-1.16h3.61
					c0.64,0,1.16,0.52,1.16,1.16v0.98C248.66,225.53,248.14,226.05,247.5,226.05z"/>
				<path style="fill:#EF4D61;" d="M250.1,222.12h-3.61c-0.64,0-1.16-0.52-1.16-1.16v-0.98c0-0.64,0.52-1.16,1.16-1.16h3.61
					c0.64,0,1.16,0.52,1.16,1.16v0.98C251.26,221.6,250.74,222.12,250.1,222.12z"/>
			</g>
		</g>
		<g>
			<g>
				<rect x="188.12" y="202.94" style="fill:#EF4D61;" width="69.91" height="6.45"/>
				<polygon style="fill:#F27C96;" points="258.02,202.94 188.12,202.94 200.38,165.76 254.73,165.76 				"/>
				<rect x="189.05" y="211.68" style="fill:#EF4D61;" width="68.97" height="2.47"/>
			</g>
			<g>
				<rect x="189.05" y="297.35" style="fill:#EF4D61;" width="68.97" height="15.43"/>
				<rect x="189.05" y="314.41" style="fill:#EF4D61;" width="68.97" height="2.47"/>
			</g>
		</g>
		<g>
			<g>
				<g>
					<g>
						<g>
							
								<rect x="196.2" y="346.65" transform="matrix(-1.836970e-16 1 -1 -1.836970e-16 582.0208 135.8801)" style="fill:#BADBED;" width="53.74" height="24.61"/>
							<path style="opacity:0.13;fill:#1A2029;" d="M235.38,383.59v2.23h-24.61v-53.74h8.43c-3.19,5.45-5.11,12.46-5.11,20.12
								C214.08,369.2,223.55,383.04,235.38,383.59z"/>
						</g>
						<g>
							<defs>
								
									<rect id="SVGID_33_" x="196.2" y="346.65" transform="matrix(-1.836970e-16 1 -1 -1.836970e-16 582.0208 135.8801)" width="53.74" height="24.61"/>
							</defs>
							<clipPath id="SVGID_3_">
								<use xlink:href="#SVGID_33_"  style="overflow:visible;"/>
							</clipPath>
							
								<rect x="219.35" y="317.23" transform="matrix(-0.6771 -0.7359 0.7359 -0.6771 108.6475 769.1183)" style="opacity:0.35;clip-path:url(#SVGID_3_);fill:#FFFFFF;" width="7.45" height="86.98"/>
							
								<rect x="213.45" y="308.8" transform="matrix(0.6771 0.7359 -0.7359 0.6771 328.7836 -44.6891)" style="opacity:0.35;clip-path:url(#SVGID_3_);fill:#FFFFFF;" width="3.73" height="86.98"/>
							
								<rect x="228.95" y="328.29" transform="matrix(0.6771 0.7359 -0.7359 0.6771 347.9594 -49.4159)" style="opacity:0.35;clip-path:url(#SVGID_3_);fill:#FFFFFF;" width="2.68" height="86.98"/>
						</g>
					</g>
					<polygon style="opacity:0.21;fill:#1A2029;" points="235.38,332.08 235.38,334.42 212.93,334.42 212.93,385.82 210.76,385.82 
						210.76,332.08 					"/>
				</g>
				<path style="fill:#FFFFFF;" d="M207.53,328.84v60.21h31.09v-60.21H207.53z M235.38,385.82h-24.61v-34h24.61V385.82z
					 M235.38,348.58h-24.61v-16.5h24.61V348.58z"/>
			</g>
			<g>
				<g>
					<g>
						<g>
							
								<rect x="196.2" y="241.9" transform="matrix(-1.836970e-16 1 -1 -1.836970e-16 477.2708 31.13)" style="fill:#BADBED;" width="53.74" height="24.61"/>
							<path style="opacity:0.13;fill:#1A2029;" d="M235.38,278.84v2.23h-24.61v-53.74h8.43c-3.19,5.45-5.11,12.46-5.11,20.12
								C214.08,264.45,223.55,278.29,235.38,278.84z"/>
						</g>
						<g>
							<defs>
								
									<rect id="SVGID_35_" x="196.2" y="241.9" transform="matrix(-1.836970e-16 1 -1 -1.836970e-16 477.2708 31.13)" width="53.74" height="24.61"/>
							</defs>
							<clipPath id="SVGID_4_">
								<use xlink:href="#SVGID_35_"  style="overflow:visible;"/>
							</clipPath>
							
								<rect x="219.35" y="212.48" transform="matrix(-0.6771 -0.7359 0.7359 -0.6771 185.7342 593.4442)" style="opacity:0.35;clip-path:url(#SVGID_4_);fill:#FFFFFF;" width="7.45" height="86.98"/>
							
								<rect x="213.45" y="204.05" transform="matrix(0.6771 0.7359 -0.7359 0.6771 251.6969 -78.5152)" style="opacity:0.35;clip-path:url(#SVGID_4_);fill:#FFFFFF;" width="3.73" height="86.98"/>
							
								<rect x="228.95" y="223.54" transform="matrix(0.6771 0.7359 -0.7359 0.6771 270.8726 -83.242)" style="opacity:0.35;clip-path:url(#SVGID_4_);fill:#FFFFFF;" width="2.68" height="86.98"/>
						</g>
					</g>
					<polygon style="opacity:0.21;fill:#1A2029;" points="235.38,227.33 235.38,229.67 212.93,229.67 212.93,281.07 210.76,281.07 
						210.76,227.33 					"/>
				</g>
				<path style="fill:#FFFFFF;" d="M207.53,224.09v60.21h31.09v-60.21H207.53z M235.38,281.07h-24.61v-34h24.61V281.07z
					 M235.38,243.83h-24.61v-16.5h24.61V243.83z"/>
			</g>
		</g>
	</g>
	<g>
		<g>
			<rect x="251.24" y="134.12" style="fill:#FF867B;" width="156.49" height="270.47"/>
			<polygon style="opacity:0.07;fill:#1A2029;" points="407.73,161.53 407.73,404.59 253.28,404.59 			"/>
		</g>
		<g>
			<rect x="245.92" y="398.14" style="fill:#EF4D61;" width="167.14" height="6.45"/>
			<g>
				<g>
					<rect x="251.24" y="326.76" style="opacity:0.09;" width="156.49" height="5.32"/>
					<rect x="245.92" y="308.73" style="fill:#EF4D61;" width="167.14" height="6.45"/>
					<polygon style="fill:#DB3552;" points="419.84,328.14 239.14,328.14 246.28,315.18 413.42,315.18 					"/>
					<rect x="251.59" y="303.42" style="fill:#EF4D61;" width="156.49" height="1.58"/>
				</g>
				<g>
					<rect x="245.92" y="122.03" style="fill:#EF4D61;" width="167.14" height="15.43"/>
					<rect x="251.75" y="137.46" style="fill:#EF4D61;" width="156.49" height="5.79"/>
					<rect x="251.59" y="145.03" style="fill:#EF4D61;" width="156.49" height="1.58"/>
					<polygon style="fill:#F27C96;" points="413.06,122.03 245.92,122.03 262.74,104.8 396.24,104.8 					"/>
				</g>
			</g>
		</g>
		<g style="opacity:0.63;">
			<g>
				<path style="fill:#EF4D61;" d="M262.8,346.98h-3.61c-0.64,0-1.16-0.52-1.16-1.16v-0.98c0-0.64,0.52-1.16,1.16-1.16h3.61
					c0.64,0,1.16,0.52,1.16,1.16v0.98C263.96,346.46,263.44,346.98,262.8,346.98z"/>
				<path style="fill:#EF4D61;" d="M266.91,350.91h-3.61c-0.64,0-1.16-0.52-1.16-1.16v-0.98c0-0.64,0.52-1.16,1.16-1.16h3.61
					c0.64,0,1.16,0.52,1.16,1.16v0.98C268.07,350.39,267.55,350.91,266.91,350.91z"/>
				<path style="fill:#EF4D61;" d="M269.51,346.98h-3.61c-0.64,0-1.16-0.52-1.16-1.16v-0.98c0-0.64,0.52-1.16,1.16-1.16h3.61
					c0.64,0,1.16,0.52,1.16,1.16v0.98C270.67,346.46,270.15,346.98,269.51,346.98z"/>
			</g>
			<g>
				<path style="fill:#EF4D61;" d="M277,374.29h-3.61c-0.64,0-1.16-0.52-1.16-1.16v-0.98c0-0.64,0.52-1.16,1.16-1.16H277
					c0.64,0,1.16,0.52,1.16,1.16v0.98C278.16,373.77,277.64,374.29,277,374.29z"/>
				<path style="fill:#EF4D61;" d="M281.11,378.22h-3.61c-0.64,0-1.16-0.52-1.16-1.16v-0.98c0-0.64,0.52-1.16,1.16-1.16h3.61
					c0.64,0,1.16,0.52,1.16,1.16v0.98C282.27,377.7,281.75,378.22,281.11,378.22z"/>
				<path style="fill:#EF4D61;" d="M283.71,374.29h-3.61c-0.64,0-1.16-0.52-1.16-1.16v-0.98c0-0.64,0.52-1.16,1.16-1.16h3.61
					c0.64,0,1.16,0.52,1.16,1.16v0.98C284.87,373.77,284.35,374.29,283.71,374.29z"/>
			</g>
			<g>
				<path style="fill:#EF4D61;" d="M372.12,337.2h-3.61c-0.64,0-1.16-0.52-1.16-1.16v-0.98c0-0.64,0.52-1.16,1.16-1.16h3.61
					c0.64,0,1.16,0.52,1.16,1.16v0.98C373.28,336.68,372.76,337.2,372.12,337.2z"/>
				<path style="fill:#EF4D61;" d="M376.24,341.13h-3.61c-0.64,0-1.16-0.52-1.16-1.16v-0.98c0-0.64,0.52-1.16,1.16-1.16h3.61
					c0.64,0,1.16,0.52,1.16,1.16v0.98C377.4,340.61,376.88,341.13,376.24,341.13z"/>
				<path style="fill:#EF4D61;" d="M378.84,337.2h-3.61c-0.64,0-1.16-0.52-1.16-1.16v-0.98c0-0.64,0.52-1.16,1.16-1.16h3.61
					c0.64,0,1.16,0.52,1.16,1.16v0.98C380,336.68,379.48,337.2,378.84,337.2z"/>
			</g>
			<g>
				<path style="fill:#EF4D61;" d="M346.22,158.57h-3.61c-0.64,0-1.16-0.52-1.16-1.16v-0.98c0-0.64,0.52-1.16,1.16-1.16h3.61
					c0.64,0,1.16,0.52,1.16,1.16v0.98C347.37,158.05,346.86,158.57,346.22,158.57z"/>
				<path style="fill:#EF4D61;" d="M350.33,162.5h-3.61c-0.64,0-1.16-0.52-1.16-1.16v-0.98c0-0.64,0.52-1.16,1.16-1.16h3.61
					c0.64,0,1.16,0.52,1.16,1.16v0.98C351.49,161.98,350.97,162.5,350.33,162.5z"/>
				<path style="fill:#EF4D61;" d="M352.93,158.57h-3.61c-0.64,0-1.16-0.52-1.16-1.16v-0.98c0-0.64,0.52-1.16,1.16-1.16h3.61
					c0.64,0,1.16,0.52,1.16,1.16v0.98C354.09,158.05,353.57,158.57,352.93,158.57z"/>
			</g>
			<g>
				<path style="fill:#EF4D61;" d="M260.12,254.1h-3.61c-0.64,0-1.16-0.52-1.16-1.16v-0.98c0-0.64,0.52-1.16,1.16-1.16h3.61
					c0.64,0,1.16,0.52,1.16,1.16v0.98C261.28,253.58,260.76,254.1,260.12,254.1z"/>
				<path style="fill:#EF4D61;" d="M264.24,258.02h-3.61c-0.64,0-1.16-0.52-1.16-1.16v-0.98c0-0.64,0.52-1.16,1.16-1.16h3.61
					c0.64,0,1.16,0.52,1.16,1.16v0.98C265.39,257.51,264.88,258.02,264.24,258.02z"/>
				<path style="fill:#EF4D61;" d="M266.84,254.1h-3.61c-0.64,0-1.16-0.52-1.16-1.16v-0.98c0-0.64,0.52-1.16,1.16-1.16h3.61
					c0.64,0,1.16,0.52,1.16,1.16v0.98C268,253.58,267.48,254.1,266.84,254.1z"/>
			</g>
			<g>
				<path style="fill:#EF4D61;" d="M389.94,209.49h-3.61c-0.64,0-1.16-0.52-1.16-1.16v-0.98c0-0.64,0.52-1.16,1.16-1.16h3.61
					c0.64,0,1.16,0.52,1.16,1.16v0.98C391.1,208.97,390.58,209.49,389.94,209.49z"/>
				<path style="fill:#EF4D61;" d="M394.05,213.42h-3.61c-0.64,0-1.16-0.52-1.16-1.16v-0.98c0-0.64,0.52-1.16,1.16-1.16h3.61
					c0.64,0,1.16,0.52,1.16,1.16v0.98C395.21,212.9,394.69,213.42,394.05,213.42z"/>
				<path style="fill:#EF4D61;" d="M396.65,209.49h-3.61c-0.64,0-1.16-0.52-1.16-1.16v-0.98c0-0.64,0.52-1.16,1.16-1.16h3.61
					c0.64,0,1.16,0.52,1.16,1.16v0.98C397.81,208.97,397.29,209.49,396.65,209.49z"/>
			</g>
			<g>
				<path style="fill:#EF4D61;" d="M392.2,380.58h-3.61c-0.64,0-1.16-0.52-1.16-1.16v-0.98c0-0.64,0.52-1.16,1.16-1.16h3.61
					c0.64,0,1.16,0.52,1.16,1.16v0.98C393.36,380.07,392.84,380.58,392.2,380.58z"/>
				<path style="fill:#EF4D61;" d="M396.31,384.51h-3.61c-0.64,0-1.16-0.52-1.16-1.16v-0.98c0-0.64,0.52-1.16,1.16-1.16h3.61
					c0.64,0,1.16,0.52,1.16,1.16v0.98C397.47,383.99,396.95,384.51,396.31,384.51z"/>
				<path style="fill:#EF4D61;" d="M398.91,380.58h-3.61c-0.64,0-1.16-0.52-1.16-1.16v-0.98c0-0.64,0.52-1.16,1.16-1.16h3.61
					c0.64,0,1.16,0.52,1.16,1.16v0.98C400.07,380.07,399.55,380.58,398.91,380.58z"/>
			</g>
		</g>
		<g>
			<g>
				<g>
					<g>
						<g>
							<rect x="360.76" y="166.1" style="fill:#BADBED;" width="25.58" height="25.58"/>
							<path style="opacity:0.13;fill:#1A2029;" d="M386.34,184.89v6.78h-25.58V166.1h3.65c-0.03,0.05-0.05,0.1-0.08,0.15
								c-0.97,1.97-1.52,4.18-1.52,6.53c0,8.2,6.67,14.85,14.91,14.85c3.01,0,5.82-0.89,8.17-2.42
								C386.04,185.11,386.19,185.01,386.34,184.89z"/>
						</g>
						<g>
							<defs>
								<rect id="SVGID_37_" x="360.76" y="166.1" width="25.58" height="25.58"/>
							</defs>
							<clipPath id="SVGID_5_">
								<use xlink:href="#SVGID_37_"  style="overflow:visible;"/>
							</clipPath>
							
								<rect x="362.58" y="146.85" transform="matrix(0.6771 0.7359 -0.7359 0.6771 255.5036 -206.7855)" style="opacity:0.35;clip-path:url(#SVGID_5_);fill:#FFFFFF;" width="1.59" height="81.79"/>
							
								<rect x="370.05" y="146.85" transform="matrix(-0.6771 -0.7359 0.7359 -0.6771 488.3058 589.7567)" style="opacity:0.35;clip-path:url(#SVGID_5_);fill:#FFFFFF;" width="7" height="81.79"/>
							
								<rect x="363.46" y="137.99" transform="matrix(0.6771 0.7359 -0.7359 0.6771 249.422 -210.634)" style="opacity:0.35;clip-path:url(#SVGID_5_);fill:#FFFFFF;" width="2.52" height="81.79"/>
						</g>
						<polygon style="opacity:0.21;fill:#1A2029;" points="386.34,166.1 386.34,168.23 363.01,168.23 363.01,191.68 360.76,191.68 
							360.76,166.1 						"/>
					</g>
					<path style="fill:#FFFFFF;" d="M357.71,163.05v31.67h31.67v-31.67H357.71z M375.07,166.1h11.27v11.27h-11.27V166.1z
						 M372.02,191.68h-11.27v-11.27h11.27V191.68z M372.02,177.37h-11.27V166.1h11.27V177.37z M386.34,191.68h-11.27v-11.27h11.27
						V191.68z"/>
				</g>
				<g>
					<g>
						<g>
							<rect x="316.44" y="166.1" style="fill:#BADBED;" width="25.58" height="25.58"/>
							<path style="opacity:0.13;fill:#1A2029;" d="M342.02,184.89v6.78h-25.58V166.1h3.65c-0.03,0.05-0.05,0.1-0.08,0.15
								c-0.97,1.97-1.52,4.18-1.52,6.53c0,8.2,6.67,14.85,14.91,14.85c3.01,0,5.82-0.89,8.17-2.42
								C341.72,185.11,341.87,185.01,342.02,184.89z"/>
						</g>
						<g>
							<defs>
								<rect id="SVGID_39_" x="316.44" y="166.1" width="25.58" height="25.58"/>
							</defs>
							<clipPath id="SVGID_6_">
								<use xlink:href="#SVGID_39_"  style="overflow:visible;"/>
							</clipPath>
							
								<rect x="318.27" y="146.85" transform="matrix(0.6771 0.7359 -0.7359 0.6771 241.1933 -174.1735)" style="opacity:0.35;clip-path:url(#SVGID_6_);fill:#FFFFFF;" width="1.59" height="81.79"/>
							
								<rect x="325.73" y="146.85" transform="matrix(-0.6771 -0.7359 0.7359 -0.6771 413.9857 557.1446)" style="opacity:0.35;clip-path:url(#SVGID_6_);fill:#FFFFFF;" width="7" height="81.79"/>
							
								<rect x="319.14" y="137.99" transform="matrix(0.6771 0.7359 -0.7359 0.6771 235.1117 -178.0219)" style="opacity:0.35;clip-path:url(#SVGID_6_);fill:#FFFFFF;" width="2.52" height="81.79"/>
						</g>
						<polygon style="opacity:0.21;fill:#1A2029;" points="342.02,166.1 342.02,168.23 318.69,168.23 318.69,191.68 316.44,191.68 
							316.44,166.1 						"/>
					</g>
					<path style="fill:#FFFFFF;" d="M313.4,163.05v31.67h31.67v-31.67H313.4z M330.75,166.1h11.27v11.27h-11.27V166.1z
						 M327.71,191.68h-11.27v-11.27h11.27V191.68z M327.71,177.37h-11.27V166.1h11.27V177.37z M342.02,191.68h-11.27v-11.27h11.27
						V191.68z"/>
				</g>
				<g>
					<g>
						<g>
							<rect x="272.64" y="166.1" style="fill:#BADBED;" width="25.58" height="25.58"/>
							<path style="opacity:0.13;fill:#1A2029;" d="M298.22,184.89v6.78h-25.58V166.1h3.65c-0.03,0.05-0.05,0.1-0.08,0.15
								c-0.97,1.97-1.52,4.18-1.52,6.53c0,8.2,6.67,14.85,14.91,14.85c3.01,0,5.82-0.89,8.17-2.42
								C297.92,185.11,298.07,185.01,298.22,184.89z"/>
						</g>
						<g>
							<defs>
								<rect id="SVGID_41_" x="272.64" y="166.1" width="25.58" height="25.58"/>
							</defs>
							<clipPath id="SVGID_7_">
								<use xlink:href="#SVGID_41_"  style="overflow:visible;"/>
							</clipPath>
							
								<rect x="274.46" y="146.85" transform="matrix(0.6771 0.7359 -0.7359 0.6771 227.0485 -141.9388)" style="opacity:0.35;clip-path:url(#SVGID_7_);fill:#FFFFFF;" width="1.59" height="81.79"/>
							
								<rect x="281.93" y="146.85" transform="matrix(-0.6771 -0.7359 0.7359 -0.6771 340.5256 524.9099)" style="opacity:0.35;clip-path:url(#SVGID_7_);fill:#FFFFFF;" width="7" height="81.79"/>
							
								<rect x="275.34" y="137.99" transform="matrix(0.6771 0.7359 -0.7359 0.6771 220.9669 -145.7872)" style="opacity:0.35;clip-path:url(#SVGID_7_);fill:#FFFFFF;" width="2.52" height="81.79"/>
						</g>
						<polygon style="opacity:0.21;fill:#1A2029;" points="298.22,166.1 298.22,168.23 274.89,168.23 274.89,191.68 272.64,191.68 
							272.64,166.1 						"/>
					</g>
					<path style="fill:#FFFFFF;" d="M269.6,163.05v31.67h31.67v-31.67H269.6z M286.95,166.1h11.27v11.27h-11.27V166.1z
						 M283.91,191.68h-11.27v-11.27h11.27V191.68z M283.91,177.37h-11.27V166.1h11.27V177.37z M298.22,191.68h-11.27v-11.27h11.27
						V191.68z"/>
				</g>
			</g>
			<g>
				<g>
					<g>
						<g>
							<rect x="360.76" y="212.2" style="fill:#BADBED;" width="25.58" height="25.58"/>
							<path style="opacity:0.13;fill:#1A2029;" d="M386.34,230.99v6.78h-25.58V212.2h3.65c-0.03,0.05-0.05,0.1-0.08,0.15
								c-0.97,1.97-1.52,4.18-1.52,6.53c0,8.2,6.67,14.85,14.91,14.85c3.01,0,5.82-0.89,8.17-2.42
								C386.04,231.21,386.19,231.11,386.34,230.99z"/>
						</g>
						<g>
							<defs>
								<rect id="SVGID_43_" x="360.76" y="212.2" width="25.58" height="25.58"/>
							</defs>
							<clipPath id="SVGID_8_">
								<use xlink:href="#SVGID_43_"  style="overflow:visible;"/>
							</clipPath>
							
								<rect x="362.58" y="192.95" transform="matrix(0.6771 0.7359 -0.7359 0.6771 289.4276 -191.8995)" style="opacity:0.35;clip-path:url(#SVGID_8_);fill:#FFFFFF;" width="1.59" height="81.79"/>
							
								<rect x="370.05" y="192.95" transform="matrix(-0.6771 -0.7359 0.7359 -0.6771 454.3818 667.0666)" style="opacity:0.35;clip-path:url(#SVGID_8_);fill:#FFFFFF;" width="7" height="81.79"/>
							
								<rect x="363.46" y="184.09" transform="matrix(0.6771 0.7359 -0.7359 0.6771 283.346 -195.748)" style="opacity:0.35;clip-path:url(#SVGID_8_);fill:#FFFFFF;" width="2.52" height="81.79"/>
						</g>
						<polygon style="opacity:0.21;fill:#1A2029;" points="386.34,212.2 386.34,214.32 363.01,214.32 363.01,237.78 360.76,237.78 
							360.76,212.2 						"/>
					</g>
					<path style="fill:#FFFFFF;" d="M357.71,209.15v31.67h31.67v-31.67H357.71z M375.07,212.2h11.27v11.27h-11.27V212.2z
						 M372.02,237.78h-11.27v-11.27h11.27V237.78z M372.02,223.46h-11.27V212.2h11.27V223.46z M386.34,237.78h-11.27v-11.27h11.27
						V237.78z"/>
				</g>
				<g>
					<g>
						<g>
							<rect x="316.44" y="212.2" style="fill:#BADBED;" width="25.58" height="25.58"/>
							<path style="opacity:0.13;fill:#1A2029;" d="M342.02,230.99v6.78h-25.58V212.2h3.65c-0.03,0.05-0.05,0.1-0.08,0.15
								c-0.97,1.97-1.52,4.18-1.52,6.53c0,8.2,6.67,14.85,14.91,14.85c3.01,0,5.82-0.89,8.17-2.42
								C341.72,231.21,341.87,231.11,342.02,230.99z"/>
						</g>
						<g>
							<defs>
								<rect id="SVGID_45_" x="316.44" y="212.2" width="25.58" height="25.58"/>
							</defs>
							<clipPath id="SVGID_9_">
								<use xlink:href="#SVGID_45_"  style="overflow:visible;"/>
							</clipPath>
							
								<rect x="318.27" y="192.95" transform="matrix(0.6771 0.7359 -0.7359 0.6771 275.1173 -159.2874)" style="opacity:0.35;clip-path:url(#SVGID_9_);fill:#FFFFFF;" width="1.59" height="81.79"/>
							
								<rect x="325.73" y="192.95" transform="matrix(-0.6771 -0.7359 0.7359 -0.6771 380.0617 634.4545)" style="opacity:0.35;clip-path:url(#SVGID_9_);fill:#FFFFFF;" width="7" height="81.79"/>
							
								<rect x="319.14" y="184.09" transform="matrix(0.6771 0.7359 -0.7359 0.6771 269.0357 -163.1359)" style="opacity:0.35;clip-path:url(#SVGID_9_);fill:#FFFFFF;" width="2.52" height="81.79"/>
						</g>
						<polygon style="opacity:0.21;fill:#1A2029;" points="342.02,212.2 342.02,214.32 318.69,214.32 318.69,237.78 316.44,237.78 
							316.44,212.2 						"/>
					</g>
					<path style="fill:#FFFFFF;" d="M313.4,209.15v31.67h31.67v-31.67H313.4z M330.75,212.2h11.27v11.27h-11.27V212.2z
						 M327.71,237.78h-11.27v-11.27h11.27V237.78z M327.71,223.46h-11.27V212.2h11.27V223.46z M342.02,237.78h-11.27v-11.27h11.27
						V237.78z"/>
				</g>
				<g>
					<g>
						<g>
							<rect x="272.64" y="212.2" style="fill:#BADBED;" width="25.58" height="25.58"/>
							<path style="opacity:0.13;fill:#1A2029;" d="M298.22,230.99v6.78h-25.58V212.2h3.65c-0.03,0.05-0.05,0.1-0.08,0.15
								c-0.97,1.97-1.52,4.18-1.52,6.53c0,8.2,6.67,14.85,14.91,14.85c3.01,0,5.82-0.89,8.17-2.42
								C297.92,231.21,298.07,231.11,298.22,230.99z"/>
						</g>
						<g>
							<defs>
								<rect id="SVGID_47_" x="272.64" y="212.2" width="25.58" height="25.58"/>
							</defs>
							<clipPath id="SVGID_10_">
								<use xlink:href="#SVGID_47_"  style="overflow:visible;"/>
							</clipPath>
							
								<rect x="274.46" y="192.95" transform="matrix(0.6771 0.7359 -0.7359 0.6771 260.9725 -127.0527)" style="opacity:0.35;clip-path:url(#SVGID_10_);fill:#FFFFFF;" width="1.59" height="81.79"/>
							
								<rect x="281.93" y="192.95" transform="matrix(-0.6771 -0.7359 0.7359 -0.6771 306.6016 602.2198)" style="opacity:0.35;clip-path:url(#SVGID_10_);fill:#FFFFFF;" width="7" height="81.79"/>
							
								<rect x="275.34" y="184.09" transform="matrix(0.6771 0.7359 -0.7359 0.6771 254.8909 -130.9012)" style="opacity:0.35;clip-path:url(#SVGID_10_);fill:#FFFFFF;" width="2.52" height="81.79"/>
						</g>
						<polygon style="opacity:0.21;fill:#1A2029;" points="298.22,212.2 298.22,214.32 274.89,214.32 274.89,237.78 272.64,237.78 
							272.64,212.2 						"/>
					</g>
					<path style="fill:#FFFFFF;" d="M269.6,209.15v31.67h31.67v-31.67H269.6z M286.95,212.2h11.27v11.27h-11.27V212.2z
						 M283.91,237.78h-11.27v-11.27h11.27V237.78z M283.91,223.46h-11.27V212.2h11.27V223.46z M298.22,237.78h-11.27v-11.27h11.27
						V237.78z"/>
				</g>
			</g>
			<g>
				<g>
					<g>
						<g>
							<rect x="360.76" y="255.58" style="fill:#BADBED;" width="25.58" height="25.58"/>
							<path style="opacity:0.13;fill:#1A2029;" d="M386.34,274.38v6.78h-25.58v-25.58h3.65c-0.03,0.05-0.05,0.1-0.08,0.15
								c-0.97,1.97-1.52,4.18-1.52,6.53c0,8.2,6.67,14.85,14.91,14.85c3.01,0,5.82-0.89,8.17-2.42
								C386.04,274.6,386.19,274.49,386.34,274.38z"/>
						</g>
						<g>
							<defs>
								<rect id="SVGID_49_" x="360.76" y="255.58" width="25.58" height="25.58"/>
							</defs>
							<clipPath id="SVGID_11_">
								<use xlink:href="#SVGID_49_"  style="overflow:visible;"/>
							</clipPath>
							
								<rect x="362.58" y="236.33" transform="matrix(0.6771 0.7359 -0.7359 0.6771 321.3553 -177.8895)" style="opacity:0.35;clip-path:url(#SVGID_11_);fill:#FFFFFF;" width="1.59" height="81.79"/>
							
								<rect x="370.05" y="236.33" transform="matrix(-0.6771 -0.7359 0.7359 -0.6771 422.4542 739.8269)" style="opacity:0.35;clip-path:url(#SVGID_11_);fill:#FFFFFF;" width="7" height="81.79"/>
							
								<rect x="363.46" y="227.48" transform="matrix(0.6771 0.7359 -0.7359 0.6771 315.2737 -181.7379)" style="opacity:0.35;clip-path:url(#SVGID_11_);fill:#FFFFFF;" width="2.52" height="81.79"/>
						</g>
						<polygon style="opacity:0.21;fill:#1A2029;" points="386.34,255.58 386.34,257.71 363.01,257.71 363.01,281.16 360.76,281.16 
							360.76,255.58 						"/>
					</g>
					<path style="fill:#FFFFFF;" d="M357.71,252.54v31.67h31.67v-31.67H357.71z M375.07,255.58h11.27v11.27h-11.27V255.58z
						 M372.02,281.16h-11.27v-11.27h11.27V281.16z M372.02,266.85h-11.27v-11.27h11.27V266.85z M386.34,281.16h-11.27v-11.27h11.27
						V281.16z"/>
				</g>
				<g>
					<g>
						<g>
							<rect x="316.44" y="255.58" style="fill:#BADBED;" width="25.58" height="25.58"/>
							<path style="opacity:0.13;fill:#1A2029;" d="M342.02,274.38v6.78h-25.58v-25.58h3.65c-0.03,0.05-0.05,0.1-0.08,0.15
								c-0.97,1.97-1.52,4.18-1.52,6.53c0,8.2,6.67,14.85,14.91,14.85c3.01,0,5.82-0.89,8.17-2.42
								C341.72,274.6,341.87,274.49,342.02,274.38z"/>
						</g>
						<g>
							<defs>
								<rect id="SVGID_51_" x="316.44" y="255.58" width="25.58" height="25.58"/>
							</defs>
							<clipPath id="SVGID_12_">
								<use xlink:href="#SVGID_51_"  style="overflow:visible;"/>
							</clipPath>
							
								<rect x="318.27" y="236.33" transform="matrix(0.6771 0.7359 -0.7359 0.6771 307.0449 -145.2774)" style="opacity:0.35;clip-path:url(#SVGID_12_);fill:#FFFFFF;" width="1.59" height="81.79"/>
							
								<rect x="325.73" y="236.33" transform="matrix(-0.6771 -0.7359 0.7359 -0.6771 348.1341 707.2148)" style="opacity:0.35;clip-path:url(#SVGID_12_);fill:#FFFFFF;" width="7" height="81.79"/>
							
								<rect x="319.14" y="227.48" transform="matrix(0.6771 0.7359 -0.7359 0.6771 300.9633 -149.1259)" style="opacity:0.35;clip-path:url(#SVGID_12_);fill:#FFFFFF;" width="2.52" height="81.79"/>
						</g>
						<polygon style="opacity:0.21;fill:#1A2029;" points="342.02,255.58 342.02,257.71 318.69,257.71 318.69,281.16 316.44,281.16 
							316.44,255.58 						"/>
					</g>
					<path style="fill:#FFFFFF;" d="M313.4,252.54v31.67h31.67v-31.67H313.4z M330.75,255.58h11.27v11.27h-11.27V255.58z
						 M327.71,281.16h-11.27v-11.27h11.27V281.16z M327.71,266.85h-11.27v-11.27h11.27V266.85z M342.02,281.16h-11.27v-11.27h11.27
						V281.16z"/>
				</g>
				<g>
					<g>
						<g>
							<rect x="272.64" y="255.58" style="fill:#BADBED;" width="25.58" height="25.58"/>
							<path style="opacity:0.13;fill:#1A2029;" d="M298.22,274.38v6.78h-25.58v-25.58h3.65c-0.03,0.05-0.05,0.1-0.08,0.15
								c-0.97,1.97-1.52,4.18-1.52,6.53c0,8.2,6.67,14.85,14.91,14.85c3.01,0,5.82-0.89,8.17-2.42
								C297.92,274.6,298.07,274.49,298.22,274.38z"/>
						</g>
						<g>
							<defs>
								<rect id="SVGID_53_" x="272.64" y="255.58" width="25.58" height="25.58"/>
							</defs>
							<clipPath id="SVGID_13_">
								<use xlink:href="#SVGID_53_"  style="overflow:visible;"/>
							</clipPath>
							
								<rect x="274.46" y="236.33" transform="matrix(0.6771 0.7359 -0.7359 0.6771 292.9001 -113.0427)" style="opacity:0.35;clip-path:url(#SVGID_13_);fill:#FFFFFF;" width="1.59" height="81.79"/>
							
								<rect x="281.93" y="236.33" transform="matrix(-0.6771 -0.7359 0.7359 -0.6771 274.674 674.9802)" style="opacity:0.35;clip-path:url(#SVGID_13_);fill:#FFFFFF;" width="7" height="81.79"/>
							
								<rect x="275.34" y="227.48" transform="matrix(0.6771 0.7359 -0.7359 0.6771 286.8186 -116.8912)" style="opacity:0.35;clip-path:url(#SVGID_13_);fill:#FFFFFF;" width="2.52" height="81.79"/>
						</g>
						<polygon style="opacity:0.21;fill:#1A2029;" points="298.22,255.58 298.22,257.71 274.89,257.71 274.89,281.16 272.64,281.16 
							272.64,255.58 						"/>
					</g>
					<path style="fill:#FFFFFF;" d="M269.6,252.54v31.67h31.67v-31.67H269.6z M286.95,255.58h11.27v11.27h-11.27V255.58z
						 M283.91,281.16h-11.27v-11.27h11.27V281.16z M283.91,266.85h-11.27v-11.27h11.27V266.85z M298.22,281.16h-11.27v-11.27h11.27
						V281.16z"/>
				</g>
			</g>
		</g>
		<g>
			<g>
				<g>
					
						<rect x="302.05" y="338.36" transform="matrix(-1.836970e-16 1 -1 -1.836970e-16 703.3956 41.8869)" style="fill:#BADBED;" width="57.42" height="68.57"/>
					<path style="opacity:0.13;fill:#1A2029;" d="M365.04,393.23v8.12h-68.57v-57.42h7.23c-2.77,5.12-4.32,10.89-4.32,16.99
						c0,21.33,18.99,38.61,42.42,38.61C350.38,399.54,358.37,397.22,365.04,393.23z"/>
					<g style="opacity:0.57;">
						<defs>
							
								<rect id="SVGID_55_" x="302.05" y="338.36" transform="matrix(-1.836970e-16 1 -1 -1.836970e-16 703.3958 41.887)" style="opacity:0.57;" width="57.42" height="68.57"/>
						</defs>
						<clipPath id="SVGID_14_">
							<use xlink:href="#SVGID_55_"  style="overflow:visible;"/>
						</clipPath>
						
							<rect x="333.81" y="332.27" transform="matrix(0.6771 0.7359 -0.7359 0.6771 385.3687 -126.6926)" style="opacity:0.35;clip-path:url(#SVGID_14_);fill:#FFFFFF;" width="6.48" height="86.98"/>
						
							<rect x="324.91" y="325.07" transform="matrix(0.6771 0.7359 -0.7359 0.6771 376.696 -121.3317)" style="opacity:0.35;clip-path:url(#SVGID_14_);fill:#FFFFFF;" width="3.38" height="86.98"/>
						
							<rect x="344.4" y="346.26" transform="matrix(0.6771 0.7359 -0.7359 0.6771 398.5804 -128.8346)" style="opacity:0.35;clip-path:url(#SVGID_14_);fill:#FFFFFF;" width="3.38" height="86.98"/>
						
							<rect x="315.54" y="325.07" transform="matrix(0.6771 0.7359 -0.7359 0.6771 373.3985 -113.8172)" style="opacity:0.35;clip-path:url(#SVGID_14_);fill:#FFFFFF;" width="1.69" height="86.98"/>
						
							<rect x="302.39" y="313.21" transform="matrix(0.6771 0.7359 -0.7359 0.6771 362.0027 -111.5626)" style="opacity:0.35;clip-path:url(#SVGID_14_);fill:#FFFFFF;" width="11.46" height="86.98"/>
					</g>
				</g>
				<polygon style="opacity:0.41;fill:#1A2029;" points="365.04,346.31 334.51,346.31 334.54,347.74 334.53,347.74 334.53,401.35 
					332.37,401.35 332.37,346.31 298.87,346.31 298.87,401.35 296.47,401.35 296.47,343.93 365.04,343.93 				"/>
			</g>
			<path style="fill:#FFFFFF;" d="M293.23,340.7v63.89h75.04V340.7H293.23z M296.47,401.35v-57.42h32.66v57.42H296.47z
				 M365.04,401.35h-32.67v-57.42h32.67V401.35z"/>
		</g>
		<g>
			<g>
				<rect x="291.03" y="396.31" style="fill:#FFFFFF;" width="79.44" height="8.82"/>
				<rect x="291.03" y="402.31" style="opacity:0.15;fill:#1A2029;" width="79.44" height="2.19"/>
			</g>
			<g>
				<rect x="284.7" y="404.51" style="fill:#FFFFFF;" width="92.11" height="10.7"/>
				<rect x="284.7" y="411.03" style="opacity:0.15;fill:#1A2029;" width="92.11" height="4.17"/>
			</g>
		</g>
	</g>
</g>
<g>
	<g>
		<path style="fill:#8BAA3D;" d="M493.1,405.41h-78.98c-1.04-3.03-1.24-6.5-0.25-9.57c2.18-6.75,9.57-9.82,14.51-6.02
			c-0.97-4.95,0.69-10.54,4-13.47c3.3-2.94,8.04-3.02,11.41-0.22c0.66,0.56,1.35,1.25,2.15,1.24c0.98-0.01,1.74-1.05,2.45-1.92
			c4.09-5.01,12.01-5.35,14.79,0.92c0.44,0.97,0.78,2.12,1.57,2.62c0.7,0.43,1.52,0.22,2.28,0.02c3.8-1.02,8.01-1.56,11.33,0.98
			c4.13,3.15,5.42,9.86,5.88,15.91c0.07,0.99,0.2,2.13,0.88,2.65c0.38,0.29,0.85,0.31,1.29,0.36
			C489.35,399.27,492.03,401.95,493.1,405.41z"/>
	</g>
	<g>
		<path style="fill:#8BAA3D;" d="M247.32,406.87h-84.05c-1.11-3.29-1.32-7.07-0.27-10.4c2.32-7.34,10.19-10.67,15.44-6.55
			c-1.03-5.37,0.74-11.45,4.25-14.64c3.52-3.2,8.56-3.28,12.15-0.23c0.71,0.61,1.44,1.36,2.29,1.35c1.05-0.01,1.85-1.14,2.61-2.08
			c4.35-5.44,12.78-5.81,15.74,1c0.46,1.06,0.83,2.31,1.67,2.84c0.74,0.47,1.62,0.24,2.42,0.02c4.04-1.11,8.52-1.69,12.05,1.07
			c4.39,3.42,5.77,10.72,6.26,17.3c0.08,1.07,0.21,2.32,0.93,2.88c0.4,0.31,0.9,0.33,1.37,0.39
			C243.34,400.21,246.19,403.11,247.32,406.87z"/>
	</g>
</g>
<g>
	<g>
		<rect x="266.95" y="386.76" style="fill:#5E1726;" width="3.19" height="19.32"/>
		<g>
			<circle style="fill:#8BAA3D;" cx="268.15" cy="374.66" r="14.24"/>
			<path style="opacity:0.09;fill:#1A2029;" d="M282.2,374.66c0,7.87-6.38,14.24-14.24,14.24c-6.72,0-12.36-4.66-13.86-10.92
				c2.49,2.16,5.74,3.46,9.3,3.46c7.87,0,14.25-6.38,14.25-14.24c0-1.15-0.14-2.26-0.39-3.32
				C280.28,366.48,282.2,370.35,282.2,374.66z"/>
		</g>
		<g>
			<rect x="263.52" y="401.41" style="fill:#DB3552;" width="10.04" height="9.82"/>
			<rect x="262.11" y="400" style="fill:#DB3552;" width="12.87" height="2.83"/>
			<path style="opacity:0.09;fill:#1A2029;" d="M273.56,402.63v8.6h-10.04v-2.55c0.96,0.64,2.04,1,3.19,1
				C270.04,409.68,272.82,406.67,273.56,402.63z"/>
		</g>
	</g>
	<g>
		<rect x="389.63" y="386.76" style="fill:#5E1726;" width="3.19" height="19.32"/>
		<g>
			<circle style="fill:#8BAA3D;" cx="390.83" cy="374.66" r="14.24"/>
			<path style="opacity:0.09;fill:#1A2029;" d="M404.88,374.66c0,7.87-6.38,14.24-14.24,14.24c-6.72,0-12.36-4.66-13.86-10.92
				c2.49,2.16,5.74,3.46,9.3,3.46c7.87,0,14.25-6.38,14.25-14.24c0-1.15-0.14-2.26-0.39-3.32
				C402.97,366.48,404.88,370.35,404.88,374.66z"/>
		</g>
		<g>
			<rect x="386.21" y="401.41" style="fill:#DB3552;" width="10.04" height="9.82"/>
			<rect x="384.79" y="400" style="fill:#DB3552;" width="12.87" height="2.83"/>
			<path style="opacity:0.09;fill:#1A2029;" d="M396.24,402.63v8.6h-10.04v-2.55c0.96,0.64,2.04,1,3.19,1
				C392.72,409.68,395.51,406.67,396.24,402.63z"/>
		</g>
	</g>
</g>
</svg>
